<?xml version="1.0" encoding="UTF-8"?>
<svg version="1.1" xmlns="http://www.w3.org/2000/svg" width="400" height="400">
<path d="M0 0 C0.99 0.495 0.99 0.495 2 1 C-0.64 4.63 -3.28 8.26 -6 12 C11.22202989 11.38528865 11.22202989 11.38528865 27 5 C27.66 5 28.32 5 29 5 C27.87548273 7.9719385 26.77706209 10.33440687 25 13 C31.4188547 11.26375242 37.13784836 9.14819255 43 6 C42.06600092 10.85042706 39.53179822 13.66911245 36 17 C34.45933618 17.96128696 32.88449972 18.86983272 31.28125 19.72265625 C30.47751953 20.15457275 29.67378906 20.58648926 28.84570312 21.03149414 C28.23662109 21.35110107 27.62753906 21.67070801 27 22 C30.9641169 22.57777225 34.92935587 23.14706632 38.89575195 23.70898438 C40.24112675 23.90074412 41.5861904 24.09470165 42.9309082 24.29101562 C62.41576226 27.24770364 62.41576226 27.24770364 80 20 C80.66 20 81.32 20 82 20 C79.26765093 27.96935146 74.05033527 31.88336129 67 36 C64.68993708 37.1297388 62.40463488 38.079076 60 39 C75.0426281 45.01705124 87.21085393 47.8605105 103.0546875 43.65625 C105.81944619 43.0402295 108.18128093 42.87518587 111 43 C101.00444172 53.89490157 87.04848048 62.11219333 72.30859375 62.921875 C71.54675781 62.94765625 70.78492188 62.9734375 70 63 C70 63.66 70 64.32 70 65 C70.83402344 65.21398437 71.66804687 65.42796875 72.52734375 65.6484375 C76.84918454 67.33050377 79.95077853 69.76760595 83.5625 72.625 C102.26890926 87.14821367 102.26890926 87.14821367 125 91 C121.00548726 95.76764424 117.12970781 97.85067979 111 99 C106.98451814 99.22200981 103.01617637 99.18348014 99 99 C104.64626833 103.6424873 109.90069383 105.42094998 117 107 C117 107.66 117 108.32 117 109 C109.5810058 110.23649903 103.34514411 109.50382815 96 108 C96.65742187 109.15048828 96.65742187 109.15048828 97.328125 110.32421875 C98.27945313 111.98904297 98.27945313 111.98904297 99.25 113.6875 C99.6013501 114.29891846 99.9527002 114.91033691 100.31469727 115.5402832 C102.53818881 119.41559279 104.7272934 123.30733805 106.88671875 127.21875 C113.25227988 138.67388341 119.60553372 148.75232225 129 158 C127.45761734 157.88416889 125.91609728 157.75683428 124.375 157.625 C123.51648438 157.55539063 122.65796875 157.48578125 121.7734375 157.4140625 C118.68684493 156.95324727 115.94552949 156.01508574 113 155 C113.90288876 159.12813768 114.82483796 163.25180185 115.75 167.375 C116.00265625 168.53128906 116.2553125 169.68757812 116.515625 170.87890625 C117.94867946 177.22017223 119.62157223 183.0814662 122.33691406 188.99853516 C123 191 123 191 122 194 C117.71 188.39 113.42 182.78 109 177 C111.02186202 187.1093101 115.44627479 195.96006487 121.6796875 204.109375 C123 206 123 206 123 208 C113.23567212 203.96690805 108.04059478 189.20397857 104 180 C100.44253139 170.83577666 100.44253139 170.83577666 102 166 C105.54865549 167.97147527 108.18600451 170.08979954 111 173 C109.58388036 164.95386566 108.1270903 157.36281989 104.76953125 149.85546875 C104 148 104 148 104 146 C106.96175123 146.61277612 108.38058783 147.25372522 111 149 C108.77704832 144.49677124 106.53333386 140.00457142 104.27099609 135.52099609 C103.40138621 133.79614177 102.53465949 132.06983165 101.67041016 130.34228516 C94.15038642 115.30781927 94.15038642 115.30781927 84 102 C82.99469044 100.79608051 81.99396445 99.58830298 81 98.375 C80.01 97.199375 80.01 97.199375 79 96 C83.40358445 96.56820445 87.03938166 98.28414495 91.01171875 100.16015625 C92.94733414 101.12970285 92.94733414 101.12970285 95 101 C94.54262451 100.68361572 94.08524902 100.36723145 93.61401367 100.04125977 C84.44695153 93.68262389 75.48547099 87.25755186 67 80 C67.99 79.67 68.98 79.34 70 79 C72.3462564 80.48765177 74.49158888 82.00221203 76.6875 83.6875 C87.22155608 91.50416977 87.22155608 91.50416977 100 93 C99.53851563 92.67128906 99.07703125 92.34257812 98.6015625 92.00390625 C94.62374312 89.1030854 90.95661966 86.06750531 87.375 82.6875 C73.99876785 70.53470372 56.51241513 61.32659668 39 57 C38.14792969 56.78730469 37.29585937 56.57460937 36.41796875 56.35546875 C27.42818579 54.43599128 18.1565819 54.36057006 9 54 C9 53.34 9 52.68 9 52 C24.43714877 48.34693426 41.35093841 51.68497752 55.875 57.25 C67.23124746 61.54099339 75.83396144 59.39673138 87 55 C88.34345743 54.35397804 89.68131547 53.69519302 91 53 C90.18402344 52.86464844 89.36804688 52.72929687 88.52734375 52.58984375 C80.38147493 51.1095825 72.63742545 49.0191927 64.75 46.5 C44.82434517 40.21131375 22.90548131 36.28588219 2.8671875 44.51171875 C0.59178681 45.10675031 -0.79423226 44.73035421 -3 44 C10.05374292 34.409495 26.19030127 33.42943182 41.7890625 35.50390625 C42.84867188 35.66761719 43.90828125 35.83132812 45 36 C51.35640741 36.4100908 56.07940382 35.30245407 62 33 C60.91203125 32.87882812 59.8240625 32.75765625 58.703125 32.6328125 C57.21873145 32.46370437 55.73435751 32.29442411 54.25 32.125 C53.53972656 32.04636719 52.82945312 31.96773437 52.09765625 31.88671875 C47.81105279 31.39356968 43.60104007 30.74328633 39.359375 29.94921875 C32.23680765 28.74139056 25.20997504 28.66929299 18 28.6875 C16.08574219 28.66333008 16.08574219 28.66333008 14.1328125 28.63867188 C-2.81482996 28.63000744 -18.07210467 33.35526158 -30.328125 45.49609375 C-32 47 -32 47 -34 47 C-31.05390834 37.89389852 -24.1709073 33.26004568 -16 29 C-7.29579313 25.30941629 1.4196145 23.31997483 10.74633789 22.07519531 C11.45910889 21.97561523 12.17187988 21.87603516 12.90625 21.7734375 C13.52822266 21.69528809 14.15019531 21.61713867 14.79101562 21.53662109 C17.98633037 20.7603941 20.97762463 19.29530373 24 18 C17.73 18.33 11.46 18.66 5 19 C5.33 18.34 5.66 17.68 6 17 C-9.58155763 16.03064042 -24.55463033 20.82851562 -36.953125 30.2421875 C-39.40339566 32.41435995 -41.71571859 34.65475022 -44 37 C-44.78632813 37.77472656 -45.57265625 38.54945312 -46.3828125 39.34765625 C-48.27330718 41.21509612 -50.14452397 43.09787793 -52 45 C-52.66 44.67 -53.32 44.34 -54 44 C-48.14315908 34.97933504 -41.47331415 27.62999668 -33 21 C-35.54498103 22.07602524 -38.08579311 23.16049792 -40.625 24.25 C-41.33785156 24.55035156 -42.05070312 24.85070312 -42.78515625 25.16015625 C-50.1898872 28.35302189 -55.24910428 31.46188233 -59.25 38.6875 C-62.7784522 44.8892261 -62.7784522 44.8892261 -65 46 C-64.68722584 38.64980723 -61.37101448 33.34921912 -56.1875 28.19921875 C-54.49960926 26.73322744 -52.78344259 25.34739306 -51 24 C-50.278125 23.443125 -49.55625 22.88625 -48.8125 22.3125 C-48.214375 21.879375 -47.61625 21.44625 -47 21 C-46.2575 20.443125 -45.515 19.88625 -44.75 19.3125 C-44.1725 18.879375 -43.595 18.44625 -43 18 C-46.70869909 19.32359932 -49.53387431 20.94246466 -52.625 23.375 C-53.38039063 23.96023437 -54.13578125 24.54546875 -54.9140625 25.1484375 C-57.06871 26.93290286 -57.06871 26.93290286 -58.6484375 29.2265625 C-59.09445313 29.81179687 -59.54046875 30.39703125 -60 31 C-60.66 31 -61.32 31 -62 31 C-62 29.35 -62 27.7 -62 26 C-62.98669759 27.89192475 -63.9640602 29.78871978 -64.9375 31.6875 C-65.48277344 32.74324219 -66.02804688 33.79898438 -66.58984375 34.88671875 C-67.8470576 37.66234047 -68.56069569 40.00272126 -69 43 C-69.66 43 -70.32 43 -71 43 C-71.33 42.34 -71.66 41.68 -72 41 C-72.41958984 41.92232422 -72.41958984 41.92232422 -72.84765625 42.86328125 C-74.84067363 46.88135809 -76.13561456 49.48842495 -80.0625 51.8125 C-81.36502209 52.24002366 -82.67970789 52.63098914 -84 53 C-98.60764686 57.53034401 -98.60764686 57.53034401 -108 69 C-110.17975748 71.17975748 -114.77000104 70.83094472 -117.7265625 71.20703125 C-121.01944078 72.0047094 -123.3169106 73.34883979 -126.1875 75.09741211 C-129.23725598 76.61612815 -132.32551153 76.6542127 -135.6875 76.875 C-145.99603315 77.82727561 -154.45395158 81.87317649 -162 89 C-161.67 89.66 -161.34 90.32 -161 91 C-160.071875 89.8553125 -160.071875 89.8553125 -159.125 88.6875 C-156.01673084 85.51670819 -152.53786264 84.76418062 -148.3046875 83.7734375 C-145.78148621 82.92666825 -144.78472131 81.91144708 -143 80 C-142.34 80 -141.68 80 -141 80 C-141.64987033 82.84318269 -142.39038126 84.57208188 -144.80859375 86.26953125 C-146.23526401 87.09412048 -147.66367324 87.91570787 -149.09375 88.734375 C-151.59857412 90.39741396 -152.72961708 92.30977735 -154 95 C-154.495 95.495 -154.495 95.495 -155 96 C-154.34 96.66 -153.68 97.32 -153 98 C-152.38125 99.7325 -152.38125 99.7325 -151.75 101.5 C-150.33389965 105.25313091 -150.33389965 105.25313091 -146.8125 106.4375 C-145.4203125 106.7159375 -145.4203125 106.7159375 -144 107 C-143.67 106.34 -143.34 105.68 -143 105 C-141.35 106.32 -139.7 107.64 -138 109 C-138 108.34 -138 107.68 -138 107 C-136.329375 107.2784375 -136.329375 107.2784375 -134.625 107.5625 C-131.17431139 108.31680657 -131.17431139 108.31680657 -129 107 C-129.33 106.01 -129.66 105.02 -130 104 C-125.71 104 -121.42 104 -117 104 C-117 104.66 -117 105.32 -117 106 C-116.39414063 106.09925781 -115.78828125 106.19851562 -115.1640625 106.30078125 C-111.42887125 107.50763907 -109.87846398 110.70597923 -108 114 C-107.33333333 116 -106.66666667 118 -106 120 C-105.01 120.33 -104.02 120.66 -103 121 C-102.01 126.445 -102.01 126.445 -101 132 C-100.34 132 -99.68 132 -99 132 C-98.505 136.455 -98.505 136.455 -98 141 C-97.34 141 -96.68 141 -96 141 C-95.35377959 143.41656376 -94.70800996 145.83324646 -94.0625 148.25 C-93.78889648 149.27287109 -93.78889648 149.27287109 -93.50976562 150.31640625 C-93.00411453 152.21029944 -92.50194154 154.10512028 -92 156 C-91.69320312 156.68320313 -91.38640625 157.36640625 -91.0703125 158.0703125 C-90.94201577 161.59134501 -93.67655559 164.03527579 -95.8125 166.625 C-96.50956055 167.50285156 -96.50956055 167.50285156 -97.22070312 168.3984375 C-99.06115317 170.70098046 -100.91459778 172.91459778 -103 175 C-103.99 175 -104.98 175 -106 175 C-106.3403125 175.99 -106.3403125 175.99 -106.6875 177 C-109.32870372 183.03703708 -112.30297286 188.42554946 -118 192 C-120.76133953 192.28614917 -123.08145612 192.38589883 -125.8125 192.25 C-126.50537109 192.23195313 -127.19824219 192.21390625 -127.91210938 192.1953125 C-129.60867664 192.14851064 -131.30452476 192.07677624 -133 192 C-133 194.31 -133 196.62 -133 199 C-132.01 199.33 -131.02 199.66 -130 200 C-128.29413425 201.62652316 -126.6222454 203.29006566 -125 205 C-125.33 201.7 -125.66 198.4 -126 195 C-124.68 195 -123.36 195 -122 195 C-121.34 197.64 -120.68 200.28 -120 203 C-118.68 202.67 -117.36 202.34 -116 202 C-115.67 200.68 -115.34 199.36 -115 198 C-114.34 198 -113.68 198 -113 198 C-111.68 199.98 -110.36 201.96 -109 204 C-108.67 198.72 -108.34 193.44 -108 188 C-107.01 188.33 -106.02 188.66 -105 189 C-104.67 189.99 -104.34 190.98 -104 192 C-102.515 188.535 -102.515 188.535 -101 185 C-100.01 185 -99.02 185 -98 185 C-97.67 185.66 -97.34 186.32 -97 187 C-96.566875 186.05125 -96.13375 185.1025 -95.6875 184.125 C-94 181 -94 181 -91 179 C-90.85472596 176.49099633 -90.86922091 174.1838761 -91 171.6875 C-91.45975945 153.86980501 -91.45975945 153.86980501 -85.890625 147.640625 C-85.26671875 147.09921875 -84.6428125 146.5578125 -84 146 C-84.89208031 153.51896263 -84.89208031 153.51896263 -85.50390625 156.24609375 C-88.21022998 171.26938689 -84.74031623 184.493884 -79.75610352 198.62255859 C-78.39369856 202.90641377 -77.87768632 206.82647429 -77.9375 211.3125 C-77.94652344 212.19550781 -77.95554687 213.07851563 -77.96484375 213.98828125 C-77.97644531 214.65214844 -77.98804688 215.31601562 -78 216 C-79.79068573 213.3139714 -80.66055791 211.3373411 -81.625 208.3125 C-81.88539063 207.50425781 -82.14578125 206.69601562 -82.4140625 205.86328125 C-82.60742188 205.24839844 -82.80078125 204.63351562 -83 204 C-83.13089677 210.64630451 -83.13089677 210.64630451 -82.5 217.25 C-81.21742783 226.86929126 -80.94610164 235.47154652 -86 244 C-87.1247644 240.62570679 -86.75013561 239.39081569 -86 236 C-85.42539729 229.4031189 -86.22476295 223.30798552 -87.5625 216.875 C-89.06681938 209.59589804 -89.03354174 204.05466375 -87.1875 196.8125 C-86.92097223 192.81458352 -88.529608 191.03505303 -91 188 C-91.66 187.67 -92.32 187.34 -93 187 C-93.66 190.3 -94.32 193.6 -95 197 C-99 196 -99 196 -100 195 C-100 198.3 -100 201.6 -100 205 C-100.99 205 -101.98 205 -103 205 C-102.34 206.98 -101.68 208.96 -101 211 C-102.6396875 210.2575 -102.6396875 210.2575 -104.3125 209.5 C-107.79966245 207.81160094 -107.79966245 207.81160094 -111 208 C-110.67 209.32 -110.34 210.64 -110 212 C-111.65 211.34 -113.3 210.68 -115 210 C-114.67 210.680625 -114.34 211.36125 -114 212.0625 C-112.81668325 215.53849295 -112.79337559 218.34963549 -113 222 C-113.33 222.66 -113.66 223.32 -114 224 C-114.66 224 -115.32 224 -116 224 C-116.12117188 223.37351562 -116.24234375 222.74703125 -116.3671875 222.1015625 C-116.61855469 220.87566406 -116.61855469 220.87566406 -116.875 219.625 C-117.11863281 218.40683594 -117.11863281 218.40683594 -117.3671875 217.1640625 C-117.86658932 214.81326077 -117.86658932 214.81326077 -120 213 C-121.32 215.64 -122.64 218.28 -124 221 C-124.66 221 -125.32 221 -126 221 C-125.98839844 220.37351562 -125.97679687 219.74703125 -125.96484375 219.1015625 C-125.95582031 218.28429687 -125.94679687 217.46703125 -125.9375 216.625 C-125.92589844 215.81289063 -125.91429687 215.00078125 -125.90234375 214.1640625 C-125.85533666 211.95062858 -125.85533666 211.95062858 -127 210 C-127.66 210.99 -128.32 211.98 -129 213 C-129.66 213 -130.32 213 -131 213 C-131.2475 212.278125 -131.495 211.55625 -131.75 210.8125 C-133.11136803 207.74942192 -134.88983277 205.58665661 -137 203 C-138.60615375 198.18153875 -138.21074363 193.84297452 -137 189 C-136.65372147 183.66341252 -136.65372147 183.66341252 -139 179 C-139.59617327 173.99833856 -139.64551609 169.43136176 -137.5625 164.8125 C-137.046875 164.214375 -136.53125 163.61625 -136 163 C-135.67 163 -135.34 163 -135 163 C-134.86722656 163.77085937 -134.73445313 164.54171875 -134.59765625 165.3359375 C-134.42105469 166.33882812 -134.24445313 167.34171875 -134.0625 168.375 C-133.88847656 169.37273437 -133.71445313 170.37046875 -133.53515625 171.3984375 C-133.12287938 173.96909656 -133.12287938 173.96909656 -132 176 C-131.96261719 175.21496094 -131.92523438 174.42992187 -131.88671875 173.62109375 C-131.49848655 167.41699099 -130.88845042 162.52573124 -128 157 C-127.34 157 -126.68 157 -126 157 C-125.67 160.3 -125.34 163.6 -125 167 C-122.6595156 167.22966153 -122.6595156 167.22966153 -120.46875 164.59375 C-119.47424264 163.56724776 -118.48486232 162.5357596 -117.5 161.5 C-115.70398465 159.61116732 -113.89128858 157.79789161 -112 156 C-111.34 156 -110.68 156 -110 156 C-111.91153626 140.51489327 -111.91153626 140.51489327 -119.57421875 127.4921875 C-121.39469215 125.58692493 -121.69684758 123.97968379 -122.3125 121.4375 C-122.9681706 119.05141102 -122.9681706 119.05141102 -124 117 C-127.02884844 115.31963489 -127.02884844 115.31963489 -130 115 C-134.77663397 124.55326794 -132.78858774 132.04075808 -130 142 C-135.47106043 139.85657589 -137.45668487 135.01930722 -140 130 C-140.87863502 127.65006577 -141.4656305 125.45809971 -142 123 C-142.08159574 127.16138263 -141.98248524 130.9472484 -141 135 C-144 134 -144 134 -145.09765625 132.50390625 C-147.04699333 128.58155594 -148.2307915 125.15928057 -148.875 120.8125 C-149.77294496 115.47380904 -151.71794646 114.12233071 -156 111 C-157.64838542 108.01720734 -158.00747245 105.91630852 -158.3125 102.5 C-159.16302912 98.17003355 -160.74049913 96.87146505 -164 94 C-165.98450006 91.81020683 -166.8858216 90.40481431 -167.6875 87.5625 C-166.85358256 84.45426225 -166.14516908 84.13165544 -163.5 82.4375 C-162.01211356 81.60302401 -160.5116109 80.79068878 -159 80 C-157.97712891 79.43925781 -157.97712891 79.43925781 -156.93359375 78.8671875 C-151.11533103 75.79295866 -145.36531605 74.21129805 -138.875 73.1875 C-133.22069047 72.22689217 -128.20935582 70.26097925 -122.9453125 68.0234375 C-120 67 -120 67 -117.2890625 67.09765625 C-116.15597656 67.04931641 -116.15597656 67.04931641 -115 67 C-113.47335735 65.32786897 -113.47335735 65.32786897 -112.25 63.0625 C-108.26997409 57.43373284 -103.13216095 55.04359778 -97.04199219 52.18383789 C-90.05924314 48.84034992 -87.04513651 44.32436698 -83.34375 37.671875 C-81.69686977 35.6228496 -80.55492549 35.36808249 -78 35 C-78 35.99 -78 36.98 -78 38 C-77.68546875 37.33613281 -77.3709375 36.67226562 -77.046875 35.98828125 C-73.17408812 27.99774205 -70.03775407 23.01887704 -62 19 C-61.34 19 -60.68 19 -60 19 C-58.13019952 17.54571074 -56.30252254 16.03688764 -54.5 14.5 C-49.22222222 10 -49.22222222 10 -47 10 C-47.33 11.32 -47.66 12.64 -48 14 C-44.80899371 12.75882728 -41.6229075 11.50546459 -38.4375 10.25 C-37.54224609 9.90195313 -36.64699219 9.55390625 -35.72460938 9.1953125 C-30.54160934 7.1448949 -25.76174941 4.90016013 -21 2 C-21.5647301 5.90829085 -23.42131971 7.89920223 -26.0625 10.75 C-26.79597656 11.54921875 -27.52945313 12.3484375 -28.28515625 13.171875 C-28.85105469 13.77515625 -29.41695312 14.3784375 -30 15 C-23.59347515 13.55287909 -17.9525092 11.13717158 -12.1875 8.0625 C-11.55384521 7.72669922 -10.92019043 7.39089844 -10.26733398 7.04492188 C-6.53643882 5.00782849 -3.23501046 2.75438034 0 0 Z M-120 112 C-119.34 112.66 -118.68 113.32 -118 114 C-118 113.34 -118 112.68 -118 112 C-118.66 112 -119.32 112 -120 112 Z M-139 113 C-139.05410687 114.77049689 -139.09284119 116.54146849 -139.125 118.3125 C-139.14820313 119.29863281 -139.17140625 120.28476563 -139.1953125 121.30078125 C-139.20682639 124.22406527 -139.20682639 124.22406527 -137 127 C-136.34 122.38 -135.68 117.76 -135 113 C-136.32 113 -137.64 113 -139 113 Z M-143 114 C-143 114.66 -143 115.32 -143 116 C-142.34 116 -141.68 116 -141 116 C-141 115.34 -141 114.68 -141 114 C-141.66 114 -142.32 114 -143 114 Z M-146 115 C-146 117.31 -146 119.62 -146 122 C-145.67 122 -145.34 122 -145 122 C-145 119.69 -145 117.38 -145 115 C-145.33 115 -145.66 115 -146 115 Z M-102 156 C-102.79664063 156.59748047 -102.79664063 156.59748047 -103.609375 157.20703125 C-107.07291667 159.8046875 -110.53645833 162.40234375 -114 165 C-114.33 164.34 -114.66 163.68 -115 163 C-116.15093925 164.4334152 -117.29558035 165.87188909 -118.4375 167.3125 C-119.07558594 168.11300781 -119.71367188 168.91351563 -120.37109375 169.73828125 C-122.16111355 171.98697277 -122.16111355 171.98697277 -123 175 C-121.26916093 178.22132295 -121.26916093 178.22132295 -119 181 C-118.34 181 -117.68 181 -117 181 C-116.59910156 180.09378906 -116.19820312 179.18757813 -115.78515625 178.25390625 C-112.00946535 170.05352477 -107.96435548 163.96944755 -101 158 C-101.33 157.34 -101.66 156.68 -102 156 Z M-129 169 C-128.88529863 170.75070517 -128.75780972 172.50057536 -128.625 174.25 C-128.55539063 175.22453125 -128.48578125 176.1990625 -128.4140625 177.203125 C-128.01534751 179.89633189 -127.36492937 181.66963279 -126 184 C-124.68 184 -123.36 184 -122 184 C-122.28617188 183.28457031 -122.57234375 182.56914062 -122.8671875 181.83203125 C-124.578125 177.5546875 -126.2890625 173.27734375 -128 169 C-128.33 169 -128.66 169 -129 169 Z M-137 172 C-136 174 -136 174 -136 174 Z M-136 175 C-135 178 -135 178 -135 178 Z M-135 178 C-134 180 -134 180 -134 180 Z M-119 206 C-118 209 -118 209 -118 209 Z " fill="#F36916" transform="translate(219,78)"/>
<path d="M0 0 C-1.06940121 3.10126351 -1.91264974 3.94953096 -4.8125 5.625 C-6.7271609 6.45093215 -8.66127271 7.23616883 -10.625 7.9375 C-13.55398443 9.07838234 -13.55398443 9.07838234 -17 13 C-12.05 11.68 -7.1 10.36 -2 9 C-3 13 -3 13 -4.63671875 14.23828125 C-5.65185547 14.77001953 -5.65185547 14.77001953 -6.6875 15.3125 C-13.96630681 19.58342779 -17.55881353 25.45586043 -21 33 C-20.5875 32.505 -20.175 32.01 -19.75 31.5 C-18 30 -18 30 -14 30 C-14.268125 30.639375 -14.53625 31.27875 -14.8125 31.9375 C-15.204375 32.948125 -15.59625 33.95875 -16 35 C-16.26425781 35.59683594 -16.52851563 36.19367188 -16.80078125 36.80859375 C-21.17536681 47.7761566 -19.0842706 60.51834881 -18 72 C-18.66 71.67 -19.32 71.34 -20 71 C-21.73787598 65.38003414 -22.37694292 60.04268063 -22.625 54.1875 C-22.66367188 53.43791016 -22.70234375 52.68832031 -22.7421875 51.91601562 C-22.89106098 48.94120458 -23 45.97882444 -23 43 C-25.20750212 45.95260359 -26.02392248 47.46917954 -25.85546875 51.20703125 C-25.63503906 52.39683594 -25.41460937 53.58664063 -25.1875 54.8125 C-24.25981361 60.4765684 -23.73817388 66.00805688 -23.6875 71.75 C-23.67074219 73.06484375 -23.65398437 74.3796875 -23.63671875 75.734375 C-24.03672932 79.33016897 -24.43362741 79.73899326 -27 82 C-27.33 83.65 -27.66 85.3 -28 87 C-19.09 87 -10.18 87 -1 87 C-1.99 88.32 -2.98 89.64 -4 91 C-4.66 91 -5.32 91 -6 91 C-5.67 94.63 -5.34 98.26 -5 102 C-3.68325862 100.06537998 -2.37174202 98.12720303 -1.0625 96.1875 C-0.33160156 95.10855469 0.39929688 94.02960938 1.15234375 92.91796875 C3.09992616 90.10079982 3.09992616 90.10079982 4 87 C11.7912901 86.71986282 19.58127217 86.5279635 27.37646484 86.39575195 C30.02474488 86.34061314 32.67269276 86.26567769 35.31982422 86.17016602 C58.61074662 85.35117345 58.61074662 85.35117345 64.02050781 89.49755859 C66.57492678 92.01459418 68.40358759 94.78044732 70 98 C70.0928125 96.1128125 70.0928125 96.1128125 70.1875 94.1875 C70.23970703 93.12595703 70.23970703 93.12595703 70.29296875 92.04296875 C70.14285448 89.54328284 70.14285448 89.54328284 67 87 C73.6 87 80.2 87 87 87 C87 87.66 87 88.32 87 89 C86.01 89.495 86.01 89.495 85 90 C84.67 102.87 84.34 115.74 84 129 C83.34 129 82.68 129 82 129 C80.56450274 127.40665761 79.20172673 125.74748918 77.875 124.0625 C73.7372115 118.88523465 69.4377121 113.92182615 65 109 C64.67 113.95 64.34 118.9 64 124 C65.98 124.99 65.98 124.99 68 126 C67.35264893 126.12004395 66.70529785 126.24008789 66.03833008 126.36376953 C46.95915221 129.94037937 28.44511489 134.38359405 10.23828125 141.17163086 C7.33790192 142.24449732 5.12188704 143 2 143 C1.75765625 142.3709375 1.5153125 141.741875 1.265625 141.09375 C0.93046875 140.2378125 0.5953125 139.381875 0.25 138.5 C-0.07484375 137.6646875 -0.3996875 136.829375 -0.734375 135.96875 C-2.32489159 132.23790863 -4.18622381 128.62755238 -6 125 C-6 130.94 -6 136.88 -6 143 C-4.68 143.66 -3.36 144.32 -2 145 C-4.25881833 147.25881833 -6.27740059 148.22281265 -9.15625 149.6015625 C-10.17847656 150.09140625 -11.20070312 150.58125 -12.25390625 151.0859375 C-13.32511719 151.59382812 -14.39632812 152.10171875 -15.5 152.625 C-16.57121094 153.140625 -17.64242187 153.65625 -18.74609375 154.1875 C-26.74427497 158 -26.74427497 158 -29 158 C-27.92598892 155.08482708 -27.22189824 153.22189824 -25 151 C-24.6791433 148.43274709 -24.6791433 148.43274709 -24.70947266 145.40454102 C-24.69671295 144.23315079 -24.68395325 143.06176056 -24.67080688 141.85487366 C-24.66858124 140.58405441 -24.66635559 139.31323517 -24.6640625 138.00390625 C-24.6574057 136.70428452 -24.6507489 135.40466278 -24.64389038 134.06565857 C-24.63190724 131.31253743 -24.62821062 128.55954187 -24.62939453 125.80639648 C-24.62959782 122.2775006 -24.60229174 118.74940921 -24.56785011 115.22070408 C-24.5402719 111.85675857 -24.54143296 108.49296347 -24.5390625 105.12890625 C-24.52469147 103.86011124 -24.51032043 102.59131622 -24.49551392 101.28407288 C-24.50166718 100.10953049 -24.50782043 98.9349881 -24.51416016 97.72485352 C-24.51131012 96.6894191 -24.50846008 95.65398468 -24.50552368 94.58717346 C-24.76222809 91.84583041 -24.76222809 91.84583041 -27.03036499 90.14219666 C-27.68034454 89.76527176 -28.3303241 89.38834686 -29 89 C-29.309375 89.94875 -29.61875 90.8975 -29.9375 91.875 C-31 95 -31 95 -32 97 C-32.66 97 -33.32 97 -34 97 C-33.7834375 96.27941406 -33.566875 95.55882812 -33.34375 94.81640625 C-30.18737862 82.64391846 -30.71320734 70.48651125 -31 58 C-30.01 57.505 -30.01 57.505 -29 57 C-29.28875 56.22914063 -29.5775 55.45828125 -29.875 54.6640625 C-30.431875 53.15972656 -30.431875 53.15972656 -31 51.625 C-31.556875 50.12839844 -31.556875 50.12839844 -32.125 48.6015625 C-33 46 -33 46 -33 44 C-31.35 44.33 -29.7 44.66 -28 45 C-27.86948242 44.46109131 -27.73896484 43.92218262 -27.60449219 43.36694336 C-26.99735301 40.88761449 -26.37381207 38.41268416 -25.75 35.9375 C-25.54503906 35.08994141 -25.34007812 34.24238281 -25.12890625 33.36914062 C-23.75720137 27.98623815 -21.98027937 23.6933032 -19 19 C-24.03681497 22.07122864 -27.94510767 25.72916666 -32 30 C-32.83583327 27.62392051 -33.1842383 26.45550373 -32.22265625 24.078125 C-31.1484375 22.38541667 -30.07421875 20.69270833 -29 19 C-28.34 19 -27.68 19 -27 19 C-26.690625 18.195625 -26.690625 18.195625 -26.375 17.375 C-24.42003056 13.9982346 -21.81776305 11.69525161 -19 9 C-19.66 8.01 -20.32 7.02 -21 6 C-19.95199219 5.73445312 -18.90398437 5.46890625 -17.82421875 5.1953125 C-16.4452352 4.83884056 -15.06633316 4.48205321 -13.6875 4.125 C-12.99720703 3.95097656 -12.30691406 3.77695313 -11.59570312 3.59765625 C-7.48240712 2.52462251 -4.11513377 0 0 0 Z M-28 63 C-27 65 -27 65 -27 65 Z M24 88 C16.70826001 93.59979433 9.9206722 101.11014253 7 110 C7.60187776 115.58002557 9.93850683 119.37652052 13 124 C13.54011719 125.00804687 14.08023438 126.01609375 14.63671875 127.0546875 C16.94804417 131.84874784 16.94804417 131.84874784 21.04296875 134.8515625 C23.16164208 135.21263556 23.16164208 135.21263556 25.1875 133.5625 C28.74733869 128.52962461 28.14726322 121.21124595 28.31640625 115.21875 C28.33718735 114.51979614 28.35796844 113.82084229 28.37937927 113.10070801 C28.44398535 110.90055741 28.50333909 108.70030304 28.5625 106.5 C28.60577017 104.99478158 28.64938693 103.48957307 28.69335938 101.984375 C28.79957319 98.32302256 28.90108196 94.66155766 29 91 C26.525 89.515 26.525 89.515 24 88 Z M46 88 C45.01 88.66 44.02 89.32 43 90 C42.66228483 92.83024762 42.51096665 95.45243967 42.48828125 98.2890625 C42.47033005 99.10748627 42.45237885 99.92591003 42.43388367 100.76913452 C42.37962486 103.38770364 42.34583596 106.00608894 42.3125 108.625 C42.27934057 110.39846317 42.24485221 112.17190204 42.20898438 113.9453125 C42.12388981 118.29674264 42.0571536 122.64811679 42 127 C43.32 127.66 44.64 128.32 46 129 C48.12722208 128.05281711 48.12722208 128.05281711 50 126 C50.42592854 123.15584123 50.60484037 120.68121245 50.609375 117.83203125 C50.62591125 117.03721848 50.64244751 116.2424057 50.65948486 115.42350769 C50.7080462 112.88642719 50.72935279 110.34994633 50.75 107.8125 C50.77815304 106.09176657 50.80807954 104.37106118 50.83984375 102.65039062 C50.91380676 98.43364312 50.96333118 94.21723007 51 90 C48.67145537 88.80161791 48.67145537 88.80161791 46 88 Z " fill="#1C418C" transform="translate(174,152)"/>
<path d="M0 0 C0.88026855 -0.0033284 1.76053711 -0.0066568 2.66748047 -0.01008606 C4.53026811 -0.01515292 6.39306485 -0.01749446 8.25585938 -0.01733398 C11.11343226 -0.01952239 13.97062037 -0.03768578 16.828125 -0.05664062 C18.63541534 -0.05957415 20.44270752 -0.06155922 22.25 -0.0625 C23.53753174 -0.07327827 23.53753174 -0.07327827 24.85107422 -0.08427429 C30.89617421 -0.06085704 30.89617421 -0.06085704 33.125 2.16796875 C33.125 1.50796875 33.125 0.84796875 33.125 0.16796875 C35.41660319 0.14104391 37.70829546 0.12160751 40 0.10546875 C41.27617187 0.09386719 42.55234375 0.08226562 43.8671875 0.0703125 C47.125 0.16796875 47.125 0.16796875 49.125 1.16796875 C49.125 0.83796875 49.125 0.50796875 49.125 0.16796875 C52.095 0.16796875 55.065 0.16796875 58.125 0.16796875 C58.125 2.47796875 58.125 4.78796875 58.125 7.16796875 C58.785 4.85796875 59.445 2.54796875 60.125 0.16796875 C67.385 0.16796875 74.645 0.16796875 82.125 0.16796875 C82.125 6.76796875 82.125 13.36796875 82.125 20.16796875 C73.875 20.16796875 65.625 20.16796875 57.125 20.16796875 C57.125 20.82796875 57.125 21.48796875 57.125 22.16796875 C57.99713135 22.1522583 58.8692627 22.13654785 59.76782227 22.12036133 C63.03123018 22.06896054 66.29420232 22.03148782 69.55786133 22.00317383 C70.96515734 21.98816998 72.37240724 21.96776012 73.77954102 21.94165039 C75.81277907 21.9048921 77.84539432 21.88815891 79.87890625 21.875 C81.09908447 21.85928955 82.3192627 21.8435791 83.57641602 21.82739258 C88.3774548 22.28817339 92.30317892 23.63998978 96.0625 26.79296875 C97.73091334 30.52236327 98.06552781 34.18928862 97.125 38.16796875 C96.2218627 39.24070442 95.30350562 40.30070756 94.375 41.3515625 C92.63811704 43.64933973 92.04842757 44.56483239 92.41601562 47.46020508 C93.33222621 50.04622497 94.41493518 52.45598152 95.625 54.91796875 C96.00398438 55.76746094 96.38296875 56.61695313 96.7734375 57.4921875 C98.5937222 61.46542962 99.98127094 64.02423969 103.125 67.16796875 C98.835 67.16796875 94.545 67.16796875 90.125 67.16796875 C89.18098958 64.75911458 88.23697917 62.35026042 87.29296875 59.94140625 C86.03096954 56.94468573 84.60591596 54.06190768 83.125 51.16796875 C83.09807516 53.45957194 83.07863876 55.75126421 83.0625 58.04296875 C83.05089844 59.31914062 83.03929687 60.5953125 83.02734375 61.91015625 C82.89323431 65.05461527 82.89323431 65.05461527 84.125 67.16796875 C72.575 67.16796875 61.025 67.16796875 49.125 67.16796875 C49.62 65.68296875 49.62 65.68296875 50.125 64.16796875 C50.27073058 62.68830949 50.37163268 61.20393032 50.44140625 59.71875 C50.48330078 58.87119141 50.52519531 58.02363281 50.56835938 57.15039062 C50.60767578 56.26931641 50.64699219 55.38824219 50.6875 54.48046875 C50.75227539 53.14145508 50.75227539 53.14145508 50.81835938 51.77539062 C50.92435353 49.57306767 51.02642051 47.37063402 51.125 45.16796875 C50.135 45.16796875 49.145 45.16796875 48.125 45.16796875 C48.45113281 44.32621094 48.77726562 43.48445313 49.11328125 42.6171875 C50.20550885 38.89349262 50.35814101 35.8516559 50.3125 31.98046875 C50.30605469 30.77003906 50.29960937 29.55960938 50.29296875 28.3125 C50.26285492 25.13957563 50.26285492 25.13957563 49.125 22.16796875 C50.775 21.83796875 52.425 21.50796875 54.125 21.16796875 C52.475 18.52796875 50.825 15.88796875 49.125 13.16796875 C48.795 14.81796875 48.465 16.46796875 48.125 18.16796875 C48.785 18.16796875 49.445 18.16796875 50.125 18.16796875 C50.125 18.82796875 50.125 19.48796875 50.125 20.16796875 C47.155 20.16796875 44.185 20.16796875 41.125 20.16796875 C41.125 14.22796875 41.125 8.28796875 41.125 2.16796875 C40.795 8.76796875 40.465 15.36796875 40.125 22.16796875 C37.01242431 19.05539306 35.1909594 16.88669566 33.125 13.16796875 C32.97350702 16.79682199 32.97350702 16.79682199 34.125 20.16796875 C28.23513537 20.24222514 22.34554434 20.29662143 16.45532227 20.33276367 C14.45234428 20.3478334 12.4493992 20.36829285 10.4465332 20.39428711 C7.56453319 20.43075002 4.68297016 20.44771336 1.80078125 20.4609375 C0.90788895 20.47642136 0.01499664 20.49190521 -0.904953 20.50785828 C-5.7118055 20.50915418 -9.01016783 20.36118416 -12.875 17.16796875 C-15.54273607 13.16636465 -15.58978813 9.87365727 -14.875 5.16796875 C-10.72894394 -0.36010599 -6.46480726 0.00838137 0 0 Z M73.125 1.16796875 C73.125 6.77796875 73.125 12.38796875 73.125 18.16796875 C73.785 18.16796875 74.445 18.16796875 75.125 18.16796875 C75.125 12.88796875 75.125 7.60796875 75.125 2.16796875 C74.465 1.83796875 73.805 1.50796875 73.125 1.16796875 Z M4.125 2.16796875 C4.125 3.81796875 4.125 5.46796875 4.125 7.16796875 C4.785 7.16796875 5.445 7.16796875 6.125 7.16796875 C6.125 5.51796875 6.125 3.86796875 6.125 2.16796875 C5.465 2.16796875 4.805 2.16796875 4.125 2.16796875 Z M12.125 2.16796875 C12.125 4.47796875 12.125 6.78796875 12.125 9.16796875 C12.785 8.83796875 13.445 8.50796875 14.125 8.16796875 C14.125 6.18796875 14.125 4.20796875 14.125 2.16796875 C13.465 2.16796875 12.805 2.16796875 12.125 2.16796875 Z M25.125 1.16796875 C25.125 2.15796875 25.125 3.14796875 25.125 4.16796875 C23.475 3.83796875 21.825 3.50796875 20.125 3.16796875 C20.125 4.48796875 20.125 5.80796875 20.125 7.16796875 C22.105 7.16796875 24.085 7.16796875 26.125 7.16796875 C26.125 5.18796875 26.125 3.20796875 26.125 1.16796875 C25.795 1.16796875 25.465 1.16796875 25.125 1.16796875 Z M65.125 3.16796875 C65.125 4.48796875 65.125 5.80796875 65.125 7.16796875 C65.785 7.16796875 66.445 7.16796875 67.125 7.16796875 C67.125 5.84796875 67.125 4.52796875 67.125 3.16796875 C66.465 3.16796875 65.805 3.16796875 65.125 3.16796875 Z M-2.875 2.16796875 C-2.875 3.15796875 -2.875 4.14796875 -2.875 5.16796875 C-4.195 4.83796875 -5.515 4.50796875 -6.875 4.16796875 C-8.63028019 6.31267115 -8.63028019 6.31267115 -9.875 9.16796875 C-9.17559064 12.43611279 -9.17559064 12.43611279 -7.875 15.16796875 C-6.225 15.16796875 -4.575 15.16796875 -2.875 15.16796875 C-2.545 16.15796875 -2.215 17.14796875 -1.875 18.16796875 C-1.875 16.90984375 -1.875 15.65171875 -1.875 14.35546875 C-1.875 10.29296875 -1.875 6.23046875 -1.875 2.16796875 C-2.205 2.16796875 -2.535 2.16796875 -2.875 2.16796875 Z M4.125 10.16796875 C4.125 12.80796875 4.125 15.44796875 4.125 18.16796875 C4.785 18.16796875 5.445 18.16796875 6.125 18.16796875 C6.125 15.52796875 6.125 12.88796875 6.125 10.16796875 C5.465 10.16796875 4.805 10.16796875 4.125 10.16796875 Z M12.125 10.16796875 C12.125 12.80796875 12.125 15.44796875 12.125 18.16796875 C12.785 18.16796875 13.445 18.16796875 14.125 18.16796875 C14.125 15.52796875 14.125 12.88796875 14.125 10.16796875 C13.465 10.16796875 12.805 10.16796875 12.125 10.16796875 Z M20.125 10.16796875 C20.125 12.14796875 20.125 14.12796875 20.125 16.16796875 C21.445 16.16796875 22.765 16.16796875 24.125 16.16796875 C24.785 16.82796875 25.445 17.48796875 26.125 18.16796875 C26.125 14.86796875 26.125 11.56796875 26.125 8.16796875 C24.04071791 8.16796875 22.02682036 9.38773476 20.125 10.16796875 Z M57.125 10.16796875 C57.125 13.13796875 57.125 16.10796875 57.125 19.16796875 C57.785 18.83796875 58.445 18.50796875 59.125 18.16796875 C59.125 15.52796875 59.125 12.88796875 59.125 10.16796875 C58.465 10.16796875 57.805 10.16796875 57.125 10.16796875 Z M65.125 10.16796875 C65.125 12.80796875 65.125 15.44796875 65.125 18.16796875 C65.785 18.16796875 66.445 18.16796875 67.125 18.16796875 C67.125 15.52796875 67.125 12.88796875 67.125 10.16796875 C66.465 10.16796875 65.805 10.16796875 65.125 10.16796875 Z M69.125 23.16796875 C69.125 25.80796875 69.125 28.44796875 69.125 31.16796875 C68.135 30.50796875 67.145 29.84796875 66.125 29.16796875 C63.49968476 29.00083306 63.49968476 29.00083306 61.125 29.16796875 C61.125 32.13796875 61.125 35.10796875 61.125 38.16796875 C64.095 38.16796875 67.065 38.16796875 70.125 38.16796875 C69 41.10546875 69 41.10546875 67.125 44.16796875 C65.145 44.49796875 63.165 44.82796875 61.125 45.16796875 C61.125 50.11796875 61.125 55.06796875 61.125 60.16796875 C63.105 60.16796875 65.085 60.16796875 67.125 60.16796875 C67.62 59.67296875 67.62 59.67296875 68.125 59.16796875 C68.455 61.47796875 68.785 63.78796875 69.125 66.16796875 C70.115 65.50796875 71.105 64.84796875 72.125 64.16796875 C72.42909587 61.29474087 72.54495458 58.64086672 72.5234375 55.765625 C72.52630768 54.93212021 72.52917786 54.09861542 72.53213501 53.23985291 C72.53417826 51.47540611 72.5286302 49.71093679 72.51611328 47.9465332 C72.50008288 45.24443859 72.51594213 42.54384435 72.53515625 39.84179688 C72.53317347 38.12890294 72.52932907 36.41600995 72.5234375 34.703125 C72.52951019 33.89367935 72.53558289 33.0842337 72.5418396 32.2502594 C72.61912647 27.99149805 72.61912647 27.99149805 70.60073853 24.4306488 C70.11374481 24.01396439 69.6267511 23.59727997 69.125 23.16796875 Z M82.125 30.16796875 C82.125 33.46796875 82.125 36.76796875 82.125 40.16796875 C83.775 39.83796875 85.425 39.50796875 87.125 39.16796875 C87.80173447 35.76475941 87.80173447 35.76475941 88.125 32.16796875 C87.465 31.50796875 86.805 30.84796875 86.125 30.16796875 C84.805 30.16796875 83.485 30.16796875 82.125 30.16796875 Z " fill="#1A4993" transform="translate(194.875,168.83203125)"/>
<path d="M0 0 C1.23856247 -0.00960754 2.47712494 -0.01921509 3.7532196 -0.02911377 C5.11257747 -0.03396316 6.47193748 -0.03824164 7.83129883 -0.04199219 C9.22414654 -0.04774561 10.61699424 -0.05350332 12.00984192 -0.05926514 C14.93446217 -0.06977851 17.85905492 -0.07561815 20.78369141 -0.07910156 C24.51828667 -0.08457008 28.25251434 -0.10856093 31.98699474 -0.13707352 C34.86704031 -0.15577086 37.74699888 -0.16090937 40.62709999 -0.16243744 C42.00292267 -0.16545135 43.37874427 -0.17343704 44.75450706 -0.18662262 C58.26143896 -0.30677507 58.26143896 -0.30677507 64.10083008 3.16113281 C67.01781583 6.45450382 67.75230589 9.68717148 67.58520508 14.09863281 C66.66220277 18.02883617 64.10261159 20.59223232 61.10083008 23.16113281 C58.32144535 24.74935266 57.07574192 25.37384085 53.95239258 24.69238281 C53.34137695 24.51707031 52.73036133 24.34175781 52.10083008 24.16113281 C52.04692651 27.09887745 52.00720458 30.03563513 51.97583008 32.97363281 C51.95907227 33.80701172 51.94231445 34.64039063 51.92504883 35.49902344 C51.91860352 36.30146484 51.9121582 37.10390625 51.90551758 37.93066406 C51.89504395 38.66905518 51.88457031 39.40744629 51.8737793 40.16821289 C51.98341529 42.48003957 51.98341529 42.48003957 54.10083008 45.16113281 C48.56494475 45.18578057 43.02909108 45.20396777 37.49316406 45.21606445 C35.60839278 45.22110525 33.72362543 45.2279378 31.83886719 45.23657227 C29.13581372 45.24864898 26.43281177 45.2543635 23.72973633 45.25878906 C22.45786217 45.26653099 22.45786217 45.26653099 21.16029358 45.27442932 C19.14011939 45.27462476 17.12005074 45.22319492 15.10083008 45.16113281 C12.96996566 43.0302684 13.84122135 38.26946346 13.78442383 35.31347656 C13.76364273 34.42704971 13.74286163 33.54062286 13.72145081 32.62733459 C13.65585608 29.78451581 13.59702456 26.94160165 13.53833008 24.09863281 C13.49515427 22.17609675 13.4515403 20.25357047 13.4074707 18.33105469 C13.30016465 13.60784613 13.19892557 8.88454128 13.10083008 4.16113281 C12.77083008 5.81113281 12.44083008 7.46113281 12.10083008 9.16113281 C8.47083008 8.50113281 4.84083008 7.84113281 1.10083008 7.16113281 C1.47594727 8.15371094 1.85106445 9.14628906 2.23754883 10.16894531 C3.59317631 13.7618477 4.93521618 17.35971515 6.27514648 20.95849609 C7.04350922 23.00822071 7.8263278 25.05180235 8.61254883 27.09472656 C9.06243164 28.29226562 9.51231445 29.48980469 9.97583008 30.72363281 C10.38575195 31.79742187 10.79567383 32.87121094 11.21801758 33.97753906 C12.19933423 37.51635795 12.32678153 40.50523828 12.10083008 44.16113281 C11.10083008 45.16113281 11.10083008 45.16113281 9.15136719 45.2746582 C7.90238647 45.26680298 7.90238647 45.26680298 6.62817383 45.25878906 C5.72905273 45.25556641 4.82993164 45.25234375 3.90356445 45.24902344 C2.48527344 45.23645508 2.48527344 45.23645508 1.03833008 45.22363281 C0.08893555 45.21912109 -0.86045898 45.21460938 -1.83862305 45.20996094 C-4.19216524 45.19813409 -6.54567524 45.18019803 -8.89916992 45.16113281 C-8.89916992 42.19113281 -8.89916992 39.22113281 -8.89916992 36.16113281 C-7.90916992 36.49113281 -6.91916992 36.82113281 -5.89916992 37.16113281 C-3.56617167 37.20067516 -1.23208803 37.20515014 1.10083008 37.16113281 C0.82819336 36.42588379 0.55555664 35.69063477 0.2746582 34.93310547 C-0.96664507 31.55665446 -2.18299149 28.1717106 -3.39916992 24.78613281 C-3.82842773 23.62984375 -4.25768555 22.47355469 -4.69995117 21.28222656 C-7.16013723 14.37027526 -8.5794707 8.50796129 -7.89916992 1.16113281 C-5.18565962 -0.19562234 -3.03796828 0.01896728 0 0 Z M25.10083008 2.16113281 C23.71661942 3.31781782 23.71661942 3.31781782 23.98730469 6.48754883 C23.98746378 7.96338838 23.99315694 9.4392335 24.00317383 10.91503906 C24.00458878 11.69048569 24.00600372 12.46593231 24.00746155 13.26487732 C24.01307662 15.75116776 24.02563161 18.23736942 24.03833008 20.72363281 C24.04334314 22.40527214 24.04790638 24.08691287 24.05200195 25.76855469 C24.06305095 29.89944847 24.08032563 34.03027557 24.10083008 38.16113281 C25.42083008 38.16113281 26.74083008 38.16113281 28.10083008 38.16113281 C28.10083008 26.61113281 28.10083008 15.06113281 28.10083008 3.16113281 C27.11083008 2.83113281 26.12083008 2.50113281 25.10083008 2.16113281 Z M39.10083008 2.16113281 C36.69091189 4.12927904 36.69091189 4.12927904 36.8737793 7.87646484 C36.87409656 9.47399333 36.88543026 11.07154309 36.90551758 12.66894531 C36.90834747 13.50956512 36.91117737 14.35018494 36.91409302 15.21627808 C36.92530578 17.90637327 36.95041205 20.59613791 36.97583008 23.28613281 C36.98585848 25.10774259 36.99498457 26.92935758 37.00317383 28.75097656 C37.02524866 33.22115639 37.05978574 37.69108852 37.10083008 42.16113281 C39.04686282 42.75183295 39.04686282 42.75183295 41.10083008 43.16113281 C43.1727214 41.08924149 42.28915249 36.67659264 42.30395508 33.82128906 C42.30965515 32.98399765 42.31535522 32.14670624 42.32122803 31.28404236 C42.33069162 29.50944285 42.33721738 27.73482565 42.34106445 25.96020508 C42.35077717 23.23845958 42.38178995 20.51746672 42.41333008 17.79589844 C42.41985907 16.07519982 42.42510995 14.35449577 42.42895508 12.63378906 C42.44130188 11.81604507 42.45364868 10.99830109 42.46636963 10.15577698 C42.49150841 7.62193793 42.49150841 7.62193793 42.10083008 4.16113281 C41.11083008 3.50113281 40.12083008 2.84113281 39.10083008 2.16113281 Z M52.10083008 8.16113281 C52.10083008 11.46113281 52.10083008 14.76113281 52.10083008 18.16113281 C56.07224698 17.53271308 56.07224698 17.53271308 58.10083008 15.16113281 C58.43416341 12.66113281 58.43416341 12.66113281 58.10083008 10.16113281 C57.44083008 9.50113281 56.78083008 8.84113281 56.10083008 8.16113281 C54.78083008 8.16113281 53.46083008 8.16113281 52.10083008 8.16113281 Z " fill="#1B4792" transform="translate(176.899169921875,190.8388671875)"/>
<path d="M0 0 C0.88026855 -0.0033284 1.76053711 -0.0066568 2.66748047 -0.01008606 C4.53026811 -0.01515292 6.39306485 -0.01749446 8.25585938 -0.01733398 C11.11343226 -0.01952239 13.97062037 -0.03768578 16.828125 -0.05664062 C18.63541534 -0.05957415 20.44270752 -0.06155922 22.25 -0.0625 C23.53753174 -0.07327827 23.53753174 -0.07327827 24.85107422 -0.08427429 C30.89617421 -0.06085704 30.89617421 -0.06085704 33.125 2.16796875 C33.125 1.50796875 33.125 0.84796875 33.125 0.16796875 C35.41660319 0.14104391 37.70829546 0.12160751 40 0.10546875 C41.27617187 0.09386719 42.55234375 0.08226562 43.8671875 0.0703125 C47.125 0.16796875 47.125 0.16796875 49.125 1.16796875 C49.125 0.83796875 49.125 0.50796875 49.125 0.16796875 C52.095 0.16796875 55.065 0.16796875 58.125 0.16796875 C58.125 2.47796875 58.125 4.78796875 58.125 7.16796875 C58.785 4.85796875 59.445 2.54796875 60.125 0.16796875 C67.385 0.16796875 74.645 0.16796875 82.125 0.16796875 C82.125 6.76796875 82.125 13.36796875 82.125 20.16796875 C73.875 20.16796875 65.625 20.16796875 57.125 20.16796875 C57.125 20.82796875 57.125 21.48796875 57.125 22.16796875 C53.59266245 20.9905229 53.26191925 20.21191234 51.4375 17.10546875 C51.00050781 16.37199219 50.56351562 15.63851562 50.11328125 14.8828125 C49.78714844 14.31691406 49.46101563 13.75101563 49.125 13.16796875 C48.795 14.81796875 48.465 16.46796875 48.125 18.16796875 C48.785 18.16796875 49.445 18.16796875 50.125 18.16796875 C50.125 18.82796875 50.125 19.48796875 50.125 20.16796875 C47.155 20.16796875 44.185 20.16796875 41.125 20.16796875 C41.125 14.22796875 41.125 8.28796875 41.125 2.16796875 C40.795 8.76796875 40.465 15.36796875 40.125 22.16796875 C37.01242431 19.05539306 35.1909594 16.88669566 33.125 13.16796875 C32.97350702 16.79682199 32.97350702 16.79682199 34.125 20.16796875 C28.23513537 20.24222514 22.34554434 20.29662143 16.45532227 20.33276367 C14.45234428 20.3478334 12.4493992 20.36829285 10.4465332 20.39428711 C7.56453319 20.43075002 4.68297016 20.44771336 1.80078125 20.4609375 C0.90788895 20.47642136 0.01499664 20.49190521 -0.904953 20.50785828 C-5.7118055 20.50915418 -9.01016783 20.36118416 -12.875 17.16796875 C-15.54273607 13.16636465 -15.58978813 9.87365727 -14.875 5.16796875 C-10.72894394 -0.36010599 -6.46480726 0.00838137 0 0 Z M73.125 1.16796875 C73.125 6.77796875 73.125 12.38796875 73.125 18.16796875 C73.785 18.16796875 74.445 18.16796875 75.125 18.16796875 C75.125 12.88796875 75.125 7.60796875 75.125 2.16796875 C74.465 1.83796875 73.805 1.50796875 73.125 1.16796875 Z M4.125 2.16796875 C4.125 3.81796875 4.125 5.46796875 4.125 7.16796875 C4.785 7.16796875 5.445 7.16796875 6.125 7.16796875 C6.125 5.51796875 6.125 3.86796875 6.125 2.16796875 C5.465 2.16796875 4.805 2.16796875 4.125 2.16796875 Z M12.125 2.16796875 C12.125 4.47796875 12.125 6.78796875 12.125 9.16796875 C12.785 8.83796875 13.445 8.50796875 14.125 8.16796875 C14.125 6.18796875 14.125 4.20796875 14.125 2.16796875 C13.465 2.16796875 12.805 2.16796875 12.125 2.16796875 Z M25.125 1.16796875 C25.125 2.15796875 25.125 3.14796875 25.125 4.16796875 C23.475 3.83796875 21.825 3.50796875 20.125 3.16796875 C20.125 4.48796875 20.125 5.80796875 20.125 7.16796875 C22.105 7.16796875 24.085 7.16796875 26.125 7.16796875 C26.125 5.18796875 26.125 3.20796875 26.125 1.16796875 C25.795 1.16796875 25.465 1.16796875 25.125 1.16796875 Z M65.125 3.16796875 C65.125 4.48796875 65.125 5.80796875 65.125 7.16796875 C65.785 7.16796875 66.445 7.16796875 67.125 7.16796875 C67.125 5.84796875 67.125 4.52796875 67.125 3.16796875 C66.465 3.16796875 65.805 3.16796875 65.125 3.16796875 Z M-2.875 2.16796875 C-2.875 3.15796875 -2.875 4.14796875 -2.875 5.16796875 C-4.195 4.83796875 -5.515 4.50796875 -6.875 4.16796875 C-8.63028019 6.31267115 -8.63028019 6.31267115 -9.875 9.16796875 C-9.17559064 12.43611279 -9.17559064 12.43611279 -7.875 15.16796875 C-6.225 15.16796875 -4.575 15.16796875 -2.875 15.16796875 C-2.545 16.15796875 -2.215 17.14796875 -1.875 18.16796875 C-1.875 16.90984375 -1.875 15.65171875 -1.875 14.35546875 C-1.875 10.29296875 -1.875 6.23046875 -1.875 2.16796875 C-2.205 2.16796875 -2.535 2.16796875 -2.875 2.16796875 Z M4.125 10.16796875 C4.125 12.80796875 4.125 15.44796875 4.125 18.16796875 C4.785 18.16796875 5.445 18.16796875 6.125 18.16796875 C6.125 15.52796875 6.125 12.88796875 6.125 10.16796875 C5.465 10.16796875 4.805 10.16796875 4.125 10.16796875 Z M12.125 10.16796875 C12.125 12.80796875 12.125 15.44796875 12.125 18.16796875 C12.785 18.16796875 13.445 18.16796875 14.125 18.16796875 C14.125 15.52796875 14.125 12.88796875 14.125 10.16796875 C13.465 10.16796875 12.805 10.16796875 12.125 10.16796875 Z M20.125 10.16796875 C20.125 12.14796875 20.125 14.12796875 20.125 16.16796875 C21.445 16.16796875 22.765 16.16796875 24.125 16.16796875 C24.785 16.82796875 25.445 17.48796875 26.125 18.16796875 C26.125 14.86796875 26.125 11.56796875 26.125 8.16796875 C24.04071791 8.16796875 22.02682036 9.38773476 20.125 10.16796875 Z M57.125 10.16796875 C57.125 13.13796875 57.125 16.10796875 57.125 19.16796875 C57.785 18.83796875 58.445 18.50796875 59.125 18.16796875 C59.125 15.52796875 59.125 12.88796875 59.125 10.16796875 C58.465 10.16796875 57.805 10.16796875 57.125 10.16796875 Z M65.125 10.16796875 C65.125 12.80796875 65.125 15.44796875 65.125 18.16796875 C65.785 18.16796875 66.445 18.16796875 67.125 18.16796875 C67.125 15.52796875 67.125 12.88796875 67.125 10.16796875 C66.465 10.16796875 65.805 10.16796875 65.125 10.16796875 Z " fill="#1C63B7" transform="translate(194.875,168.83203125)"/>
<path d="M0 0 C7.24950167 -0.11583023 14.49880402 -0.20468169 21.74904346 -0.25906086 C25.11566146 -0.28516016 28.48164665 -0.32056069 31.84790039 -0.37719727 C35.71778232 -0.43769753 39.58676353 -0.46617712 43.45703125 -0.48828125 C44.66647903 -0.51408768 45.87592682 -0.5398941 47.12202454 -0.56648254 C48.80342781 -0.56704903 48.80342781 -0.56704903 50.51879883 -0.56762695 C51.50697098 -0.57873001 52.49514313 -0.58983307 53.51325989 -0.60127258 C56 0 56 0 57.71488953 2.38191223 C58.13897598 3.2458812 58.56306244 4.10985016 59 5 C60.35951623 6.63505872 61.75594118 8.24013212 63.1875 9.8125 C64.445625 11.194375 65.70375 12.57625 67 14 C67 9.71 67 5.42 67 1 C71.29 1 75.58 1 80 1 C79.67 7.27 79.34 13.54 79 20 C68.33333333 20 57.66666667 20 47 20 C47 14.39 47 8.78 47 3 C42.23118866 1.96546942 42.23118866 1.96546942 38 3 C38.01160156 3.97582031 38.02320313 4.95164063 38.03515625 5.95703125 C38.04417969 7.22933594 38.05320313 8.50164062 38.0625 9.8125 C38.07410156 11.07707031 38.08570313 12.34164062 38.09765625 13.64453125 C38 17 38 17 37 20 C33.04 20 29.08 20 25 20 C24.97421875 18.86820312 24.9484375 17.73640625 24.921875 16.5703125 C24.86560374 15.08850257 24.80825618 13.60673323 24.75 12.125 C24.73582031 11.37863281 24.72164062 10.63226563 24.70703125 9.86328125 C24.64013659 7.42861619 24.64013659 7.42861619 24 4 C22.09371218 2.39662601 22.09371218 2.39662601 20 2 C14.45786483 5.36065643 11.46592917 8.68672477 8.3125 14.375 C6.36328125 17.5390625 6.36328125 17.5390625 4 20 C-0.49759101 21.02476757 -4.47226788 20.74541931 -9 20 C-7.3904105 14.3468076 -5.394204 9.59873681 -2.0859375 4.7265625 C-0.82689732 2.87636244 -0.82689732 2.87636244 0 0 Z " fill="#18529C" transform="translate(178,239)"/>
<path d="M0 0 C0.75410156 0.00322266 1.50820313 0.00644531 2.28515625 0.00976562 C3.06246094 0.01814453 3.83976562 0.02652344 4.640625 0.03515625 C5.43339844 0.03966797 6.22617187 0.04417969 7.04296875 0.04882812 C8.99222008 0.0605706 10.94143238 0.07850479 12.890625 0.09765625 C12.890625 3.06765625 12.890625 6.03765625 12.890625 9.09765625 C11.570625 8.76765625 10.250625 8.43765625 8.890625 8.09765625 C7.2259069 8.00695046 5.55780467 7.96757339 3.890625 7.97265625 C3.045 7.97007812 2.199375 7.9675 1.328125 7.96484375 C-0.99997262 8.09169522 -2.9220198 8.28949625 -5.109375 9.09765625 C-7.27374606 13.53461693 -7.90332574 18.23712858 -7.109375 23.09765625 C-4.82000881 27.51286248 -3.61888352 28.84290199 0.890625 31.09765625 C0.890625 28.12765625 0.890625 25.15765625 0.890625 22.09765625 C2.84963954 22.21148278 4.8078588 22.3390675 6.765625 22.47265625 C7.85617187 22.54226563 8.94671875 22.611875 10.0703125 22.68359375 C12.890625 23.09765625 12.890625 23.09765625 14.890625 25.09765625 C14.395625 25.59265625 14.395625 25.59265625 13.890625 26.09765625 C13.65408977 28.62361884 13.46888808 31.12872832 13.328125 33.66015625 C13.26334961 34.7265332 13.26334961 34.7265332 13.19726562 35.81445312 C13.09090723 37.57527537 12.99023654 39.33643945 12.890625 41.09765625 C2.62761395 40.6936007 -8.15947333 39.13240716 -15.7734375 31.6484375 C-20.0442908 26.69075106 -20.66518522 22.14794154 -20.44921875 15.78125 C-19.81972067 10.81038583 -18.14417271 7.69880855 -14.203125 4.59765625 C-9.53542693 1.53230229 -5.62588216 -0.04262032 0 0 Z " fill="#1C428D" transform="translate(280.109375,238.90234375)"/>
<path d="M0 0 C-1.06940121 3.10126351 -1.91264974 3.94953096 -4.8125 5.625 C-6.7271609 6.45093215 -8.66127271 7.23616883 -10.625 7.9375 C-13.55398443 9.07838234 -13.55398443 9.07838234 -17 13 C-12.05 11.68 -7.1 10.36 -2 9 C-3 13 -3 13 -4.63671875 14.23828125 C-5.65185547 14.77001953 -5.65185547 14.77001953 -6.6875 15.3125 C-13.96630681 19.58342779 -17.55881353 25.45586043 -21 33 C-20.5875 32.505 -20.175 32.01 -19.75 31.5 C-18 30 -18 30 -14 30 C-14.268125 30.639375 -14.53625 31.27875 -14.8125 31.9375 C-15.204375 32.948125 -15.59625 33.95875 -16 35 C-16.26425781 35.59683594 -16.52851563 36.19367188 -16.80078125 36.80859375 C-21.17536681 47.7761566 -19.0842706 60.51834881 -18 72 C-18.66 71.67 -19.32 71.34 -20 71 C-21.73787598 65.38003414 -22.37694292 60.04268063 -22.625 54.1875 C-22.66367188 53.43791016 -22.70234375 52.68832031 -22.7421875 51.91601562 C-22.89106098 48.94120458 -23 45.97882444 -23 43 C-25.20750212 45.95260359 -26.02392248 47.46917954 -25.85546875 51.20703125 C-25.63503906 52.39683594 -25.41460937 53.58664063 -25.1875 54.8125 C-24.25981361 60.4765684 -23.73817388 66.00805688 -23.6875 71.75 C-23.67074219 73.06484375 -23.65398437 74.3796875 -23.63671875 75.734375 C-24.03818706 79.34327295 -24.42072303 79.73355612 -27 82 C-27.93495547 84.58630882 -27.93495547 84.58630882 -28.5625 87.4375 C-29.39387213 90.88980802 -30.28313737 93.88312064 -32 97 C-32.66 97 -33.32 97 -34 97 C-33.7834375 96.27941406 -33.566875 95.55882812 -33.34375 94.81640625 C-30.18737862 82.64391846 -30.71320734 70.48651125 -31 58 C-30.01 57.505 -30.01 57.505 -29 57 C-29.28875 56.22914063 -29.5775 55.45828125 -29.875 54.6640625 C-30.431875 53.15972656 -30.431875 53.15972656 -31 51.625 C-31.556875 50.12839844 -31.556875 50.12839844 -32.125 48.6015625 C-33 46 -33 46 -33 44 C-31.35 44.33 -29.7 44.66 -28 45 C-27.86948242 44.46109131 -27.73896484 43.92218262 -27.60449219 43.36694336 C-26.99735301 40.88761449 -26.37381207 38.41268416 -25.75 35.9375 C-25.54503906 35.08994141 -25.34007812 34.24238281 -25.12890625 33.36914062 C-23.75720137 27.98623815 -21.98027937 23.6933032 -19 19 C-24.03681497 22.07122864 -27.94510767 25.72916666 -32 30 C-32.83583327 27.62392051 -33.1842383 26.45550373 -32.22265625 24.078125 C-31.1484375 22.38541667 -30.07421875 20.69270833 -29 19 C-28.34 19 -27.68 19 -27 19 C-26.690625 18.195625 -26.690625 18.195625 -26.375 17.375 C-24.42003056 13.9982346 -21.81776305 11.69525161 -19 9 C-19.66 8.01 -20.32 7.02 -21 6 C-19.95199219 5.73445312 -18.90398437 5.46890625 -17.82421875 5.1953125 C-16.4452352 4.83884056 -15.06633316 4.48205321 -13.6875 4.125 C-12.99720703 3.95097656 -12.30691406 3.77695313 -11.59570312 3.59765625 C-7.48240712 2.52462251 -4.11513377 0 0 0 Z M-28 63 C-27 65 -27 65 -27 65 Z " fill="#F25C19" transform="translate(174,152)"/>
<path d="M0 0 C1.27617187 0.00483398 1.27617187 0.00483398 2.578125 0.00976562 C3.46757812 0.01814453 4.35703125 0.02652344 5.2734375 0.03515625 C6.170625 0.03966797 7.0678125 0.04417969 7.9921875 0.04882812 C10.21096581 0.06063014 12.42970993 0.07856586 14.6484375 0.09765625 C14.6484375 3.39765625 14.6484375 6.69765625 14.6484375 10.09765625 C11.6784375 9.10765625 8.7084375 8.11765625 5.6484375 7.09765625 C6.09497681 8.39014282 6.09497681 8.39014282 6.55053711 9.70874023 C7.66314526 12.94358161 8.76726192 16.18107679 9.8659668 19.4206543 C10.34084615 20.81534066 10.81896716 22.20892803 11.30053711 23.60131836 C16.39101911 38.3335856 16.39101911 38.3335856 16.6484375 46.09765625 C16.3184375 46.75765625 15.9884375 47.41765625 15.6484375 48.09765625 C10.78294942 47.43831441 6.38936114 46.13194379 1.7734375 44.53515625 C0.74089844 44.18420898 0.74089844 44.18420898 -0.3125 43.82617188 C-1.99359895 43.25413126 -3.67278413 42.67647169 -5.3515625 42.09765625 C-5.6815625 39.45765625 -6.0115625 36.81765625 -6.3515625 34.09765625 C-4.8926199 34.57496463 -3.43442754 35.05456667 -1.9765625 35.53515625 C-1.16445313 35.80199219 -0.35234375 36.06882812 0.484375 36.34375 C2.6484375 37.09765625 2.6484375 37.09765625 4.6484375 38.09765625 C3.24405244 34.28852309 1.83817523 30.47994441 0.4309082 26.671875 C-0.04769354 25.37612853 -0.52588607 24.08023084 -1.00366211 22.78417969 C-1.69016842 20.92212933 -2.37826502 19.06066553 -3.06640625 17.19921875 C-3.68696899 15.51820068 -3.68696899 15.51820068 -4.32006836 13.80322266 C-5.26850453 11.1810671 -5.26850453 11.1810671 -6.3515625 9.09765625 C-6.48571722 6.42529415 -6.39474791 3.77515137 -6.3515625 1.09765625 C-4.00303722 -0.07660639 -2.61382185 -0.01742548 0 0 Z " fill="#1C418C" transform="translate(301.3515625,238.90234375)"/>
<path d="M0 0 C6.6 0 13.2 0 20 0 C20 0.66 20 1.32 20 2 C19.34 2.33 18.68 2.66 18 3 C17.67 15.87 17.34 28.74 17 42 C16.34 42 15.68 42 15 42 C13.56450274 40.40665761 12.20172673 38.74748918 10.875 37.0625 C6.7372115 31.88523465 2.4377121 26.92182615 -2 22 C-2.33 26.95 -2.66 31.9 -3 37 C-1.68 37.66 -0.36 38.32 1 39 C-2.28945282 39.69839668 -5.58183274 40.3818522 -8.875 41.0625 C-9.81214844 41.26166016 -10.74929687 41.46082031 -11.71484375 41.66601562 C-13.05869141 41.94155273 -13.05869141 41.94155273 -14.4296875 42.22265625 C-15.25710449 42.39547119 -16.08452148 42.56828613 -16.93701172 42.74633789 C-19 43 -19 43 -21 42 C-20.5155542 41.66895264 -20.0311084 41.33790527 -19.53198242 40.99682617 C-17.19843777 37.95522271 -17.51968878 34.73763926 -17.48828125 31.05078125 C-17.46135445 29.89185616 -17.46135445 29.89185616 -17.43388367 28.70951843 C-17.37973896 26.243901 -17.34587269 23.77847757 -17.3125 21.3125 C-17.27933048 19.63994694 -17.24484115 17.96741949 -17.20898438 16.29492188 C-17.12401051 12.1967545 -17.0572198 8.09864506 -17 4 C-16.67 4 -16.34 4 -16 4 C-16 9.28 -16 14.56 -16 20 C-12.04 20 -8.08 20 -4 20 C-3.67 19.34 -3.34 18.68 -3 18 C-2.67 18.33 -2.34 18.66 -2 19 C-0.65984779 19.15582303 0.68758903 19.25044142 2.03515625 19.31640625 C2.76355713 19.35451416 3.49195801 19.39262207 4.24243164 19.43188477 C5.63836548 19.49653931 5.63836548 19.49653931 7.0625 19.5625 C10.011875 19.706875 12.96125 19.85125 16 20 C16 14.06 16 8.12 16 2 C12.37 2 8.74 2 5 2 C5 6.29 5 10.58 5 15 C0.46712884 11.26704728 -3.37382288 7.61513452 -7 3 C-6.67 2.34 -6.34 1.68 -6 1 C-1.545 5.95 -1.545 5.95 3 11 C3.0928125 9.1128125 3.0928125 9.1128125 3.1875 7.1875 C3.22230469 6.47980469 3.25710937 5.77210938 3.29296875 5.04296875 C3.14285448 2.54328284 3.14285448 2.54328284 0 0 Z " fill="#1C428D" transform="translate(241,239)"/>
<path d="M0 0 C0.66 0 1.32 0 2 0 C2.19335938 0.55429688 2.38671875 1.10859375 2.5859375 1.6796875 C2.97652344 2.76636719 2.97652344 2.76636719 3.375 3.875 C3.63023437 4.59429687 3.88546875 5.31359375 4.1484375 6.0546875 C4.93877783 8.18157994 4.93877783 8.18157994 7 10 C9.78302919 10.20872719 11.48718205 10.25640898 14 9 C14.309375 10.134375 14.61875 11.26875 14.9375 12.4375 C15.62924531 15.78775099 15.62924531 15.78775099 17 17 C20.63194641 17.19149081 20.63194641 17.19149081 24 16 C22.66511872 19.59391114 21.03977277 22.75490696 19 26 C16.42090014 24.76203207 13.96031405 23.39252444 11.5 21.9375 C6.52220714 19.10657763 1.76217253 18.09535858 -4 19 C-7.48999126 20.40438087 -10.72314448 22.16094843 -14 24 C-15.32969548 24.67389329 -16.66179199 25.34317313 -18 26 C-19.03048037 24.3811004 -20.04914678 22.75467511 -21.0625 21.125 C-21.63097656 20.22007812 -22.19945312 19.31515625 -22.78515625 18.3828125 C-23.18605469 17.59648437 -23.58695313 16.81015625 -24 16 C-23.67 15.34 -23.34 14.68 -23 14 C-21.88625 14.20625 -20.7725 14.4125 -19.625 14.625 C-18.42875 14.74875 -17.2325 14.8725 -16 15 C-13.64046906 12.64046906 -13.50858587 11.22104383 -13 8 C-12.34 8.33 -11.68 8.66 -11 9 C-8.08461971 9.50042146 -8.08461971 9.50042146 -5 9 C-2.19480124 6.27061743 -0.5770716 3.89523329 0 0 Z M-1 11 C-0.34 11.66 0.32 12.32 1 13 C1.33 12.34 1.66 11.68 2 11 C1.01 11 0.02 11 -1 11 Z " fill="#1C63B7" transform="translate(228,141)"/>
<path d="M0 0 C15.6509434 -0.44716981 15.6509434 -0.44716981 21 3 C23.68265285 6.01798446 24.00987153 7.44719426 23.9375 11.5 C22.90590992 15.35126964 21.84629644 17.23276735 19 20 C16.32608488 21.47065332 14.84291682 22.12041669 11.8125 21.6875 C10 21 10 21 8 20 C5.69 20 3.38 20 1 20 C0.67 13.4 0.34 6.8 0 0 Z M10 7 C10 10.3 10 13.6 10 17 C13.9714169 16.37158027 13.9714169 16.37158027 16 14 C16.33333333 11.5 16.33333333 11.5 16 9 C15.34 8.34 14.68 7.68 14 7 C12.68 7 11.36 7 10 7 Z " fill="#1658A1" transform="translate(219,192)"/>
<path d="M0 0 C-8.52171024 3.98066283 -8.52171024 3.98066283 -12.9375 4.875 C-13.948125 5.24625 -14.95875 5.6175 -16 6 C-17.22861615 9.01343152 -17.22861615 9.01343152 -18 12 C-16.66195312 12.18175781 -16.66195312 12.18175781 -15.296875 12.3671875 C-14.12640625 12.53476563 -12.9559375 12.70234375 -11.75 12.875 C-10.00976562 13.11863281 -10.00976562 13.11863281 -8.234375 13.3671875 C-5.41806687 13.91820431 -3.44782443 14.55796482 -1 16 C-1 16.33 -1 16.66 -1 17 C-1.99580078 17.05607422 -1.99580078 17.05607422 -3.01171875 17.11328125 C-8.27540924 17.50517645 -11.48791791 18.16383411 -16 21 C-19.83416911 20.70506391 -23.37912974 19.26309428 -27 18 C-27 17.34 -27 16.68 -27 16 C-25.35 16 -23.7 16 -22 16 C-22.66 14.68 -23.32 13.36 -24 12 C-28.89644168 15.12236861 -33.50153384 18.3709494 -37.9375 22.125 C-43.70693095 26.83235162 -49.80034041 29.30692937 -57 31 C-57 29.68 -57 28.36 -57 27 C-56.30132812 26.81824219 -55.60265625 26.63648438 -54.8828125 26.44921875 C-53.97273438 26.19785156 -53.06265625 25.94648438 -52.125 25.6875 C-50.76761719 25.32205078 -50.76761719 25.32205078 -49.3828125 24.94921875 C-46.67886681 24.13330148 -46.67886681 24.13330148 -45 21 C-45.59167969 21.2165625 -46.18335937 21.433125 -46.79296875 21.65625 C-54.64147627 24.42179262 -54.64147627 24.42179262 -59 24 C-59 23.34 -59 22.68 -59 22 C-54.1677248 19.48624068 -49.82400094 17.85175546 -44.390625 17.23046875 C-37.62566946 16.17247202 -32.41456384 13.52511872 -26.5 10.1875 C-24.49659353 9.10083809 -22.4914005 8.01746307 -20.484375 6.9375 C-19.53884766 6.42574219 -18.59332031 5.91398438 -17.61914062 5.38671875 C-4.56871219 -1.52290406 -4.56871219 -1.52290406 0 0 Z " fill="#F25C19" transform="translate(143,136)"/>
<path d="M0 0 C7.26 0 14.52 0 22 0 C21.67 0.66 21.34 1.32 21 2 C20.34 2 19.68 2 19 2 C19.01160156 2.61488281 19.02320313 3.22976562 19.03515625 3.86328125 C19.04417969 4.67152344 19.05320313 5.47976562 19.0625 6.3125 C19.07410156 7.11300781 19.08570313 7.91351563 19.09765625 8.73828125 C19 11 19 11 18 14 C13.38 14 8.76 14 4 14 C3.54427083 11.23307292 3.08854167 8.46614583 2.6328125 5.69921875 C2.11914546 2.79940173 2.11914546 2.79940173 0 0 Z " fill="#0599DD" transform="translate(148,240)"/>
<path d="M0 0 C6.4228552 -0.07630533 12.84559269 -0.12870679 19.26879883 -0.16479492 C21.4521115 -0.17984555 23.63539411 -0.20029074 25.81860352 -0.22631836 C28.96378006 -0.26286518 32.10855549 -0.27976398 35.25390625 -0.29296875 C36.2239711 -0.30845261 37.19403595 -0.32393646 38.1934967 -0.33988953 C43.91770851 -0.34129873 47.95235071 0.23028995 53 3 C55.91698575 6.29337101 56.65147581 9.52603866 56.484375 13.9375 C55.5613727 17.86770336 53.00178152 20.43109951 50 23 C47.20904295 24.5948326 45.95590792 25.19118158 42.8125 24.5625 C42.214375 24.376875 41.61625 24.19125 41 24 C40.01 24.495 40.01 24.495 39 25 C39 23.68 39 22.36 39 21 C39.86625 21.226875 40.7325 21.45375 41.625 21.6875 C45.79925159 22.07400478 47.53673976 21.30884016 51 19 C53.68625922 15.88047316 54.0270783 14.5235139 53.8125 10.375 C53.18028437 6.89716613 53.18028437 6.89716613 51 4 C46.57084376 2.09065699 42.41190983 1.64595716 37.625 1.375 C36.37976563 1.30023438 35.13453125 1.22546875 33.8515625 1.1484375 C32.44003906 1.07496094 32.44003906 1.07496094 31 1 C31.495 1.99 31.495 1.99 32 3 C32.08471364 4.81341842 32.10721083 6.62994161 32.09765625 8.4453125 C32.09443359 9.52167969 32.09121094 10.59804687 32.08789062 11.70703125 C32.07532227 13.39892578 32.07532227 13.39892578 32.0625 15.125 C32.05798828 16.26066406 32.05347656 17.39632812 32.04882812 18.56640625 C32.03701615 21.37765638 32.02054507 24.1888023 32 27 C31.67 27 31.34 27 31 27 C30.67 19.41 30.34 11.82 30 4 C29.01 4 28.02 4 27 4 C26.67 3.01 26.34 2.02 26 1 C23.03 1 20.06 1 17 1 C16.67 1.66 16.34 2.32 16 3 C15.34 3 14.68 3 14 3 C13.67 8.61 13.34 14.22 13 20 C12.67 20 12.34 20 12 20 C12 14.06 12 8.12 12 2 C9.03 1.67 6.06 1.34 3 1 C3.33 1.66 3.66 2.32 4 3 C4.08449628 4.7404417 4.10723024 6.48409722 4.09765625 8.2265625 C4.09282227 9.7734375 4.09282227 9.7734375 4.08789062 11.3515625 C4.07951172 12.43179688 4.07113281 13.51203125 4.0625 14.625 C4.05798828 15.71296875 4.05347656 16.8009375 4.04882812 17.921875 C4.03701776 20.61463789 4.02054778 23.30729188 4 26 C3.67 26 3.34 26 3 26 C2.67 18.74 2.34 11.48 2 4 C1.67 5.65 1.34 7.3 1 9 C-0.32 8.67 -1.64 8.34 -3 8 C-2.67 7.34 -2.34 6.68 -2 6 C-1.34 6.33 -0.68 6.66 0 7 C0 4.69 0 2.38 0 0 Z " fill="#1C428D" transform="translate(188,191)"/>
<path d="M0 0 C2.7302389 -0.1083667 5.45614543 -0.18746694 8.1875 -0.25 C8.95642578 -0.28351563 9.72535156 -0.31703125 10.51757812 -0.3515625 C14.54253008 -0.42066039 16.49808724 -0.31755003 19.98828125 1.890625 C22.52761188 4.55322411 22.97382956 5.35882421 23.125 9.0625 C23 12 23 12 22 13 C20.33382885 13.04063832 18.66611905 13.042721 17 13 C16.7525 11.6078125 16.7525 11.6078125 16.5 10.1875 C14.8157353 6.60843752 14.3893481 6.41028278 10.875 5.125 C9.59625 4.75375 8.3175 4.3825 7 4 C7 6.97 7 9.94 7 13 C5.02 13 3.04 13 1 13 C-0.32229189 10.35541621 -0.09677194 8.32238699 -0.0625 5.375 C-0.05347656 4.37210938 -0.04445313 3.36921875 -0.03515625 2.3359375 C-0.02355469 1.56507813 -0.01195312 0.79421875 0 0 Z " fill="#0791D5" transform="translate(268,193)"/>
<path d="M0 0 C5.28 0 10.56 0 16 0 C11.703125 6.54296875 11.703125 6.54296875 10 9 C9.4121875 9.9178125 8.824375 10.835625 8.21875 11.78125 C6 14 6 14 2.765625 14.48828125 C1.02539062 14.40126953 1.02539062 14.40126953 -0.75 14.3125 C-1.92046875 14.26738281 -3.0909375 14.22226563 -4.296875 14.17578125 C-5.18890625 14.11777344 -6.0809375 14.05976563 -7 14 C-5.45411089 9.9099795 -3.44419981 6.62687714 -1 3 C-0.67 2.01 -0.34 1.02 0 0 Z " fill="#0692D7" transform="translate(179,240)"/>
<path d="M0 0 C5.28 0 10.56 0 16 0 C15.67 0.66 15.34 1.32 15 2 C14.79670732 3.82963411 14.63527804 5.66408368 14.5 7.5 C14.11111111 12.77777778 14.11111111 12.77777778 13 15 C9.37 15 5.74 15 2 15 C1.90912109 13.62714844 1.90912109 13.62714844 1.81640625 12.2265625 C1.69072266 10.44378906 1.69072266 10.44378906 1.5625 8.625 C1.48128906 7.44164062 1.40007812 6.25828125 1.31640625 5.0390625 C1.18915064 2.08481099 1.18915064 2.08481099 0 0 Z " fill="#0597DB" transform="translate(202,240)"/>
<path d="M0 0 C0.80179687 0.00451172 1.60359375 0.00902344 2.4296875 0.01367188 C4.41149006 0.02546832 6.39325433 0.04340395 8.375 0.0625 C8.375 2.0425 8.375 4.0225 8.375 6.0625 C5.405 6.0625 2.435 6.0625 -0.625 6.0625 C-0.295 8.7025 0.035 11.3425 0.375 14.0625 C-1.935 14.0625 -4.245 14.0625 -6.625 14.0625 C-9.57547835 9.45237758 -11.1747272 6.69720383 -10.625 1.0625 C-7.31505287 -0.59247356 -3.63377 -0.03834335 0 0 Z " fill="#049ADE" transform="translate(306.625,239.9375)"/>
<path d="M0 0 C0 0.33 0 0.66 0 1 C-1.82724609 0.83951172 -1.82724609 0.83951172 -3.69140625 0.67578125 C-5.31503581 0.5537744 -6.93873803 0.43273179 -8.5625 0.3125 C-9.36236328 0.23966797 -10.16222656 0.16683594 -10.98632812 0.09179688 C-18.37241947 -0.42070742 -23.27200759 1.33927188 -29.1875 5.9375 C-29.85910156 6.45441406 -30.53070313 6.97132813 -31.22265625 7.50390625 C-33.14816771 9.05349167 -33.14816771 9.05349167 -35.125 11.375 C-37 13 -37 13 -40.25 13.25 C-41.1575 13.1675 -42.065 13.085 -43 13 C-43 12.01 -43 11.02 -43 10 C-31.05526355 -1.7043997 -15.9920678 -7.67619254 0 0 Z " fill="#F25C19" transform="translate(199,136)"/>
<path d="M0 0 C4.29 0 8.58 0 13 0 C12.67 4.62 12.34 9.24 12 14 C8.37 14 4.74 14 1 14 C0.67 9.38 0.34 4.76 0 0 Z " fill="#0989CE" transform="translate(245,240)"/>
<path d="M0 0 C0 0.33 0 0.66 0 1 C1.85238281 1.22042969 1.85238281 1.22042969 3.7421875 1.4453125 C12.7644314 2.60704405 21.41721442 4.11347785 30.0625 7 C30.81708496 7.2489502 31.57166992 7.49790039 32.34912109 7.75439453 C35.956497 9.02099904 38.43537067 10.18140336 41 13 C36.54980527 12.02347848 32.10495573 11.03311044 27.67578125 9.96484375 C19.27406617 7.97158699 11.38656612 6.54335862 2.72265625 6.37109375 C-0.35454997 5.9516754 -1.04520182 5.29289221 -3 3 C-4.99427359 3.18553891 -4.99427359 3.18553891 -7 4 C-8.33333333 4.33333333 -9.66666667 4.66666667 -11 5 C-11.66 4.01 -12.32 3.02 -13 2 C-11.39935157 1.46845258 -9.79431126 0.95011647 -8.1875 0.4375 C-7.29417969 0.14746094 -6.40085937 -0.14257812 -5.48046875 -0.44140625 C-3 -1 -3 -1 0 0 Z " fill="#F25C18" transform="translate(104,176)"/>
<path d="M0 0 C5.61 0 11.22 0 17 0 C17 1.98 17 3.96 17 6 C14.03 5.67 11.06 5.34 8 5 C8 7.97 8 10.94 8 14 C6.824375 14.185625 6.824375 14.185625 5.625 14.375 C2.85942178 14.79117993 2.85942178 14.79117993 1 17 C0.67 11.39 0.34 5.78 0 0 Z " fill="#0790D4" transform="translate(246,192)"/>
<path d="M0 0 C15.18445897 -0.56862745 15.18445897 -0.56862745 21 3 C23 6 23 6 23 9 C18.38708167 9.31451716 16.54883846 8.8619665 13 6 C10.35065178 5.28566879 10.35065178 5.28566879 8 5 C8 6.32 8 7.64 8 9 C5.69 9.33 3.38 9.66 1 10 C0.67 6.7 0.34 3.4 0 0 Z " fill="#059ADE" transform="translate(219,192)"/>
<path d="M0 0 C0 0.33 0 0.66 0 1 C-0.67353516 1.06993164 -1.34707031 1.13986328 -2.04101562 1.21191406 C-24.25965189 3.49704775 -24.25965189 3.49704775 -45.625 9.75 C-49.01379085 11.00510772 -51.42200914 11.26834931 -55 11 C-55 10.34 -55 9.68 -55 9 C-48.31769833 5.41362709 -41.31914706 3.74974523 -34 2 C-33.05253906 1.76925781 -32.10507813 1.53851563 -31.12890625 1.30078125 C-20.92029131 -0.78835475 -10.36697926 -0.17988619 0 0 Z " fill="#F25C19" transform="translate(152,159)"/>
<path d="M0 0 C1.27617187 0.00483398 1.27617187 0.00483398 2.578125 0.00976562 C3.46757812 0.01814453 4.35703125 0.02652344 5.2734375 0.03515625 C6.170625 0.03966797 7.0678125 0.04417969 7.9921875 0.04882812 C10.21096581 0.06063014 12.42970993 0.07856586 14.6484375 0.09765625 C14.6484375 3.39765625 14.6484375 6.69765625 14.6484375 10.09765625 C11.6784375 9.10765625 8.7084375 8.11765625 5.6484375 7.09765625 C5.94878906 7.8453125 6.24914062 8.59296875 6.55859375 9.36328125 C7.12900391 10.84054688 7.12900391 10.84054688 7.7109375 12.34765625 C8.09378906 13.3221875 8.47664063 14.29671875 8.87109375 15.30078125 C9.65957537 18.1377302 9.67281562 19.39175177 8.6484375 22.09765625 C6.0084375 22.09765625 3.3684375 22.09765625 0.6484375 22.09765625 C0.3803125 21.33453125 0.1121875 20.57140625 -0.1640625 19.78515625 C-1.14818995 17.12053174 -1.14818995 17.12053174 -2.8515625 15.59765625 C-5.99160806 12.45761069 -6.4690046 9.06292693 -6.4765625 4.78515625 C-6.4353125 3.56828125 -6.3940625 2.35140625 -6.3515625 1.09765625 C-4.00303722 -0.07660639 -2.61382185 -0.01742548 0 0 Z M-5.3515625 2.09765625 C-5.9012897 7.73236008 -4.30204085 10.48753383 -1.3515625 15.09765625 C0.9584375 15.09765625 3.2684375 15.09765625 5.6484375 15.09765625 C5.3184375 12.45765625 4.9884375 9.81765625 4.6484375 7.09765625 C7.6184375 7.09765625 10.5884375 7.09765625 13.6484375 7.09765625 C13.6484375 5.11765625 13.6484375 3.13765625 13.6484375 1.09765625 C10.85670695 1.07075521 8.06523402 1.05086572 5.2734375 1.03515625 C4.479375 1.02677734 3.6853125 1.01839844 2.8671875 1.00976562 C-1.37548472 0.86725474 -1.37548472 0.86725474 -5.3515625 2.09765625 Z " fill="#1C448E" transform="translate(301.3515625,238.90234375)"/>
<path d="M0 0 C0 1.98 0 3.96 0 6 C-1.44632812 5.94779297 -1.44632812 5.94779297 -2.921875 5.89453125 C-4.18515625 5.86746094 -5.4484375 5.84039062 -6.75 5.8125 C-8.00296875 5.77769531 -9.2559375 5.74289063 -10.546875 5.70703125 C-14.2709279 6.02298596 -15.22330251 6.70204345 -18 9 C-20.73713695 9.37460816 -23.22025584 9.13898721 -26 9 C-23.59840239 4.49700448 -21.64268667 2.10603502 -16.5703125 0.45703125 C-11.10116826 -0.51544577 -5.53004663 -0.20970682 0 0 Z " fill="#049CE0" transform="translate(291,240)"/>
<path d="M0 0 C5.94 0 11.88 0 18 0 C18 1.65 18 3.3 18 5 C14.37 5 10.74 5 7 5 C7.66 7.64 8.32 10.28 9 13 C7.02 13 5.04 13 3 13 C0.06316023 7.98289872 0 6.29675193 0 0 Z " fill="#0696DA" transform="translate(170,193)"/>
<path d="M0 0 C3.73487777 0.4979837 5.81237635 0.87491756 9 3 C10.41937521 5.44237459 11.70363071 7.84182896 12.9375 10.375 C13.28941406 11.0865625 13.64132813 11.798125 14.00390625 12.53125 C16.89947169 18.51541857 19.15995405 24.60826142 21 31 C17.36857952 29.78952651 17.19911358 29.05803684 15.4765625 25.7734375 C15.0125 24.90589844 14.5484375 24.03835937 14.0703125 23.14453125 C13.59335938 22.23058594 13.11640625 21.31664062 12.625 20.375 C7.84435049 9.81780576 7.84435049 9.81780576 0 2 C0 1.34 0 0.68 0 0 Z " fill="#F36916" transform="translate(108,185)"/>
<path d="M0 0 C3.48431753 -0.56786664 6.53645276 -0.7640917 10 0 C12.95970014 2.62159731 15.04466473 5.57492597 17 9 C17 9.33 17 9.66 17 10 C12.05 10 7.1 10 2 10 C1.77213542 7.98177083 1.54427083 5.96354167 1.31640625 3.9453125 C1.08707039 1.92595684 1.08707039 1.92595684 0 0 Z " fill="#0599DC" transform="translate(224,240)"/>
<path d="M0 0 C0.33 1.32 0.66 2.64 1 4 C5.95 4 10.9 4 16 4 C15.67 6.31 15.34 8.62 15 11 C10.38 11 5.76 11 1 11 C-0.28317892 7.15046324 -0.06643637 4.05261865 0 0 Z " fill="#0F73BA" transform="translate(151,243)"/>
<path d="M0 0 C3.3 0 6.6 0 10 0 C9.67 0.66 9.34 1.32 9 2 C8.77141886 4.0374763 8.58975722 6.08040303 8.4375 8.125 C8.35371094 9.22070312 8.26992187 10.31640625 8.18359375 11.4453125 C8.12300781 12.28835937 8.06242188 13.13140625 8 14 C5.69 14.66 3.38 15.32 1 16 C0.67 10.72 0.34 5.44 0 0 Z " fill="#098BD0" transform="translate(191,192)"/>
<path d="M0 0 C2.97 0 5.94 0 9 0 C8.67 4.62 8.34 9.24 8 14 C5.69 14.66 3.38 15.32 1 16 C0.67 10.72 0.34 5.44 0 0 Z " fill="#098BD0" transform="translate(205,192)"/>
<path d="M0 0 C0 0.99 0 1.98 0 3 C2.31 3.33 4.62 3.66 7 4 C6.69201674 5.48011371 6.378482 6.95907325 6.0625 8.4375 C5.88847656 9.26121094 5.71445312 10.08492187 5.53515625 10.93359375 C5 13 5 13 4 14 C2.48071962 14.07179964 0.95832518 14.08392007 -0.5625 14.0625 C-1.38878906 14.05347656 -2.21507812 14.04445313 -3.06640625 14.03515625 C-3.70449219 14.02355469 -4.34257812 14.01195312 -5 14 C-5.74737188 8.02102497 -3.3231898 4.67620279 0 0 Z " fill="#1658A1" transform="translate(266,245)"/>
<path d="M0 0 C0.33 0.99 0.66 1.98 1 3 C5.62 3 10.24 3 15 3 C15.33 2.01 15.66 1.02 16 0 C16 2.64 16 5.28 16 8 C10.72 8 5.44 8 0 8 C0 5.36 0 2.72 0 0 Z " fill="#155DA5" transform="translate(151,251)"/>
<path d="M0 0 C0.33 0.66 0.66 1.32 1 2 C4.96 2 8.92 2 13 2 C11.32642487 6.22797927 11.32642487 6.22797927 9 8 C4.62848019 8.55116813 0.38442064 8.34213687 -4 8 C-2.87548273 5.0280615 -1.77706209 2.66559313 0 0 Z " fill="#0F73BA" transform="translate(176,246)"/>
<path d="M0 0 C0.125 5.75 0.125 5.75 -1 8 C-4.63 8 -8.26 8 -12 8 C-12 5.69 -12 3.38 -12 1 C-10.18755015 0.83278881 -8.37503867 0.66624559 -6.5625 0.5 C-5.55316406 0.4071875 -4.54382813 0.314375 -3.50390625 0.21875 C-1 0 -1 0 0 0 Z " fill="#106FB6" transform="translate(216,247)"/>
<path d="M0 0 C0.33 0 0.66 0 1 0 C1 1.65 1 3.3 1 5 C3.31 5 5.62 5 8 5 C8 4.34 8 3.68 8 3 C9.98 3 11.96 3 14 3 C12.02 3.99 12.02 3.99 10 5 C10.33 7.64 10.66 10.28 11 13 C8.69 13 6.38 13 4 13 C1.04952165 8.38987758 -0.5497272 5.63470383 0 0 Z " fill="#0B83C9" transform="translate(296,241)"/>
<path d="M0 0 C1.4540625 0.0309375 1.4540625 0.0309375 2.9375 0.0625 C2.9375 3.3625 2.9375 6.6625 2.9375 10.0625 C0.6275 10.3925 -1.6825 10.7225 -4.0625 11.0625 C-4.08938151 9.41675434 -4.10884123 7.77088587 -4.125 6.125 C-4.13660156 5.20847656 -4.14820313 4.29195312 -4.16015625 3.34765625 C-4.00919455 -0.18484756 -3.60673121 0.07360676 0 0 Z " fill="#0E76BD" transform="translate(224.0625,200.9375)"/>
<path d="M0 0 C5.28 0 10.56 0 16 0 C16.66 1.32 17.32 2.64 18 4 C12.06 4 6.12 4 0 4 C0 2.68 0 1.36 0 0 Z " fill="#0F72BA" transform="translate(226,250)"/>
<path d="M0 0 C6.93 0.495 6.93 0.495 14 1 C12.515 3.475 12.515 3.475 11 6 C7.86328125 6.48828125 7.86328125 6.48828125 4.3125 6.3125 C3.13300781 6.26738281 1.95351562 6.22226562 0.73828125 6.17578125 C-0.16535156 6.11777344 -1.06898438 6.05976563 -2 6 C-1.34 4.02 -0.68 2.04 0 0 Z " fill="#155DA5" transform="translate(171,253)"/>
<path d="M0 0 C-0.79175705 8.23427332 -0.79175705 8.23427332 -4 11 C-7.1875 11.25 -7.1875 11.25 -10 11 C-9.690625 10.46375 -9.38125 9.9275 -9.0625 9.375 C-7.82172561 6.6015043 -7.4090325 3.99957163 -7 1 C-1.125 0 -1.125 0 0 0 Z " fill="#0F73BA" transform="translate(243,200)"/>
<path d="M0 0 C0.33 0 0.66 0 1 0 C1 3.96 1 7.92 1 12 C4.63 12 8.26 12 12 12 C12.33 11.34 12.66 10.68 13 10 C12.67 11.98 12.34 13.96 12 16 C8.04 16 4.08 16 0 16 C0 10.72 0 5.44 0 0 Z " fill="#1659A2" transform="translate(203,243)"/>
<path d="M0 0 C1.3125 2.125 1.3125 2.125 1.3125 3.125 C-3.6375 3.125 -8.5875 3.125 -13.6875 3.125 C-13.6875 1.805 -13.6875 0.485 -13.6875 -0.875 C-3.55732581 -2.48185522 -3.55732581 -2.48185522 0 0 Z " fill="#0A86CC" transform="translate(239.6875,246.875)"/>
<path d="M0 0 C0.33 1.32 0.66 2.64 1 4 C5.95 4 10.9 4 16 4 C15.67 4.99 15.34 5.98 15 7 C10.05 7.33 5.1 7.66 0 8 C0 5.36 0 2.72 0 0 Z " fill="#0B83C9" transform="translate(151,243)"/>
<path d="M0 0 C3.3 0 6.6 0 10 0 C10 1.65 10 3.3 10 5 C6.7 5 3.4 5 0 5 C0 3.35 0 1.7 0 0 Z " fill="#049EE1" transform="translate(246,241)"/>
<path d="M0 0 C0.33 0 0.66 0 1 0 C1 1.98 1 3.96 1 6 C-2.63 6 -6.26 6 -10 6 C-10 4.68 -10 3.36 -10 2 C-6.7 2 -3.4 2 0 2 C0 1.34 0 0.68 0 0 Z " fill="#0F73BA" transform="translate(256,248)"/>
<path d="M0 0 C5.28 0 10.56 0 16 0 C12 4 12 4 8.984375 4.171875 C7.38335937 3.96304688 7.38335937 3.96304688 5.75 3.75 C4.67234375 3.62109375 3.5946875 3.4921875 2.484375 3.359375 C1.25460938 3.18148437 1.25460938 3.18148437 0 3 C0 2.01 0 1.02 0 0 Z " fill="#039EE1" transform="translate(179,240)"/>
<path d="M0 0 C3.2578125 -0.29296875 3.2578125 -0.29296875 7.125 -0.1875 C9.04699219 -0.14689453 9.04699219 -0.14689453 11.0078125 -0.10546875 C11.99523437 -0.07066406 12.98265625 -0.03585938 14 0 C14 0.99 14 1.98 14 3 C8.72 3 3.44 3 -2 3 C-1.34 2.01 -0.68 1.02 0 0 Z " fill="#03A1E4" transform="translate(277,240)"/>
<path d="M0 0 C2 3 2 3 2 7 C-1.3125 7.25 -1.3125 7.25 -5 7 C-6.9375 5 -6.9375 5 -8 3 C-7.67 2.34 -7.34 1.68 -7 1 C-4.69 1.33 -2.38 1.66 0 2 C0 1.34 0 0.68 0 0 Z " fill="#155CA5" transform="translate(307,252)"/>
<path d="M0 0 C0 0.99 0 1.98 0 3 C2.31 3.33 4.62 3.66 7 4 C6.34 5.32 5.68 6.64 5 8 C2.03 8 -0.94 8 -4 8 C-2.25 2.25 -2.25 2.25 0 0 Z " fill="#0D7BC1" transform="translate(266,245)"/>
<path d="M0 0 C1.98 0 3.96 0 6 0 C8 2 8 2 8.25 5.4375 C8 9 8 9 6 12 C4.02 12 2.04 12 0 12 C0 8.04 0 4.08 0 0 Z M1 1 C1 4.3 1 7.6 1 11 C4.9714169 10.37158027 4.9714169 10.37158027 7 8 C7.33333333 5.5 7.33333333 5.5 7 3 C6.34 2.34 5.68 1.68 5 1 C3.68 1 2.36 1 1 1 Z " fill="#1C448E" transform="translate(228,198)"/>
<path d="M0 0 C-0.99 1.485 -0.99 1.485 -2 3 C-3.32 3 -4.64 3 -6 3 C-6 3.66 -6 4.32 -6 5 C-7.65 5 -9.3 5 -11 5 C-11 4.01 -11 3.02 -11 2 C-3.57142857 -1.57142857 -3.57142857 -1.57142857 0 0 Z " fill="#F25C19" transform="translate(96,170)"/>
<path d="M0 0 C3.63 0 7.26 0 11 0 C11 0.99 11 1.98 11 3 C7.37 3 3.74 3 0 3 C0 2.01 0 1.02 0 0 Z " fill="#0C80C6" transform="translate(204,248)"/>
<path d="M0 0 C2.97 0 5.94 0 9 0 C9 1.32 9 2.64 9 4 C6.69 4 4.38 4 2 4 C1.34 2.68 0.68 1.36 0 0 Z " fill="#0F73BA" transform="translate(298,250)"/>
<path d="M0 0 C0.33 0.66 0.66 1.32 1 2 C4.96 2 8.92 2 13 2 C10 5 10 5 7.30078125 5.07421875 C6.31464844 4.94660156 5.32851562 4.81898438 4.3125 4.6875 C2.82169922 4.50767578 2.82169922 4.50767578 1.30078125 4.32421875 C0.54152344 4.21722656 -0.21773437 4.11023438 -1 4 C-0.67 2.68 -0.34 1.36 0 0 Z " fill="#0B81C7" transform="translate(176,246)"/>
<path d="M0 0 C3.3 0 6.6 0 10 0 C9.67 0.99 9.34 1.98 9 3 C6.03 3 3.06 3 0 3 C0 2.01 0 1.02 0 0 Z " fill="#1267AF" transform="translate(261,253)"/>
<path d="M0 0 C2.1640625 -0.29296875 2.1640625 -0.29296875 4.625 -0.1875 C5.44226563 -0.16042969 6.25953125 -0.13335937 7.1015625 -0.10546875 C8.04128906 -0.05326172 8.04128906 -0.05326172 9 0 C7.3655205 1.96446905 6.53570606 2.92317791 3.95703125 3.29296875 C1.97135417 3.1953125 -0.01432292 3.09765625 -2 3 C-1.34 2.01 -0.68 1.02 0 0 Z " fill="#088CD1" transform="translate(267,246)"/>
<path d="M0 0 C0.99 0.66 1.98 1.32 3 2 C2.34 3.32 1.68 4.64 1 6 C-0.32 5.34 -1.64 4.68 -3 4 C-2.67 3.01 -2.34 2.02 -2 1 C-1.34 0.67 -0.68 0.34 0 0 Z " fill="#1C63B7" transform="translate(229,134)"/>
<path d="M0 0 C1.32 0 2.64 0 4 0 C4 0.99 4 1.98 4 3 C2.02 3.33 0.04 3.66 -2 4 C-1.34 2.68 -0.68 1.36 0 0 Z " fill="#F25C19" transform="translate(80,166)"/>
<path d="M0 0 C2.475 0.495 2.475 0.495 5 1 C5 1.99 5 2.98 5 4 C3.68 4 2.36 4 1 4 C0.67 2.68 0.34 1.36 0 0 Z " fill="#1C63B7" transform="translate(251,153)"/>
<path d="M0 0 C1.32 0 2.64 0 4 0 C3.67 1.32 3.34 2.64 3 4 C2.01 4 1.02 4 0 4 C0 2.68 0 1.36 0 0 Z " fill="#1C63B7" transform="translate(242,146)"/>
<path d="M0 0 C1.32 0 2.64 0 4 0 C3.67 1.32 3.34 2.64 3 4 C2.01 3.67 1.02 3.34 0 3 C0 2.01 0 1.02 0 0 Z " fill="#1C63B7" transform="translate(201,151)"/>
<path d="M0 0 C1.32 0.33 2.64 0.66 4 1 C3.67 1.99 3.34 2.98 3 4 C2.01 4 1.02 4 0 4 C0 2.68 0 1.36 0 0 Z " fill="#1C63B7" transform="translate(212,144)"/>
<path d="M0 0 C1.32 0 2.64 0 4 0 C4 0.66 4 1.32 4 2 C2.68 2 1.36 2 0 2 C0 1.34 0 0.68 0 0 Z " fill="#F25E18" transform="translate(80,175)"/>
<path d="M0 0 C0.99 0 1.98 0 3 0 C3 0.66 3 1.32 3 2 C2.01 2 1.02 2 0 2 C0 1.34 0 0.68 0 0 Z " fill="#F25C19" transform="translate(74,171)"/>
</svg>
