<svg xmlns="http://www.w3.org/2000/svg" xmlns:xlink="http://www.w3.org/1999/xlink" viewBox="0 0 165.16 257.57"><defs><linearGradient id="a" x1="417.16" y1="481.48" x2="583.93" y2="552.27" gradientTransform="matrix(1, 0, 0, -1, 0, 1026)" gradientUnits="userSpaceOnUse"><stop offset="0.07" stop-color="#f2bf27"/><stop offset="0.11" stop-color="#f2c02a"/><stop offset="0.15" stop-color="#f3c535"/><stop offset="0.18" stop-color="#f5cd47"/><stop offset="0.21" stop-color="#f8d760"/><stop offset="0.25" stop-color="#fbe581"/><stop offset="0.28" stop-color="#fff6a8"/><stop offset="0.28" stop-color="#fff8ad"/><stop offset="0.4" stop-color="#fae27a"/><stop offset="0.53" stop-color="#f6cf4d"/><stop offset="0.62" stop-color="#f3c331"/><stop offset="0.67" stop-color="#f2bf27"/><stop offset="0.7" stop-color="#f4c639"/><stop offset="0.76" stop-color="#f8da66"/><stop offset="0.84" stop-color="#fff8ad"/><stop offset="0.86" stop-color="#fced92"/><stop offset="0.89" stop-color="#f9dc6c"/><stop offset="0.92" stop-color="#f6cf4e"/><stop offset="0.95" stop-color="#f4c638"/><stop offset="0.97" stop-color="#f2c12b"/><stop offset="1" stop-color="#f2bf27"/></linearGradient><linearGradient id="b" x1="492.55" y1="586.61" x2="515.86" y2="595.28" gradientTransform="matrix(1, 0, 0, -1, 0, 1026)" gradientUnits="userSpaceOnUse"><stop offset="0.15" stop-color="#3a225d"/><stop offset="0.24" stop-color="#76658e"/><stop offset="0.33" stop-color="#b0a7be"/><stop offset="0.41" stop-color="#dbd6e1"/><stop offset="0.47" stop-color="#f5f4f7"/><stop offset="0.5" stop-color="#fff"/><stop offset="0.54" stop-color="#fbfafc"/><stop offset="0.59" stop-color="#efedf2"/><stop offset="0.64" stop-color="#dbd6e1"/><stop offset="0.69" stop-color="#bfb7ca"/><stop offset="0.74" stop-color="#9b8eac"/><stop offset="0.8" stop-color="#6e5d88"/><stop offset="0.85" stop-color="#3b235e"/><stop offset="0.85" stop-color="#3a225d"/></linearGradient><linearGradient id="c" x1="499.88" y1="566.9" x2="523.2" y2="575.57" xlink:href="#b"/><linearGradient id="d" x1="504.75" y1="553.81" x2="528.07" y2="562.48" xlink:href="#b"/><linearGradient id="e" x1="461.57" y1="511.12" x2="563.42" y2="554.35" gradientTransform="matrix(1, 0, 0, -1, 0, 1026)" gradientUnits="userSpaceOnUse"><stop offset="0.07" stop-color="#f2bf27"/><stop offset="0.11" stop-color="#f2c02a"/><stop offset="0.15" stop-color="#f3c535"/><stop offset="0.18" stop-color="#f5cd47"/><stop offset="0.21" stop-color="#f8d760"/><stop offset="0.25" stop-color="#fbe581"/><stop offset="0.28" stop-color="#fff6a8"/><stop offset="0.28" stop-color="#fff8ad"/><stop offset="0.36" stop-color="#fae27a"/><stop offset="0.44" stop-color="#f6cf4d"/><stop offset="0.5" stop-color="#f3c331"/><stop offset="0.53" stop-color="#f2bf27"/><stop offset="0.77" stop-color="#fff8ad"/><stop offset="1" stop-color="#f2bf27"/></linearGradient><linearGradient id="f" x1="484.78" y1="509.03" x2="560.25" y2="541.06" gradientTransform="matrix(1, 0, 0, -1, 0, 1026)" gradientUnits="userSpaceOnUse"><stop offset="0.07" stop-color="#f2bf27"/><stop offset="0.1" stop-color="#f2c02a"/><stop offset="0.12" stop-color="#f3c535"/><stop offset="0.15" stop-color="#f5cd47"/><stop offset="0.17" stop-color="#f8d760"/><stop offset="0.19" stop-color="#fbe581"/><stop offset="0.21" stop-color="#fff6a8"/><stop offset="0.21" stop-color="#fff8ad"/><stop offset="0.28" stop-color="#fae27a"/><stop offset="0.34" stop-color="#f6cf4d"/><stop offset="0.39" stop-color="#f3c331"/><stop offset="0.42" stop-color="#f2bf27"/><stop offset="0.58" stop-color="#fff8ad"/><stop offset="0.92" stop-color="#f2bf27"/></linearGradient><linearGradient id="g" x1="427.76" y1="397.13" x2="554.14" y2="450.77" gradientTransform="matrix(1, 0, 0, -1, 0, 1026)" gradientUnits="userSpaceOnUse"><stop offset="0.07" stop-color="#f2bf27"/><stop offset="0.11" stop-color="#f2c02a"/><stop offset="0.15" stop-color="#f3c535"/><stop offset="0.18" stop-color="#f5cd47"/><stop offset="0.21" stop-color="#f8d760"/><stop offset="0.25" stop-color="#fbe581"/><stop offset="0.28" stop-color="#fff6a8"/><stop offset="0.28" stop-color="#fff8ad"/><stop offset="0.43" stop-color="#fae27a"/><stop offset="0.59" stop-color="#f6cf4d"/><stop offset="0.7" stop-color="#f3c331"/><stop offset="0.77" stop-color="#f2bf27"/><stop offset="1" stop-color="#fff8ad"/></linearGradient><linearGradient id="h" x1="481.9" y1="399.45" x2="580.06" y2="441.12" xlink:href="#e"/><linearGradient id="i" x1="440.87" y1="456.66" x2="585.55" y2="518.07" gradientTransform="matrix(1, 0, 0, -1, 0, 1026)" gradientUnits="userSpaceOnUse"><stop offset="0.07" stop-color="#f2bf27"/><stop offset="0.11" stop-color="#f2c02a"/><stop offset="0.15" stop-color="#f3c535"/><stop offset="0.18" stop-color="#f5cd47"/><stop offset="0.21" stop-color="#f8d760"/><stop offset="0.25" stop-color="#fbe581"/><stop offset="0.28" stop-color="#fff6a8"/><stop offset="0.28" stop-color="#fff8ad"/><stop offset="0.37" stop-color="#fae27a"/><stop offset="0.46" stop-color="#f6cf4d"/><stop offset="0.52" stop-color="#f3c331"/><stop offset="0.56" stop-color="#f2bf27"/><stop offset="0.7" stop-color="#fff8ad"/><stop offset="0.9" stop-color="#f2bf27"/></linearGradient></defs><title>Kolkata Knight Riders logo - Brandlogos.net</title><path d="M594.58,498.82s-12.7,1.31-13.49,1.49l-.09-.09a6.58,6.58,0,0,0-1.31-1.4l2.28-14-5.61-2.1a145.54,145.54,0,0,0-33.72-7.88l-1-2.19L532.92,453l7.44-.7-14.89-21.19L519.7,422s-1.05-.44-1.75-.7c.18-.7,3.15-17.69-10.95-26a37.76,37.76,0,0,0-8.67-3.68h0a32.74,32.74,0,0,0-4.73-1,54.68,54.68,0,0,0-16.38.88c-2.28-1.66-6.39-8.32-6.39-8.32s-1.14,14.54,7.79,22.77a34.54,34.54,0,0,1-8.93-5.61,67.86,67.86,0,0,0-7.18-4.82,17.26,17.26,0,0,0-8.32-2.28c-6.22,0-12.17,5.25-12.17,5.25s8,.79,12,3.33a4.2,4.2,0,0,0-4.29,3.33l2.28,1.31c6.74,4.2,1.31,5.17-.7,4.29l-5.87-3.15s3,10.95,10.25,11.65L454,420.87s12.61,2.19,16.55,6.13c2.8,2.71,4.29,5.43,2.28,6.39-1.49.7-3.5-.79-4.9-2.45a22,22,0,0,1-2.8-5.69,13.22,13.22,0,0,0-.53,9.63h0a14.59,14.59,0,0,0,8.67,9.28c4.47,1.84,6,3.07,7,4.12a40.24,40.24,0,0,1,7,11.12l-5.61,15.06-.7,2.1a149.4,149.4,0,0,0-33.19,9.9l-7.27,3.33,4.2,13.14c-4.82,3-10.25,7.62-11.74,13.93a13.79,13.79,0,0,0,1.84,10.95,15.21,15.21,0,0,0,8.06,6.13l-2.36,12.7c-5.78,3.85-9.46,8.41-10.68,13.14a13.64,13.64,0,0,0,1.84,10.86,15.1,15.1,0,0,0,7.62,6L437.38,587l.35.7a42.38,42.38,0,0,0,6.22,8.85c4.12,4.55,10.6,8.06,14,9.81-.53,1.31-1.31,3.42-1,14.8l.44,18.22,13.66-12.26c.09,0,4.64-4.12,12-9.55a121.54,121.54,0,0,0,12.35,11.65,85.85,85.85,0,0,0,16.46,10c3.5,1.58,3.5,1.58,4,1.58h.79l.61-.44c5.08-3.77,16-13.66,16.55-14.1l10.25-9.63,6.22-6.31,6.83-7.36,7.27-8.41,5.78-7.53L565.85,586l7.27-1.84-.44-4.12,2,.35,3.24-4.82a92,92,0,0,0,8.32-15.76l1.23-3.24-.61-1.75L589,550c3-6.66,5-16.73,1.75-24.78l-1.93-5c2.54-3,3.24-6.92,3.85-10.25Zm-82.85-25.4c-5.52.18-11,.53-16.38,1.14a34.87,34.87,0,0,0,10.25-7.62,47.23,47.23,0,0,0,12.79,6.39h-.26C516.11,473.33,513.92,473.33,511.73,473.42Z" transform="translate(-429.42 -383.21)" style="fill:url(#a)"/><path d="M461.37,605.32a5.21,5.21,0,0,0-1.14,1.75c-.44,1-1.14,2.71-.88,13.93l.35,13.22,9.81-8.85c.09-.09,5.43-4.82,13.84-10.95a112.25,112.25,0,0,0,13.49,12.87,80.47,80.47,0,0,0,15.94,9.63l3.15,1.4c5-3.77,16.38-13.93,16.38-13.93L526,621l10.25-.26,3.5-3.24-6.48-2.36,9.81-.88,3.68-3.77-8.67-2.28,11.21-.26,3.59-3.85-9.72-2.63,12.26-.18,4.64-5.34-13.31-2.63h15.5l3.85-5-9.9-2.45,14.28-3.59-.53-5.17,3.59.61,2.36-3.59A89.08,89.08,0,0,0,584,558.9l.88-2.36-1.05-2.28c-.26-.61-.61-1.23-.88-1.75l2.28-.09,1.58-3.5c2.71-6.22,4.64-15.59,1.75-23l-2.45-6.31c2.89-2.54,3.59-6.48,4.29-10.07l1.49-8.06-8.14.88c-1.23.09-2.45.35-3.59.53-.26-.44-.53-.88-.79-1.23a6.48,6.48,0,0,0-2-1.75l2.19-13.49-3.85-1.49c-15.68-6-36.08-9.2-57.36-9.2-2.1,0-4.29,0-6.39.09-23.73.7-46.07,5.25-63.06,12.87l-5.34,2.45,4.2,13c-.09,0-.09.09-.18.09-4.73,2.71-10.6,7.18-12.09,13.31a11.14,11.14,0,0,0,1.58,9.11,12.71,12.71,0,0,0,8.85,5.61l-3,15.76c-4.29,2.71-9.2,6.83-10.51,12.26a11.29,11.29,0,0,0,1.49,9,12.62,12.62,0,0,0,8.32,5.52L440,586.49a37.16,37.16,0,0,0,5.87,8.32C451.3,601,461.37,605.32,461.37,605.32Z" transform="translate(-429.42 -383.21)" style="fill:#3a225d"/><path d="M461.46,415.79c6.22-3.15,9.63-4.55,10.16-4.55s-6.66-1.4-10.25-4.55c-3.85-3.5-8-2.63-8.23-2.19,0,0,6.22,3.5,4.55,6.92-2.1,4.2-7.44,1.4-7.44,1.4s3.15,7,11.21,3" transform="translate(-429.42 -383.21)" style="fill:#3a225d"/><path d="M481.69,409.58c-10.33-3-12.79-7.79-20.32-12s-13.31-.35-13.31-.35c6.83,1.14,10.25,5,16.82,9.37s16.82,3,16.82,3" transform="translate(-429.42 -383.21)" style="fill:#3a225d"/><path d="M486.16,432.43a19.76,19.76,0,0,1,5.43-6.13s-.35-.26-.88-.61a41,41,0,0,0-10.25-5s6.13-.79,15,1.84c.26.09.44.09.7.18,0,0,1.84-1.58,9-2.19a26.81,26.81,0,0,1,9.28.88,4,4,0,0,0-.35-.7c-1.31-2.63-7.18-12.26-21.19-11.56a10.16,10.16,0,0,1,6.31,6.48s-6.31-4.47-20-3.68-20.84,7.71-20.84,7.71,6.92,1.58,12.26,3.42c6.39,2.19,13.22,7.62,14.71,8.85a1.51,1.51,0,0,0,.35.26Z" transform="translate(-429.42 -383.21)" style="fill:#3a225d"/><path d="M486.33,410.45s2.36-2.71,9.37-2.8a27.81,27.81,0,0,1,9.55,2.28A14.4,14.4,0,0,0,501,401c8.67,2.1,9.28,12.26,9.37,12.35,3,2.19,5.25,7.71,5.25,7.71s3.07-16-9.81-23.56a33.31,33.31,0,0,0-21.54-4.38,17.17,17.17,0,0,1,8.14,3.85c3.42,3.07,2.28,8.23-4.12,6.57s-14.54-12.35-14.54-12.35c1,10.16,12.52,19.27,12.52,19.27" transform="translate(-429.42 -383.21)" style="fill:#3a225d"/><path d="M484.41,434.1c0-.09.09-.09.09-.18a1.91,1.91,0,0,1,.26-.44h0c-.09-.09-6.22-6.31-12.87-8.06,0,0,5.34,4.82,4.2,8.06-1.66,4.55-8.67,1.05-9.81-2.1a13,13,0,0,0,8,10.77c4,1.66,6.39,3.24,7.44,4.47a4.26,4.26,0,0,1,.7,1.05s-.61-8,2-13.57" transform="translate(-429.42 -383.21)" style="fill:#3a225d"/><path d="M486.42,446.36c0-7.62,2.45-13.57,7.09-17.34a24.77,24.77,0,0,1,18.39-5,30,30,0,0,1,7.44,1.75l-1.23-1.93s-13.4-5.69-24.7,2.45c-8.06,5.78-10.07,16.38-8.06,23.82l1.58,2.71a42,42,0,0,1-.53-6.48" transform="translate(-429.42 -383.21)" style="fill:#3a225d"/><path d="M520.05,428.06a33.28,33.28,0,0,0-8.23-2A23.84,23.84,0,0,0,494,430.86c-5.61,4.47-6.74,11.56-6.74,16.73a39.62,39.62,0,0,0,1,8.67l1.49,2.54a23.61,23.61,0,0,0,9.28-9.9c5.69-12.17,12.35-15,18-15.94a55.73,55.73,0,0,1,5.69-.79Z" transform="translate(-429.42 -383.21)" style="fill:#3a225d"/><path d="M538.53,472c-5.43.09-20.49-.53-33.46-11a28.6,28.6,0,0,1-4.82,5.34,29.12,29.12,0,0,1-15.24,7l-.79,2c13.49-1.31,21.11-11.56,21.11-11.56,14.63,11.74,34,10,34,10Z" transform="translate(-429.42 -383.21)" style="fill:#3a225d"/><path d="M527.06,445.48s-2.1,3.15-6.92,2.36a7.94,7.94,0,0,1-6-5.43c.18,0,7.09-.53,8.06-.61,6.66-.61,8.76,9.2,8.76,9.2l5.25-.44-11.91-17c-12.35,0-18.39,5.69-23.73,15.94-4.38,8.5-11.12,11.12-11.12,11.12l-4.12,11.12a29.11,29.11,0,0,0,19.36-12.35l.26-.35.35.26c12.52,10.33,27.32,11.21,32.93,11.12Zm-13.84-6.22s7.79-.7,8.67-.7c1.23.09,3,.53,3.5,1.75a5.59,5.59,0,0,0-3.15-.61c-1.66.09-8.5.61-8.5.61Zm21.89,30L525.66,448a3.29,3.29,0,0,0,1.14-.79l9.81,22.25A8.06,8.06,0,0,0,535.11,469.31Z" transform="translate(-429.42 -383.21)" style="fill:#3a225d"/><path d="M504.81,426.13a23,23,0,0,0-10.68,4.55l6.39,15A27.77,27.77,0,0,1,509,436Z" transform="translate(-429.42 -383.21)" style="opacity:0.30000001192092896;isolation:isolate;fill:url(#b)"/><path d="M506.91,460.63a48,48,0,0,0,15.85,7.71l-13-30.65c-3.33,2.36-5.87,5.78-8.32,10.07Z" transform="translate(-429.42 -383.21)" style="opacity:0.30000001192092896;isolation:isolate;fill:url(#c)"/><path d="M509.54,466.77a50,50,0,0,0,15.06,5.87l-1.05-2.45a50.58,50.58,0,0,1-15.59-7Z" transform="translate(-429.42 -383.21)" style="opacity:0.30000001192092896;isolation:isolate;fill:url(#d)"/><path d="M461.46,493.48l1.14,3.5-2.54.79-1-2.8-2.54.79,1,2.8-2.54.79-2.28-7,2.54-.79,1,2.8.35-.09,1.4-3.59,2.71-.88-1.49,3.59.88-.26c.61-.18,1.31-.09,1.4.35m18.65-1.58c.09.44-.44.88-1.14,1L473.72,494c-.7.18-1.4,0-1.49-.44L471,487.78c-.09-.44.44-.88,1.14-1.05l5.25-1.14c.7-.18,1.4,0,1.49.44Zm-2.71-.09-1-4.38-2.63.53,1,4.38Zm18-4.38.18,1.49-2.63.35-.7-6-2.63.35.88,7.36,8-1-.35-3.15Zm17.87-5.69-2.28,3.07h-.35l-.09-3-2.63.09.26,7.44,2.63-.09-.09-3,2.63-.09.09,3,2.63-.09-.09-3.68c0-.44-.61-.7-1.31-.7h-1l2.45-3.07ZM534.59,483l-.35,6.66-2.63-.18.18-3-2.63-.18-.18,3-2.63-.18.35-6.66c0-.44.61-.7,1.4-.7l5.34.26c.61.18,1.14.53,1.14,1m-2.71.53-2.63-.18-.09,1.49,2.63.18Zm12.87,1.14,2.63.35-.88,5.87,2.63.35.88-5.87,2.63.35.18-1.4-7.88-1.14Zm25.92,4.47L569,495.58l-2.54-.7.79-2.89-2.63-.7-.7,2.89-2.54-.7,1.66-6.48c.09-.44.79-.61,1.49-.35l5.17,1.31c.61.26,1.14.7,1,1.14m-2.71,0-2.54-.7-.35,1.49,2.63.7Z" transform="translate(-429.42 -383.21)" style="fill:url(#e)"/><path d="M567.26,501.45c-15.59-5.87-34-8.32-54.12-7.53-12.26.44-24.26,1.93-34.86,4.9l-.35,2A169.42,169.42,0,0,1,513,496.28,172.67,172.67,0,0,1,566.91,503Z" transform="translate(-429.42 -383.21)" style="fill:url(#f)"/><path d="M466.63,620.2s-.26-9.9.35-11.47,21.89-16.11,52.11-25.14,50.8-8.06,50.8-8.06-35.91,1.84-69.89,21a213.29,213.29,0,0,0-33.37,23.65" transform="translate(-429.42 -383.21)" style="fill:url(#g)"/><path d="M516.72,612c0,5.08-.53,16.38-.53,16.38a87.36,87.36,0,0,1-10.68-8.93,78.94,78.94,0,0,1-7.27-9.11,63.54,63.54,0,0,1,8-6.83,76.41,76.41,0,0,1,10.42-6.22s.18,8.67.09,14.71m39.85-30.39s-10.77-.44-34.68,9S489,609.69,489,609.69A113.81,113.81,0,0,0,501.92,622a74.8,74.8,0,0,0,14.63,8.85,98.67,98.67,0,0,0,8.85-7.27c-.35-.26-.79-.44-1.23-.7a22,22,0,0,0-6.13-2.28,63.38,63.38,0,0,1,12.44-1.84l.09-.09c-.53-.26-1-.44-1.58-.7a77,77,0,0,0-10.86-3.68s12.87-3.15,19.44-3.15a67.19,67.19,0,0,0-6.74-1.4c-6.13-1.14-10.16-2-10.16-2s10.77-1.93,23.65-3a48.25,48.25,0,0,0-7.53-1.31c-7.27-.88-13.4-1.93-13.4-1.93s6-1.23,14.54-2.45c5.25-.7,9-1.14,11.65-1.4-1.93-.44-4.55-.88-7.36-1.23-6.13-.61-6.13-.7-15.85-.7a77.91,77.91,0,0,1,27.24-5.25h0A50.11,50.11,0,0,0,541,589.2c-3.94.09-10.51.35-10.51.35S544.75,583.68,556.57,581.58Z" transform="translate(-429.42 -383.21)" style="fill:url(#h)"/><path d="M495.09,519.84l-.79,3.24a58.08,58.08,0,0,1,7.62-3.42c1.84-.61,4,.35,3.5,2.8L501.92,539c-2.45.88-6.66,2.54-8.67,3.5l3.85-16.73a30.93,30.93,0,0,0-3.85,1.58l-3.15,13.57a85.79,85.79,0,0,1-5.87-9.28c1.31-6.74.26-6,.26-6l.35-1.4a53.08,53.08,0,0,0,10.25-4.38m-20,4.9c6.92-1.49,32.75-8.32,28.64-25-5.43.44-10.6,1.05-15.68,1.93,1.66,1.05,3.15,3.68,1.05,8.58-3.94,9.2-17.34,10.25-20,10.42L473.28,500c-4.9,1.49-15.68,5.34-21.63,8.76-7.27,4.2-11.3,9.55-8.5,13.84,2.28,3.5,6.57,3.15,8.06,2.89l1.49-7.18a1.57,1.57,0,0,1-1.31-2.1c.61-2.63,5.78-5.43,10.95-7.71l-6.92,36.87a62.82,62.82,0,0,1,10.25-3.68l1.93-11.82c5.87,1.49,9.9,27.94,38.71,23C485.19,550.75,483.44,530.52,475.12,524.74Zm43.26-9.11,1.14-4.82c1.23-4.55-5.52-2.19-8-.44l-1.66,7c1.93-1.05,7.09-3.15,8.5-1.75m-11,6.92s.7,2.19-.26,6.39l-3,14.28a35.85,35.85,0,0,1,8.93-4.55l4-17.43c.61-2.45-1.58-3.33-3.15-3a25.44,25.44,0,0,0-6.13,2.8l-.44,1.49ZM551,518.17l2.89-12.26a2.45,2.45,0,0,0-3.07-3c-.18.09-.26.09-.44.18a38.42,38.42,0,0,0-5.87,3l-.35,1.49h0s.7,2.19-.26,6.39l-7.53,32.14,8.76-3,4.64-20.06c1.05-.44,2.36-1,3.85-1.49l-4.73,20.23,8.23-2.89,4.73-20.41c.61-2.45-1.84-3.33-3.33-3A48.89,48.89,0,0,0,551,518.17Zm0,0,2.89-12.26a2.45,2.45,0,0,0-3.07-3c-.18.09-.26.09-.44.18a38.42,38.42,0,0,0-5.87,3l-.35,1.49h0s.7,2.19-.26,6.39l-7.53,32.14,8.76-3,4.64-20.06c1.05-.44,2.36-1,3.85-1.49l-4.73,20.23,8.23-2.89,4.73-20.41c.61-2.45-1.84-3.33-3.33-3A48.89,48.89,0,0,0,551,518.17ZM491.32,555.4c-1.66-.26-3.33-.53-4.82-.88l-1.66,7c5.08-2.89,7.79-2.28,8.32-1.05l.61-2.63C494.13,556.8,493.6,555.75,491.32,555.4Zm-9,12s1,.44-.26,6.39l-1.14,5a36.16,36.16,0,0,0,7.36,3.33l3.94-17c.53-2.28-1.75-3.5-3.59-2.71a31.35,31.35,0,0,0-5.87,3.42l-.44,1.58m78-11.65L561,553l.35-1.4.61-2.8c1.05-4.55-1.66-6.48-4.73-5.25-2.36,1-5,3.77-6.31,5.34l.79-3.15c-3.42,1.31-6.83,2.45-10.16,3.5l-.35,1.49h0s.88.79-.26,6.39l-3.59,15.41c2.71-.61,6.74-1.49,8.5-1.84l4-17.17a44.09,44.09,0,0,1,4.2-3.33l-1.75,7.36C553.94,557.06,557.53,556.27,560.34,555.75ZM447.45,584.82a18.27,18.27,0,0,0,1.66,2.54l5.25-28.55c-.7.53-1.75,1.14-2.45,1.75Zm40.2,7.36c-17,1.31-21.37-10.68-25.75-10.68l-.35,1.84C465.58,583.51,471.71,595.59,487.65,592.18Zm73-54.65a3,3,0,0,1,3.07,1.05,126.09,126.09,0,0,0,16.29-11,57,57,0,0,1-9.37,2.36l3.33-14.1c1.31-.18,3.42-.26,5.78-.35,4-.26,4.55-1.66,5.69-7.71a70.61,70.61,0,0,0-10.07,2.1l.61-2.71a2.36,2.36,0,0,0-3.07-3.07,36.61,36.61,0,0,0-6.66,3.15l-.35,1.4h0s1,.53.26,4c-.53.18-.88.53-1.84,1l-1.14,5.08c1-.35,1.58-.61,2.19-.79C564.63,521.06,561.56,533.85,560.69,537.53Zm-21.89,17-2.36,10.16c-2.45-.61-8.23-.18-11.21.88l-1.14,5.08c5.34-1.84,11-3.07,12.17-3l-3.15,5.87c-2.19.53-13.49,3.94-15.5,4.55a3.12,3.12,0,0,0-2.89-1.93l3.15-12.87c1-4.2.18-6.22.18-6.22l.35-1.58c3.85-.26,9.55-2.45,15.76-4.2C538.53,550.23,539.41,551.89,538.79,554.52ZM531.17,556c-1.23.26-3.42,1.14-4,1.31l-1.05,4.55a31.14,31.14,0,0,1,4-1.31Zm51.06-10.16c-1.84.09-5.43,1.84-7.36,3.42a24.19,24.19,0,0,1,4.47,7,86,86,0,0,1-7.27,13.84c-7.36-2-19-.44-21.72,0l1.84-8a26.73,26.73,0,0,1,6.31-1.23c.7-.79,6-6.13,6.92-7.18l-1.58-1.4,1.23-5.52c.7-3.24-.79-4.2-.79-4.2l.18-1.49c4.73-2.36,14.89-9,19.44-13.57C585.91,532.54,584.95,539.81,582.23,545.85Zm-14.36,9.55c-3,3-4.12,4.2-5.25,5.52,4.12-.18,7.44,2.36,8.32,1C572.07,559.77,568.74,556.36,567.87,555.4Zm9.46-16.2a28.93,28.93,0,0,1-3.15,2.36l-1.23,5.34a29.31,29.31,0,0,1,6-3.33C579.43,541.65,578.2,539.46,577.33,539.19ZM469.17,573.61c13-2.63,13.4-13.49,14.54-18.39a21,21,0,0,1-6.13-3c-4.55-3.5-7.09-6.31-8.76-9a130.05,130.05,0,0,0-20.41,8.58c-7.18,4.12-11,9.37-8.32,13.57,2.28,3.5,6.48,3.07,7.88,2.8l1.4-7a1.53,1.53,0,0,1-1.31-2c.61-2.54,9-7.88,16-10.07a36.32,36.32,0,0,0,7,8.06,21.4,21.4,0,0,0,2.71,1.93,22.91,22.91,0,0,1-2.19,6.39c-1.75,3.24-4.64,6.39-9.28,6.83l3.59-19.09a80.28,80.28,0,0,0-9.11,4.55l-6,31.18c2.54,3.15,4.55,5.08,7.18,6.39l3-16.9c6.74.53,11.74,15.41,33.46,11.39,5.17-1,9.9-4.2,13.75-7.53a31.83,31.83,0,0,1-9.37,2.63C480.11,588.24,472.76,573.52,469.17,573.61ZM450,548c.88-.44,1.84-.88,2.71-1.31L459,513.18c-1,.61-1.93,1.31-2.89,2Zm21.37-29.6c13.75-1.49,19.27-10.42,15.41-15.15,2,2.54-1.31,11.3-15.06,13.4ZM488.43,553c-12.61-4-16.29-16.55-20.23-20.32l-.44,2.45C470.57,537.62,475.3,550.49,488.43,553Zm-21.63,2.45c.53,2.1,2.71,4.73,3.15,5.25a12,12,0,0,1-6,9.2l-.26,1.4a11.83,11.83,0,0,0,7.27-8c.26-.88.53-1.84.79-2.8A64.7,64.7,0,0,1,466.8,555.48Zm73.39-38.27-6,25.49a8.8,8.8,0,0,0-3.77,5.61c-18.57,5.78-30.13,1.4-36-3.42a39.94,39.94,0,0,1,6.92-3l-.7,3.24c3.85,1.93,17.87,3.07,26.1-3.24l1.4-5.25c-2.28.61-5,1.49-5.87,1.84-1-1.4-2.89-1.66-6-.61l2.1-9c1-4.2.26-6.39.26-6.39L519,521c9.28-5.25,15.33-6.66,17.87-7C538.62,513.62,540.89,514.5,540.19,517.21Zm-8.06,2.28a23.69,23.69,0,0,0-3.85,1.49l-2.89,12.35c1.14-.35,2.89-.88,3.77-1.05Zm-12.52,24.26-7.88,33.63a9.47,9.47,0,0,0-3.15,3.68,68.89,68.89,0,0,0-8.06,2.36c-1.31-1.49-6-4.73-8.58-5.25l2.1-8.93c1.23-5.69.26-6.48.26-6.48l.35-1.58c2.8-1.4,7.79-3.33,9.9-3.59a28.94,28.94,0,0,1,2.63,2.36l1.84-8.23c1.31-5.69.26-6.39.26-6.39h0l.35-1.66a37.18,37.18,0,0,1,6.92-2.89C517.69,540.51,520.14,541.3,519.61,543.75ZM506.3,564.59a28,28,0,0,0-3.15-2.8l-3.07,12.79c.35.18,2.63,1.14,3.42,1.58Z" transform="translate(-429.42 -383.21)" style="fill:url(#i)"/><path d="M470,415.62a39.18,39.18,0,0,1,9.55-1.84,36.1,36.1,0,0,1,9.72.53,41.26,41.26,0,0,1,9.72,2.8,34.77,34.77,0,0,0-9.28-3.42,37.5,37.5,0,0,0-9.9-.79,40.58,40.58,0,0,0-9.72,1.84,38.16,38.16,0,0,0-9,4.12l-.61.44.79.09a57.77,57.77,0,0,1,6.74,1.49,64.15,64.15,0,0,1,6.57,2.19c2.1.88,5.34,2.54,5.34,2.54a29.55,29.55,0,0,0-5.17-3,41.55,41.55,0,0,0-6.57-2.28c-2-.53-4-1-6-1.4a28,28,0,0,1,3.24-1.66C466.89,416.76,468.38,416.14,470,415.62Z" transform="translate(-429.42 -383.21)" style="fill:#f2bf27"/><path d="M451.56,397.05a18.53,18.53,0,0,1,6.74,2.54,24.07,24.07,0,0,1,2.89,2,16.81,16.81,0,0,1,1.31,1.23,15.22,15.22,0,0,0,1.31,1.14,16.73,16.73,0,0,0,2.8,2.1,12.81,12.81,0,0,0,3.15,1.4c1.14.35,2.28.61,3.42.88s2.19.35,3.42.53c-1.14-.09-2.36-.18-3.5-.35a24.8,24.8,0,0,1-3.5-.7,15.79,15.79,0,0,1-3.33-1.4,15.05,15.05,0,0,1-2.89-2.1,16.81,16.81,0,0,1-1.31-1.23,16.18,16.18,0,0,1-1.23-1.23,21.27,21.27,0,0,0-2.8-2.1A34.17,34.17,0,0,0,455,398.1c-1.23-.35-2.28-.79-3.42-1.05" transform="translate(-429.42 -383.21)" style="fill:#f2bf27"/><path d="M496.67,410.1a16.4,16.4,0,0,1,4.55,1.05,21.35,21.35,0,0,1,7.88,4.9,19.67,19.67,0,0,1,3,3.59,29.08,29.08,0,0,0-3.33-3.24,28.49,28.49,0,0,0-3.68-2.71,30.26,30.26,0,0,0-4.12-2.1,22.56,22.56,0,0,0-4.29-1.49" transform="translate(-429.42 -383.21)" style="fill:#f2bf27"/><path d="M489.66,394a33.37,33.37,0,0,1,9.28,1.66,24.2,24.2,0,0,1,8.32,4.55,24.48,24.48,0,0,1,3.33,3.42,19.28,19.28,0,0,1,2.36,4.12,20.82,20.82,0,0,1,1.31,4.55,21.52,21.52,0,0,1,.35,4.73,23.94,23.94,0,0,0-.88-4.2,29.69,29.69,0,0,0-1.49-4.47,20.05,20.05,0,0,0-5.69-7.27,28.16,28.16,0,0,0-8.06-4.55,43,43,0,0,0-4.47-1.31,37.76,37.76,0,0,1-4.38-1.23" transform="translate(-429.42 -383.21)" style="fill:#f2bf27"/><path d="M495.35,401.17a4.25,4.25,0,0,1-1.4,3.24,6,6,0,0,1-3.15,1.31,10.5,10.5,0,0,1-3.33-.26,15.62,15.62,0,0,1-3.15-1.23,20,20,0,0,1-5.25-4,23.67,23.67,0,0,1-3.77-5.52,46.15,46.15,0,0,0,4.29,5,25.37,25.37,0,0,0,5.25,3.85,12.56,12.56,0,0,0,3,1.23,9.7,9.7,0,0,0,3.15.35,5.34,5.34,0,0,0,3-1.05,4,4,0,0,0,1.4-2.89" transform="translate(-429.42 -383.21)" style="fill:#f2bf27"/><path d="M455.24,404.93a8.38,8.38,0,0,1,6.31,3.77,7.55,7.55,0,0,0,6.57,2.71c-2.8.35-5.52-.09-6.83-1.75a11.06,11.06,0,0,0-6-4.73" transform="translate(-429.42 -383.21)" style="fill:#f2bf27"/><path d="M453.05,414.66a5.3,5.3,0,0,0,5.25-2.19,4.45,4.45,0,0,1-1,1.93,2.71,2.71,0,0,1-2.54.88,5.18,5.18,0,0,1-1.75-.61" transform="translate(-429.42 -383.21)" style="fill:#f2bf27"/><path d="M473.9,427a15.52,15.52,0,0,1,2.71,1.31c.88.53,1.66,1.05,2.54,1.58a24.05,24.05,0,0,1,2.28,1.93,9.56,9.56,0,0,1,1.84,2.36,23,23,0,0,0-2.19-1.93c-.79-.61-1.58-1.23-2.36-1.75-1.58-1.23-3.24-2.36-4.82-3.5" transform="translate(-429.42 -383.21)" style="fill:#f2bf27"/><path d="M468.55,435.06a7.57,7.57,0,0,0,2.54,1.84,5.77,5.77,0,0,0,3,.44,3.2,3.2,0,0,0,2.36-1.4,5.82,5.82,0,0,0,.79-3,5.92,5.92,0,0,1-.35,3.24,3.27,3.27,0,0,1-1.14,1.31,2.88,2.88,0,0,1-1.66.53,5.83,5.83,0,0,1-3.24-.61,6.54,6.54,0,0,1-2.28-2.36" transform="translate(-429.42 -383.21)" style="fill:#f2bf27"/><path d="M492.38,611c16.38-14.36,36.52-22.16,36.52-22.16-26,8.76-38,20.67-38,20.67Z" transform="translate(-429.42 -383.21)" style="fill:#3a225d"/><path d="M556.31,538.05l4.55-19.53a1.64,1.64,0,0,0-.18-1.31,2.16,2.16,0,0,0-1.49-.7h0a2.2,2.2,0,0,1,.53,2.28l-4.55,19.62Z" transform="translate(-429.42 -383.21)" style="fill:#3a225d"/><path d="M492.73,557.59c.18-.7-.35-.88-1-1l-.44,1.84a1.09,1.09,0,0,1,1.05.26Z" transform="translate(-429.42 -383.21)" style="fill:#3a225d"/><path d="M571.9,542l-1.23,5.52c.44-.18.79-.53,1.23-.7l1.31-5.52Z" transform="translate(-429.42 -383.21)" style="fill:#3a225d"/><path d="M448.06,562a2.21,2.21,0,0,1-1.14-2.8c.53-2.1,3.33-4.47,8.67-7-4.73,2.1-9.11,4.47-9.81,7.18-.44,1.66.09,3.33,2.1,3.77Z" transform="translate(-429.42 -383.21)" style="fill:#3a225d"/><path d="M530.82,573.17c.44-.09,1.23-.35,1.4-.35.61-1.49,1.49-2.8,2-3.85-.35.09-.61.09-1.05.18A34.89,34.89,0,0,0,530.82,573.17Z" transform="translate(-429.42 -383.21)" style="fill:#3a225d"/><path d="M523.9,562.58c.35-.18.7-.26,1.14-.44l1.05-4.47c-.35.09-.7.18-1.14.26Z" transform="translate(-429.42 -383.21)" style="fill:#3a225d"/><path d="M536.34,552H536a2.06,2.06,0,0,1,.79,2.28l-2,8.85c.35,0,.7.09,1.05.09l2.28-9.55a1.3,1.3,0,0,0-.18-1.14A3.73,3.73,0,0,0,536.34,552Z" transform="translate(-429.42 -383.21)" style="fill:#3a225d"/><path d="M548.78,522.9c-.44.18-.88.35-1.23.53l-4.47,19.09,1.23-.44Z" transform="translate(-429.42 -383.21)" style="fill:#3a225d"/><path d="M516,521.33a1.53,1.53,0,0,0-1.75-2,2.1,2.1,0,0,1,.53,2.28L511,537.88a5,5,0,0,1,1.23-.35Z" transform="translate(-429.42 -383.21)" style="fill:#3a225d"/><path d="M521.8,571.51a9.82,9.82,0,0,0,1.14-.44l1.23-5.34L523,566Z" transform="translate(-429.42 -383.21)" style="fill:#3a225d"/><path d="M551.23,504.07h0a2.85,2.85,0,0,1,.44,2.19l-2.89,12.35c.44-.18.88-.35,1.23-.53l2.89-11.91a1.37,1.37,0,0,0-.26-1.31A1.8,1.8,0,0,0,551.23,504.07Z" transform="translate(-429.42 -383.21)" style="fill:#3a225d"/><path d="M518.56,510.55c.26-1.23-.44-1.4-.88-1.31l-1.14,4.9a2.32,2.32,0,0,1,1.14.09Z" transform="translate(-429.42 -383.21)" style="fill:#3a225d"/><path d="M558.41,555a5.13,5.13,0,0,1,1.14-.18l1.31-5.87c.35-1.49.35-4.9-2.54-4.47,1.66.35,1.93,2.28,1.31,5l-.61,2.8Z" transform="translate(-429.42 -383.21)" style="fill:#3a225d"/><path d="M543.87,570.11a11.42,11.42,0,0,1,1.14-.26l3.59-15.5c-.61.53-1.14,1-1.49,1.31Z" transform="translate(-429.42 -383.21)" style="fill:#3a225d"/><path d="M548.6,549.62c.44-.53,1-1.14,1.49-1.66l.09-.44c-.35.18-.79.26-1.14.44Z" transform="translate(-429.42 -383.21)" style="fill:#3a225d"/><path d="M492.29,527.2c-.44.18-.88.44-1.23.61l-2.19,8.5c.26.35.53.79.79,1.14Z" transform="translate(-429.42 -383.21)" style="fill:#3a225d"/><path d="M472,501.53a6.86,6.86,0,0,0-1.23.44L467,521c.35,0,.7-.09,1.14-.09Z" transform="translate(-429.42 -383.21)" style="fill:#3a225d"/><path d="M476.52,569c3.77-2.89,4.64-8.32,5.78-13a5.36,5.36,0,0,1-1.05-.44C480.2,560.12,479.06,566.43,476.52,569Z" transform="translate(-429.42 -383.21)" style="fill:#3a225d"/><path d="M493.6,521.85c-.44.18-.88.35-1.23.53L492,524c.26-.18.88-.35,1.23-.53Z" transform="translate(-429.42 -383.21)" style="fill:#3a225d"/><path d="M479.15,554.52a36.14,36.14,0,0,1-10.95-10.16l-1.05.35C468.73,547.25,473.72,552.51,479.15,554.52Z" transform="translate(-429.42 -383.21)" style="fill:#3a225d"/><path d="M451.39,519.14a2.31,2.31,0,0,1-1.14-2.89c.53-2.19,3.42-4.55,8.85-7.09-4.82,2.19-9.28,4.55-10.07,7.36-.44,1.75.09,3.42,2.1,3.85Z" transform="translate(-429.42 -383.21)" style="fill:#3a225d"/><path d="M489.4,563.37a.66.66,0,0,0-.44.09,2.33,2.33,0,0,1,1,2.45l-3.15,13.57a4.46,4.46,0,0,0,1,.35l3.33-14.63a1.52,1.52,0,0,0-.26-1.23A1.91,1.91,0,0,0,489.4,563.37Z" transform="translate(-429.42 -383.21)" style="fill:#3a225d"/><path d="M456.56,592.79c.26.26.61.44.79.61l2.71-14.89a3,3,0,0,0-.88.09Z" transform="translate(-429.42 -383.21)" style="fill:#3a225d"/><path d="M465.31,529.21l-2,12.09a5.67,5.67,0,0,0,1.14-.35l1.93-11.56A3.27,3.27,0,0,0,465.31,529.21Z" transform="translate(-429.42 -383.21)" style="fill:#3a225d"/><path d="M460.23,573c.35,0,.61-.09,1-.09l3.42-18.13-1.05.53Z" transform="translate(-429.42 -383.21)" style="fill:#3a225d"/><path d="M504.29,522.9c.26-1.58-.44-2.63-1.66-2.36a2.2,2.2,0,0,1,.53,2.28l-3.33,15.68a6.86,6.86,0,0,1,1.23-.44Z" transform="translate(-429.42 -383.21)" style="fill:#3a225d"/><path d="M568.39,530.26c.35-.09.7-.09,1.14-.18l3.33-14.1c-.35.09-.79.09-1.14.18Z" transform="translate(-429.42 -383.21)" style="fill:#3a225d"/><path d="M574.7,507.14c.44-2-1.23-2.28-1.66-2.1.53.18.7,1.31.53,2.28l-.7,3.07,1.23-.26Z" transform="translate(-429.42 -383.21)" style="fill:#3a225d"/><path d="M493.43,515.81c5.61-3.42,9.55-8.14,8.58-15l-1.23.09C501,503.29,501.31,510.12,493.43,515.81Z" transform="translate(-429.42 -383.21)" style="fill:#3a225d"/><path d="M466.54,574.84c3.94.88,11.39,13.84,24.26,11.74-13,.53-20-12.26-23.12-12.17Z" transform="translate(-429.42 -383.21)" style="fill:#3a225d"/><path d="M473.55,525.09l-1.75.18c5.52,2.28,12.35,23.82,25.66,26.62C484.06,547.08,479.41,529.12,473.55,525.09Z" transform="translate(-429.42 -383.21)" style="fill:#3a225d"/><path d="M569,563.37a27.16,27.16,0,0,0-15.5-.53l-.35,1.14A33.38,33.38,0,0,1,569,563.37Z" transform="translate(-429.42 -383.21)" style="fill:#3a225d"/><path d="M498.86,575.36c.44.18,1.58.61,2.45,1.05l-.09.7c-.88-.44-3-1.31-3.42-1.58l3.5-15.06a6.14,6.14,0,0,1,.88.7l-3.33,14.19" transform="translate(-429.42 -383.21)" style="fill:#3a225d"/><path d="M516.81,541.82h-.26a2.34,2.34,0,0,1,.79,2.45l-7.62,32.67a3.67,3.67,0,0,1,1.23-.79l7.62-32.4a1.64,1.64,0,0,0-.18-1.31A2.4,2.4,0,0,0,516.81,541.82Z" transform="translate(-429.42 -383.21)" style="fill:#3a225d"/><path d="M524.34,533.68l2.89-12.35a12.85,12.85,0,0,0-1.23.53l-2.89,12.26A10.62,10.62,0,0,0,524.34,533.68Z" transform="translate(-429.42 -383.21)" style="fill:#3a225d"/><path d="M503.24,559.07c.53.44,1.05,1,1.66,1.58l.26-1c-.35-.26-.61-.61-1-.88A2,2,0,0,0,503.24,559.07Z" transform="translate(-429.42 -383.21)" style="fill:#3a225d"/><path d="M539.14,517.3a1.57,1.57,0,0,0-.26-1.58,1.9,1.9,0,0,0-1.58-.7,2.64,2.64,0,0,1,.61,2.54l-6,25.31c-2.19,1.14-3.24,3.77-3.59,5.08a4.4,4.4,0,0,1,1.05-.18,9.78,9.78,0,0,1,3.68-5.43Z" transform="translate(-429.42 -383.21)" style="fill:#3a225d"/><path d="M571.9,568.44a72.88,72.88,0,0,0,6.31-12.26,38.52,38.52,0,0,0-4.2-6.74l-1,.7a33.9,33.9,0,0,1,4,6.31A106.05,106.05,0,0,1,571.9,568.44Z" transform="translate(-429.42 -383.21)" style="fill:#3a225d"/><path d="M582.23,544c1-2.45,2.8-10.16,1.4-13.93l-1.14,1.05C583.37,532.1,583.55,539.19,582.23,544Z" transform="translate(-429.42 -383.21)" style="fill:#3a225d"/><path d="M582.93,509.42l-1.14,4.2c.35,0,1.31-.44,1.75-2.19l.53-2.28A11.43,11.43,0,0,0,582.93,509.42Z" transform="translate(-429.42 -383.21)" style="fill:#3a225d"/></svg>