<svg xmlns="http://www.w3.org/2000/svg" xmlns:xlink="http://www.w3.org/1999/xlink" viewBox="0 0 310.45 206.36"><defs><clipPath id="a" transform="translate(-356.55 -390.8)"><path d="M536.37,447.91c-3.18,1.83-7.92,5.34-9.14,10.05a26.68,26.68,0,0,1,7.51,5.74,25.14,25.14,0,0,1,6.74-11.13c3.06-3.08,6.62-9.48,5.46-14.31-1.41,5.83-6.13,7.12-10.57,9.66" style="fill:none"/></clipPath><radialGradient id="b" cx="-289.77" cy="356.57" r="9.15" gradientTransform="matrix(6.74, 0.39, 0.39, -6.74, 1968.13, 2610.15)" gradientUnits="userSpaceOnUse"><stop offset="0" stop-color="#e64529"/><stop offset="0.59" stop-color="#e64529"/><stop offset="0.63" stop-color="#e74a29"/><stop offset="0.69" stop-color="#e85928"/><stop offset="0.75" stop-color="#eb6d27"/><stop offset="0.81" stop-color="#ef8626"/><stop offset="0.87" stop-color="#f5a521"/><stop offset="0.94" stop-color="#fccb11"/><stop offset="1" stop-color="#fccb11"/></radialGradient><clipPath id="c" transform="translate(-356.55 -390.8)"><path d="M525.91,512c3.92,5.33,3.11,11.39,3.59,16.49a18.06,18.06,0,0,0,8.19,13.88c-4.37-4.17-3.4-14-2.43-17.3,1.77-5.9,2-11.89-1.84-18a67.64,67.64,0,0,1-7.51,4.89" style="fill:none"/></clipPath><radialGradient id="d" cx="-289.8" cy="356.52" r="9.16" gradientTransform="matrix(6.74, 0.39, 0.39, -6.74, 1968.51, 2610.77)" xlink:href="#b"/><clipPath id="e" transform="translate(-356.55 -390.8)"><path d="M535,505.48a30.08,30.08,0,0,1,14.38,9c2.07,2.36,8.24,9.69,15.43,8.85-5.94-1.08-8.89-8.63-10.91-12.61a29,29,0,0,0-13.52-13.4c-.95,2.45-5.38,8.19-5.38,8.19" style="fill:none"/></clipPath><radialGradient id="f" cx="-289.8" cy="356.53" r="9.16" gradientTransform="matrix(6.75, 0.39, 0.39, -6.75, 1969.56, 2612.26)" xlink:href="#b"/><clipPath id="g" transform="translate(-356.55 -390.8)"><path d="M541,495.93a29.3,29.3,0,0,1,17,2.83c4.74,2.21,11.11,4.78,18.53,1-5.83,1.54-12.19-2.53-15.74-5.26s-10.66-6.32-17.62-6.53c.18,2.6-2.15,7.95-2.15,7.95" style="fill:none"/></clipPath><radialGradient id="h" cx="-289.79" cy="356.44" r="9.15" gradientTransform="matrix(6.74, 0.39, 0.39, -6.74, 1967.15, 2609.11)" xlink:href="#b"/><clipPath id="i" transform="translate(-356.55 -390.8)"><path d="M550.58,458c-4,1.16-9.76,2.4-14.75,6.92a32.73,32.73,0,0,1,4.33,6.78c1.77-4.36,8.3-7.94,12.61-10.32,4.52-2.49,9.55-8.77,9.53-12.74-.93,4.13-7.24,8.07-11.71,9.36" style="fill:none"/></clipPath><radialGradient id="j" cx="-289.63" cy="356.53" r="9.15" gradientTransform="matrix(6.69, 0.39, 0.39, -6.69, 1953.72, 2591.06)" xlink:href="#b"/><clipPath id="k" transform="translate(-356.55 -390.8)"><path d="M527.69,441.09c-2.79,3.34-7.8,7-9.32,13.56a27.93,27.93,0,0,1,7.38,2.56c-.68-4.27,3.2-9.72,5.4-14.14,2.29-4.63,1.61-10.68-2.2-14.24,2.91,3.3,1.8,8.62-1.27,12.26" style="fill:none"/></clipPath><radialGradient id="l" cx="-289.72" cy="356.65" r="9.14" gradientTransform="matrix(6.71, 0.39, 0.39, -6.71, 1959.41, 2598.58)" xlink:href="#b"/><clipPath id="m" transform="translate(-356.55 -390.8)"><path d="M489.42,445.32c0,4.1.36,11.16,3.24,15.84a32.81,32.81,0,0,1,8.39-5c-2.45-1.92-6.44-7-6.92-12.4-.5-5.61-2.38-11.7-6.33-13.9,2.81,3.07,1.63,9.65,1.63,15.44" style="fill:none"/></clipPath><radialGradient id="n" cx="-289.81" cy="356.5" r="9.16" gradientTransform="matrix(6.74, 0.39, 0.39, -6.74, 1968.27, 2610.49)" xlink:href="#b"/><clipPath id="o" transform="translate(-356.55 -390.8)"><path d="M472.29,462.08a22.06,22.06,0,0,1,12.5,9.08,31.12,31.12,0,0,1,6.72-8.9c-4.49-5.07-13.39-6.76-14.84-6.95-6-.81-12.25-2.27-15.34-8.23.72,7,6.89,13.68,11,15" style="fill:none"/></clipPath><radialGradient id="p" cx="-289.8" cy="356.53" r="9.16" gradientTransform="matrix(6.76, 0.39, 0.39, -6.76, 1973.12, 2616.9)" xlink:href="#b"/><clipPath id="q" transform="translate(-356.55 -390.8)"><path d="M449.11,467.54a25.44,25.44,0,0,1,15.56,7.06c3,2.85,7.53,6,17.26,6.57a30.11,30.11,0,0,1,2.32-8.72c-2.52,1-12.73.25-17.08-3.09-2.65-2-7.42-2.83-11.52-2.83a17,17,0,0,0-6.55,1" style="fill:none"/></clipPath><radialGradient id="r" cx="-289.82" cy="356.51" r="9.16" gradientTransform="matrix(6.74, 0.39, 0.39, -6.74, 1969.23, 2611.75)" xlink:href="#b"/><clipPath id="s" transform="translate(-356.55 -390.8)"><path d="M466.35,486c-5.63-.33-14.86,3-17.61,6.73,4.44-2.24,13.9-1.13,19,1.21,3.74,1.71,11.75,2.77,16.08,1-2.61-4.58-2-12.53-2-12.53-2,1.79-11.68,3.8-15.45,3.59" style="fill:none"/></clipPath><radialGradient id="t" cx="-289.82" cy="356.52" r="9.14" gradientTransform="matrix(6.75, 0.39, 0.39, -6.75, 1971.84, 2615.21)" xlink:href="#b"/><clipPath id="u" transform="translate(-356.55 -390.8)"><path d="M479.37,518.65c-6.11,4.71-10.25,16.26-8.12,20.28.71-5.93,5.17-11.06,10.16-13.73,5.22-2.81,15-6.33,17.86-13.32,0,0-6.71-3.39-9.62-7.1-1.61,6.3-6.72,11.13-10.28,13.88" style="fill:none"/></clipPath><radialGradient id="v" cx="-289.82" cy="356.54" r="9.16" gradientTransform="matrix(6.76, 0.39, 0.39, -6.76, 1973.51, 2617.48)" xlink:href="#b"/><clipPath id="w" transform="translate(-356.55 -390.8)"><path d="M468.57,502.19c-7.37-.08-14.09,1.3-19.21,6.3,5.31-3.81,16.43-.65,22.93-.58,5.9.07,9.67-1,16.08-4.6,0,0-3.58-4.58-4.26-7.12a23.68,23.68,0,0,1-15.54,6" style="fill:none"/></clipPath><radialGradient id="x" cx="-289.81" cy="356.51" r="9.15" gradientTransform="matrix(6.74, 0.39, 0.39, -6.74, 1969.2, 2611.72)" xlink:href="#b"/><clipPath id="y" transform="translate(-356.55 -390.8)"><path d="M495.34,525.41a28.68,28.68,0,0,0-5.56,14.15v1.56a5.71,5.71,0,0,0,1.38,3.71c-.48-5.66,4.08-10.78,8.08-14.79,3.38-3.37,8.51-8.67,10.5-15.19a31.81,31.81,0,0,1-8.71-2.13c-.16,5.42-3.19,9.36-5.69,12.69" style="fill:none"/></clipPath><radialGradient id="z" cx="-289.78" cy="356.53" r="9.16" gradientTransform="matrix(6.74, 0.39, 0.39, -6.74, 1968.15, 2610.33)" xlink:href="#b"/><clipPath id="aa" transform="translate(-356.55 -390.8)"><path d="M512.49,515c2.25,4.94.79,10.28,1.29,14.56.82,7,7.06,11.5,9,13-3.31-3.91-4.47-8.6-2.47-13.63,1.79-4.43,4.26-9.13,3.15-15.84,0,0-6.65,2.37-11,1.9" style="fill:none"/></clipPath><radialGradient id="ab" cx="-289.8" cy="356.52" r="9.17" gradientTransform="matrix(6.75, 0.39, 0.39, -6.75, 1970.27, 2613.17)" xlink:href="#b"/><clipPath id="ac" transform="translate(-356.55 -390.8)"><path d="M540.93,473.6a31.75,31.75,0,0,1,2.15,12c3.06-2.08,11.3-2.6,16-3.06,5.49-.55,11.54-6.37,13.23-8.39-3.76,3-9.26,3.65-14.38,1.88-3.41-1.2-7.56-3-12.29-3a16.79,16.79,0,0,0-4.67.64" style="fill:none"/></clipPath><radialGradient id="ad" cx="-289.65" cy="356.53" r="9.16" gradientTransform="matrix(6.69, 0.39, 0.39, -6.69, 1954.99, 2592.76)" xlink:href="#b"/><clipPath id="ae" transform="translate(-356.55 -390.8)"><path d="M503.71,442.3c.63,4.64,1.34,9.47,0,12.94a31.41,31.41,0,0,1,12.36-1c-1.13-7.32-3.81-9.49-5.74-13.51-2.34-4.88-.84-11.29-2.88-13.48.16,3.17-4.53,9.57-3.78,15" style="fill:none"/></clipPath><radialGradient id="af" cx="-289.9" cy="356.52" r="9.15" gradientTransform="matrix(6.8, 0.4, 0.4, -6.8, 1984.28, 2631.67)" xlink:href="#b"/><clipPath id="ag" transform="translate(-356.55 -390.8)"><path d="M483.72,483a28.7,28.7,0,1,0,30.31-27c-.57,0-1.13,0-1.7,0a28.7,28.7,0,0,0-28.61,27" style="fill:none"/></clipPath><radialGradient id="ah" cx="-275.66" cy="358.1" r="9.15" gradientTransform="matrix(3.09, 0.18, 0.18, -3.09, 942.58, 1249.57)" gradientUnits="userSpaceOnUse"><stop offset="0" stop-color="#ee7429"/><stop offset="0.67" stop-color="#ee7429"/><stop offset="0.73" stop-color="#ee7729"/><stop offset="0.79" stop-color="#f07f28"/><stop offset="0.85" stop-color="#f28d27"/><stop offset="0.91" stop-color="#f5a023"/><stop offset="0.97" stop-color="#f9b91c"/><stop offset="1" stop-color="#fccb11"/></radialGradient><clipPath id="ai" transform="translate(-356.55 -390.8)"><path d="M514.76,516.5c1.88,8.83-2.25,9.79,3.27,19.5-1.09-8.16,5-11.73,3.9-20.66a51.89,51.89,0,0,1-7.17,1.15m-22.89,20c3.43-7,12.11-11.26,15-20.14a23.85,23.85,0,0,1-4.69-1.25c-1.77,8.36-9,13.3-10.34,21.38m36.46-23.77c4.65,10.61-.07,14.74,5.12,23.12-2.36-10.13,5-15.16-.59-25.91-1.74,1.2-4.53,2.79-4.53,2.79m-54.47,17.05c6.74-8.93,17-8.23,22.71-17.15,0,0-4.4-2.82-6.29-4.32-2.11,7.8-14.72,12.95-16.42,21.47m64.33-25.15c12.07,6,9.19,6.49,19.13,15.23-4.94-7.36-6.31-15.35-16.31-20-1.15,1.86-2.83,4.74-2.83,4.74m-79.35.66a33.06,33.06,0,0,1,8,.63c5.15.87,9.91,1.76,18.89-3.24,0,0-1.29-2.27-2.2-3.53-11,6.88-19.55,3.35-24.66,6.14m84.52-11.19c13-.23,14.65,5.66,26.32,6.52-8.39-2.06-15-11-25.27-11.38a31.77,31.77,0,0,1-1.05,4.86m-75.76-6.77a22.53,22.53,0,0,0-12,2.52c12.72.44,15.29,6,25.54,3.76a47.7,47.7,0,0,1-1.34-8.13,31.44,31.44,0,0,1-12.21,1.85M543,475a31.75,31.75,0,0,1,1.52,8.1c8.13-3.27,15.11.29,22.12-5.21-4.69,1-8.07-.19-11.61-1.4a25.07,25.07,0,0,0-8.58-1.79A19.92,19.92,0,0,0,543,475m-85.86-6.84c11.12,4.85,9.21,10.67,23.05,11.26.71-4.2,1.27-4.75,1.27-4.75a28.44,28.44,0,0,1-13.93-3.26c-3.4-1.63-6.19-3.26-9.8-3.26-.2,0-.41,0-.59,0m80.76-2.85a24.36,24.36,0,0,1,2.24,3.49c5.19-6.94,9.82-5.56,17-12.8-6,4.8-14.09,3.88-19.26,9.31M484.5,467.8a23.69,23.69,0,0,1,4.68-6c-10.84-7.82-14.75-2.6-24.3-8.56,6.35,10.12,10.21,4.89,19.62,14.54M529,457.43a28.34,28.34,0,0,1,5,3.58c5.22-11.48,7.89-8,11.09-17.07-5.15,6.14-11,3.42-16.09,13.48m-8.5-3.68a15.57,15.57,0,0,1,3.83,1.31c1.57-8.18,6.12-9.94,6.73-17-1.51,5.7-8.55,8.41-10.55,15.74m-27,4.74a14.82,14.82,0,0,1,4.86-2.65c-6.83-8.26-4.6-14.81-7.72-20.49,1.11,4.47-2.32,12.81,2.86,23.14M505.86,453a40.78,40.78,0,0,1,7.9-.58c-1.24-9.86-6.37-8.59-6.4-19.81-5.26,12.3.3,12.25-1.5,20.39" style="fill:none"/></clipPath><radialGradient id="aj" cx="-288.04" cy="356.51" r="9.15" gradientTransform="matrix(5.98, 0.35, 0.35, -5.98, 1753.39, 2325.38)" gradientUnits="userSpaceOnUse"><stop offset="0" stop-color="#feda06"/><stop offset="0.62" stop-color="#feda06"/><stop offset="0.65" stop-color="#fcd211"/><stop offset="0.71" stop-color="#f7ba1f"/><stop offset="0.78" stop-color="#f09528"/><stop offset="0.87" stop-color="#e8612c"/><stop offset="0.93" stop-color="#e42b2d"/><stop offset="1" stop-color="#e42b2d"/></radialGradient><clipPath id="ak" transform="translate(-356.55 -390.8)"><path d="M507.4,530.07l3.18,3.43-3.31,0a6.85,6.85,0,0,1,.3,2.51,3.16,3.16,0,0,1-1.36,2.22l1.52-.32-1.31,1.38a5,5,0,0,0,.82-.42l1.38-.85-.32,1.58a3.62,3.62,0,0,1-.25.69c.23-.18.41-.35.54-.46l1.36-1.4-.27,3.09a7.76,7.76,0,0,0,.84-.86l.81-.92.38,1.16a2.68,2.68,0,0,0,.48.56l-.07-1.1,1.32-.35a1.25,1.25,0,0,0,.71.6,2.5,2.5,0,0,1-.43-1.13l-.14-2,1.34,1.49a2,2,0,0,0,1,.49,1.25,1.25,0,0,1,.05-.75l.13-.27c-2.24-1.82-1.75-3.65-1.74-3.75l.45-1.54a3.08,3.08,0,0,0-.79-2.3s-.09-.08-.12-.13a.75.75,0,0,1-.11-.76.73.73,0,0,1,.43-.38c-.88-1.38-3.61-1.49-3.65-1.49h0l-.55,0Z" style="fill:none"/></clipPath><linearGradient id="al" x1="-328.35" y1="315.31" x2="-319.2" y2="315.31" gradientTransform="matrix(0, -2, -2, 0, 785.59, -497.37)" gradientUnits="userSpaceOnUse"><stop offset="0" stop-color="#e64529"/><stop offset="0.49" stop-color="#e64529"/><stop offset="0.55" stop-color="#e74a29"/><stop offset="0.62" stop-color="#e85928"/><stop offset="0.69" stop-color="#eb6d27"/><stop offset="0.77" stop-color="#ef8626"/><stop offset="0.86" stop-color="#f5a521"/><stop offset="0.94" stop-color="#fccb11"/><stop offset="1" stop-color="#fccb11"/></linearGradient><clipPath id="am" transform="translate(-356.55 -390.8)"><path d="M501.83,530.28a.85.85,0,0,0-.18.91,1.81,1.81,0,0,1,1.47-.54,8.9,8.9,0,0,1,2.25.41l.48.14a5.72,5.72,0,0,0-3.11-1.18,1.38,1.38,0,0,0-.91.25" style="fill:none"/></clipPath><linearGradient id="an" x1="-149.23" y1="277.78" x2="-140.07" y2="277.78" gradientTransform="matrix(0.47, 0, 0, -0.47, 214.43, 269.04)" xlink:href="#al"/><clipPath id="ao" transform="translate(-356.55 -390.8)"><path d="M522.1,561.37c-.23-1.18-.61-2.72-1-4.16a4.64,4.64,0,0,0,1,4.16m3.95-.49a19.47,19.47,0,0,0-1.54-3.88,4.26,4.26,0,0,0,1.54,3.88m2.35-2.44a4.56,4.56,0,0,0,1.31,1.29l-2-3.29a4.13,4.13,0,0,0,.65,2m5.49.14c-.75-.82-1.82-1.88-2.93-2.93a5.73,5.73,0,0,0,2.93,2.93m5.35-.68a7.56,7.56,0,0,0-2.56-2.45,11.52,11.52,0,0,1-2.47-1.3c1,2.12,3.56,3.25,5,3.75m3.7-2.34a26.07,26.07,0,0,0-6-3.9c1,2.11,4.09,3.33,6,3.9m4.47-2.19a6.52,6.52,0,0,0-1.8-1.46,52.81,52.81,0,0,1-6.21-2.5c1.56,2.46,5.85,3.56,8,4m1.7-4a40,40,0,0,0-4.08-1.74c-1.5-.56-3-1-4-1.35,1.23,1.93,5.17,2.78,8,3.09m1.27-3.33c.88,0,1.72-.06,2.4-.12a71.73,71.73,0,0,0-9.44-2.07c1.82,1.77,4.74,2.19,7,2.19m-.55-3.76a26.66,26.66,0,0,0,4.72-.48,99.15,99.15,0,0,0-9.89-.81c1.09.86,2.81,1.3,5.17,1.3m-2.81-4a14.29,14.29,0,0,0,4.74.73,26.32,26.32,0,0,0,6.6-.95H557c-3.24,0-7.37.11-10,.22m6.9-4.44a52.24,52.24,0,0,1-5.44,1,12.27,12.27,0,0,0,3.63.5,26.1,26.1,0,0,0,10.09-2.49,47.89,47.89,0,0,0-8.28.95m-3-2.8c.71.07,1.41.11,2.11.11a21.83,21.83,0,0,0,12.06-3.7Zm-10.84-9.18c-3.44.1-4.52,2.87-6.19,9.21s-8.14,9.1-8.41,9.21a9.9,9.9,0,0,0-5.9,7.31c.21-.38.45-.8.7-1.27l1.29.52a14.84,14.84,0,0,0,0,3.37v0a11.82,11.82,0,0,1-.16,2.51l.25-.24,1.14,2.16a15.55,15.55,0,0,0,1-2.15l1.36.17a4.65,4.65,0,0,0,.82,1.92l.68-1.48,1.09-2.4.23,2.6a2,2,0,0,0,.41.66,21.1,21.1,0,0,0,.68-2.53l.23-1.18,2.2,1.92V549l3.13,1.77a12.47,12.47,0,0,0-.55-1.69l-.57-1.3,3.16.82-1-2.83,2.36.11-1.24-2.28,3.22-.05a8.48,8.48,0,0,0-1.4-1.22l.48-1.26h.18a20.15,20.15,0,0,0,2.25-.22,13.82,13.82,0,0,0-1.79-1.21l-2.29-1.3H543l-2.07-2.47,1.65.12h.29a12.17,12.17,0,0,0,2.16-.27,30.17,30.17,0,0,0-3.36-2.07l.39-1.31c.38,0,.79.06,1.22.06a19.81,19.81,0,0,0,3.32-.31,17.84,17.84,0,0,0-3.06-1.62l.27-1.32a18.23,18.23,0,0,0,4.54-.66c-.68-.38-1.47-.79-2-1.06l-1.54-.76,1.63-.54a35.55,35.55,0,0,0,3.7-1.44,25.75,25.75,0,0,0-3-.67l-.09-1.37a4,4,0,0,0,2.24-1.54c-2.06.21-6.26.64-9.23.71m12.79,5c.32,0,.65,0,1,0a20.51,20.51,0,0,0,14.47-6,86.54,86.54,0,0,1-15.43,6m-.63-4.19a7.84,7.84,0,0,0,1.93.23,18.27,18.27,0,0,0,6.82-1.63,19.07,19.07,0,0,0,8.39-6.21,166.87,166.87,0,0,1-17.13,7.61m.43-4.21h.29c5.33,0,10.35-3.42,10.41-3.46h0c4.43-2.6,6.58-5.2,7.6-7-4.81,3.64-14.15,8.42-18.33,10.51" style="fill:none"/></clipPath><linearGradient id="ap" x1="-295.41" y1="339.6" x2="-286.25" y2="339.6" gradientTransform="matrix(5.02, -2.9, -2.9, -5.02, 2619.54, 1013.99)" gradientUnits="userSpaceOnUse"><stop offset="0" stop-color="#e64529"/><stop offset="0.4" stop-color="#e64529"/><stop offset="0.45" stop-color="#e74a29"/><stop offset="0.51" stop-color="#e85928"/><stop offset="0.58" stop-color="#eb6d27"/><stop offset="0.65" stop-color="#ef8626"/><stop offset="0.72" stop-color="#f5a521"/><stop offset="0.79" stop-color="#fccb11"/><stop offset="1" stop-color="#fccb11"/></linearGradient><clipPath id="aq" transform="translate(-356.55 -390.8)"><path d="M499.74,561.38a4.7,4.7,0,0,0,1-4.17c-.39,1.44-.77,3-1,4.17m-7-1.76a4.42,4.42,0,0,0,1.41-1.18,4.3,4.3,0,0,0,.79-1.93Zm-4.2-1.18a5.94,5.94,0,0,0,2.92-2.9c-1.11,1-2.15,2.08-2.92,2.9m-3-3a7.59,7.59,0,0,0-2.56,2.45c1.47-.49,4-1.63,5-3.75a11.23,11.23,0,0,1-2.49,1.3m-6.26,0c1.95-.57,5.08-1.79,6-3.91a27,27,0,0,0-6,3.91m-2.49-3.5a6.66,6.66,0,0,0-1.81,1.48c2.17-.42,6.44-1.52,8-4a54.58,54.58,0,0,1-6.21,2.5m.7-4.24a33.79,33.79,0,0,0-4.1,1.74c2.86-.31,6.81-1.16,8-3.07-1,.31-2.45.79-3.93,1.34m-8.37-1.82a23.67,23.67,0,0,0,2.41.13c2.31,0,5.21-.42,7-2.19a73.16,73.16,0,0,0-9.44,2.07m-1.77-4.11a26.69,26.69,0,0,0,4.74.48,8.41,8.41,0,0,0,5.17-1.3c-3.38.13-7.37.42-9.91.81M463.47,538a26.35,26.35,0,0,0,6.62.95,14.25,14.25,0,0,0,4.72-.73c-2.59-.12-6.74-.22-10-.22h-1.36m6.26-2.69a12.36,12.36,0,0,0,3.63-.5,51.5,51.5,0,0,1-5.45-1,47.68,47.68,0,0,0-8.28-.95,26.21,26.21,0,0,0,10.1,2.49m-.91-4.23c.7,0,1.41,0,2.11-.11l-14.16-3.6a21.78,21.78,0,0,0,12.05,3.7m6-8.47-.09,1.37a26.65,26.65,0,0,0-3,.67,34.53,34.53,0,0,0,3.72,1.44l1.63.54-1.54.76c-.56.27-1.36.68-2,1.06a17.94,17.94,0,0,0,4.52.66l.29,1.32a18.17,18.17,0,0,0-3.08,1.62,19.89,19.89,0,0,0,3.34.31c.41,0,.82,0,1.22-.06l.38,1.31a29.81,29.81,0,0,0-3.36,2.07A12.15,12.15,0,0,0,479,536h.27l1.65-.12-2.07,2.47h5.61l-2.27,1.3a12.84,12.84,0,0,0-1.79,1.21,20.49,20.49,0,0,0,2.24.22h.18l.5,1.26a10.48,10.48,0,0,0-1.41,1.22l3.24.05-1.25,2.28,2.36-.11-1,2.83,3.18-.83-.57,1.31a9,9,0,0,0-.56,1.69l3.11-1.77v3.19l2.22-1.92.23,1.18a15.27,15.27,0,0,0,.68,2.53,2.34,2.34,0,0,0,.39-.65l.25-2.6,1.77,3.87a5.17,5.17,0,0,0,.82-1.92l1.34-.17a13.92,13.92,0,0,0,1,2.15l1.13-2.16.25.24a14.78,14.78,0,0,1-.16-2.51v0a14.84,14.84,0,0,0,0-3.37l1.27-.52.66,1.21a9.88,9.88,0,0,0-5.85-7.24c-.29-.13-6.74-2.88-8.42-9.22s-2.75-9.11-6.17-9.21c-3-.07-7.19-.5-9.25-.71a4.14,4.14,0,0,0,2.24,1.54M468,526.89c.32,0,.64,0,1,0a87.18,87.18,0,0,1-15.43-6,20.55,20.55,0,0,0,14.47,6m-7.15-5.62a18.28,18.28,0,0,0,6.83,1.63,7.81,7.81,0,0,0,1.92-.23,167.46,167.46,0,0,1-17.15-7.62,19.09,19.09,0,0,0,8.4,6.21m-2.4-6.29h0c.05,0,5.08,3.46,10.41,3.46h.27c-4.18-2.08-13.52-6.87-18.33-10.51,1,1.82,3.18,4.43,7.62,7" style="fill:none"/></clipPath><linearGradient id="ar" x1="-321" y1="359.2" x2="-311.84" y2="359.2" gradientTransform="matrix(-4.5, -1.66, -1.66, 4.5, -691.94, -1995.14)" gradientUnits="userSpaceOnUse"><stop offset="0" stop-color="#e64529"/><stop offset="0.42" stop-color="#e64529"/><stop offset="0.46" stop-color="#e74a29"/><stop offset="0.52" stop-color="#e85928"/><stop offset="0.58" stop-color="#eb6d27"/><stop offset="0.65" stop-color="#ef8626"/><stop offset="0.71" stop-color="#f5a521"/><stop offset="0.78" stop-color="#fccb11"/><stop offset="1" stop-color="#fccb11"/></linearGradient><clipPath id="as" transform="translate(-356.55 -390.8)"><path d="M518,564.9h-.71a4.31,4.31,0,0,1-1.23-.21,6.5,6.5,0,0,0,.72,1.74l-.32-1.57,1.59,1.47a4.38,4.38,0,0,0,1.43,1A3.23,3.23,0,0,1,519,566l-.11-1.18,1.07.48.31.11a2.29,2.29,0,0,1-.14-.55l-.11-1.15,1.07.46.27.11a5.89,5.89,0,0,1-1-1c-.14-.18-.29-.38-.41-.58l-1-.08a2.32,2.32,0,0,1-1-.32Z" style="fill:none"/></clipPath><linearGradient id="at" x1="-156.36" y1="239.97" x2="-147.19" y2="239.97" gradientTransform="matrix(0.58, 0, 0, -0.58, 249.8, 312.49)" xlink:href="#al"/><clipPath id="au" transform="translate(-356.55 -390.8)"><path d="M503,562.61l-1,.08c-.13.2-.27.4-.41.58a6.53,6.53,0,0,1-.95,1l.25-.11,1.07-.46-.11,1.15a1.92,1.92,0,0,1-.12.55l.29-.11,1.09-.48L503,566a3.81,3.81,0,0,1-.5,1.29,4.39,4.39,0,0,0,1.43-1l1.57-1.47-.3,1.59a6.59,6.59,0,0,0,.71-1.75,4.3,4.3,0,0,1-1.23.21h-.73l0-2.61a2.11,2.11,0,0,1-1,.32" style="fill:none"/></clipPath><linearGradient id="av" x1="-180.16" y1="239.92" x2="-171" y2="239.92" gradientTransform="matrix(0.58, 0, 0, -0.58, 248.02, 312.39)" xlink:href="#al"/><clipPath id="aw" transform="translate(-356.55 -390.8)"><path d="M507.24,590.63a33.67,33.67,0,0,0,1.32-7.86,59.66,59.66,0,0,0-1.32,7.86m9.34-4.15c-.34-1.25-.77-2.64-1.24-4a25.28,25.28,0,0,0,1.24,4M514.82,591a68.72,68.72,0,0,0-1.73-8.89,29.61,29.61,0,0,0,1.73,8.89m-10-2.94a24.18,24.18,0,0,0,1.72-6.21,45.63,45.63,0,0,0-1.72,6.21m6.28,6c.79-3.13.32-8.52-.23-12.44a32,32,0,0,0,.23,12.44m-9.8-5.57c4.83-4.24,4.83-11.46,4.83-11.46a41.76,41.76,0,0,0-4.83,11.46m13.79-18.81-.56,1.32-.44-.81c-.36,1.07-.72,2.31-.74,2.31l-1.36-.2a9.86,9.86,0,0,0-.95-3.15c-.36,1.06-.75,2.46-1,3.41l-1.38-.17a7.73,7.73,0,0,0-.61-2.57l-1.38,1.44v-1.73a1.86,1.86,0,0,0,0-.47c-.37,1.28-.75,2.85-1,4.14l.3-.32.14,1.76,1.27.38-.05.94.64-.87.45,1.2.73-2.42.9,2,.25-1.38,1.36,0,.32,1.42.89-1.88.82,2.7.73-1.23.16.29,0-3.07L516,575l.32-1.93.29.38a39,39,0,0,0-1.31-4.4c-.16.36-.25.64-.27.66" style="fill:none"/></clipPath><linearGradient id="ax" x1="-330.62" y1="332.04" x2="-321.47" y2="332.04" gradientTransform="matrix(0, -3.37, -3.37, 0, 1272.35, -905.61)" xlink:href="#al"/><clipPath id="ay" transform="translate(-356.55 -390.8)"><path d="M508.16,545.48l-.18-1.56-1.54.68a2.44,2.44,0,0,1-1.11.21,4.25,4.25,0,0,1-1.18-.18,23.24,23.24,0,0,1,.79,7.9l-.05,1.17-1-.6a8.13,8.13,0,0,1-.79-.62,9.68,9.68,0,0,0,1,2.47,7.7,7.7,0,0,1,1.05,3.46l1.07.16-.07,4a1.05,1.05,0,0,0,.59-.51l.66-2,.64,2a5.72,5.72,0,0,1,.09,2.43l.23-.07.05,1.34,1.18-.12.34,1.48A7.44,7.44,0,0,0,510,566l0-.71h2.23V566a6,6,0,0,0,.07,1.16l.34-1.48,1.2.13,0-1.34.23.07a6.12,6.12,0,0,1,.09-2.43l.66-2,.66,2a.93.93,0,0,0,.57.51l-.07-4,1.09-.16a7.26,7.26,0,0,1,1.05-3.46,10.28,10.28,0,0,0,1-2.47,10,10,0,0,1-.8.63l-1,.6-.07-1.17a23.31,23.31,0,0,1,.79-7.9,4.24,4.24,0,0,1-1.18.18,2.59,2.59,0,0,1-1.11-.21l-1.52-.69-.2,1.56-2.93-2Zm-2.38-2.38.59.21,1.59.48-.14-1.07a7.43,7.43,0,0,1-2,.38m8.48.7,1.59-.48.59-.21a7.53,7.53,0,0,1-2-.38Zm-11.93-2.53a7,7,0,0,0,.7.53l.57-.13a2,2,0,0,1-.77-.7,5.26,5.26,0,0,0-2-.78,8.05,8.05,0,0,1,1.47,1.08m17-.3a1.83,1.83,0,0,1-.75.69l.57.13a4.66,4.66,0,0,0,.68-.52,8.54,8.54,0,0,1,1.46-1.08,5.43,5.43,0,0,0-2,.78" style="fill:none"/></clipPath><linearGradient id="az" x1="-321.23" y1="335.31" x2="-312.08" y2="335.31" gradientTransform="matrix(0, -4.03, -4.03, 0, 1506.67, -1106.74)" xlink:href="#al"/><clipPath id="ba" transform="translate(-356.55 -390.8)"><path d="M505.61,476.39l5.74,6.14-6,.07a12.85,12.85,0,0,1,.57,4.49,5.86,5.86,0,0,1-2.45,4l2.72-.57L503.89,493a12.22,12.22,0,0,0,1.45-.74l2.49-1.54-.59,2.85a4.6,4.6,0,0,1-.45,1.22,6.48,6.48,0,0,0,1-.82l2.45-2.52-.46,5.58c.48-.49,1-1,1.49-1.55l1.46-1.67.66,2.09a4.39,4.39,0,0,0,.88,1,13.52,13.52,0,0,1,0-2.4c.09-1.31.27-2.6.27-2.6a11.08,11.08,0,0,0,1.57,2.39c1,1.17,1.14.88,1.7,1.09a6.89,6.89,0,0,1-.95-2.93,19.16,19.16,0,0,1-.11-2.71A16.16,16.16,0,0,0,518,491.6a6.7,6.7,0,0,0,3,1.67,8.2,8.2,0,0,1-1.07-1.93l1.43.07c-4-3.27-3.18-6.53-3.13-6.71l.79-2.76c-.16-2.93-1.09-3.81-1.39-4.12a1.19,1.19,0,0,1-.23-.24,1.31,1.31,0,0,1-.18-1.39,1.35,1.35,0,0,1,.77-.67c-1.59-2.45-6.51-2.67-6.57-2.67h-.05c-.32,0-.66,0-1-.06Z" style="fill:none"/></clipPath><linearGradient id="bb" x1="-307.2" y1="332.56" x2="-298.04" y2="332.56" gradientTransform="matrix(0, -3.59, -3.59, 0, 1349.89, -980.71)" xlink:href="#al"/><clipPath id="bc" transform="translate(-356.55 -390.8)"><path d="M532,532.52c-.4-2.12-1.07-4.89-1.75-7.46a8.41,8.41,0,0,0,1.75,7.46m7.1-.89a35.54,35.54,0,0,0-2.75-7c-.27,3.82,1.4,5.9,2.75,7m4.2-4.36a8.22,8.22,0,0,0,2.36,2.3l-3.52-5.88a7.73,7.73,0,0,0,1.16,3.58m9.87.24c-1.37-1.47-3.29-3.36-5.29-5.25a10.33,10.33,0,0,0,5.29,5.25m9.59-1.22a13.64,13.64,0,0,0-4.58-4.37,22.9,22.9,0,0,1-4.45-2.33c1.88,3.79,6.4,5.81,9,6.71m6.65-4.19c-2.27-2.27-6.81-5-10.84-7,1.73,3.81,7.35,6,10.84,7m8-3.94a9.11,9.11,0,0,0-3.24-2.63A90.45,90.45,0,0,1,563,511c2.81,4.42,10.48,6.39,14.36,7.13m3-7.21a65.14,65.14,0,0,0-7.31-3.11c-2.67-1-5.3-1.85-7.1-2.41,2.2,3.45,9.28,5,14.42,5.52m2.29-6a40.69,40.69,0,0,0,4.31-.25A131.61,131.61,0,0,0,570.08,501c3.25,3.2,8.48,3.93,12.63,3.93m-1-6.73a47.42,47.42,0,0,0,8.48-.87,176.28,176.28,0,0,0-17.76-1.46c2,1.54,5.08,2.33,9.28,2.33m-5-7.19a25.4,25.4,0,0,0,8.46,1.32,47.68,47.68,0,0,0,11.87-1.7h-2.45c-5.8,0-13.24.21-17.89.39m12.38-8a94,94,0,0,1-9.76,1.86,22,22,0,0,0,6.49.9c6.74,0,13.65-2.48,18.1-4.48a85.93,85.93,0,0,0-14.83,1.72m-5.42-5c1.27.12,2.54.17,3.78.17a39,39,0,0,0,21.6-6.63ZM564.19,461.6c-6.15.16-8.1,5.15-11.09,16.5S538.51,494.44,538,494.63a17.73,17.73,0,0,0-10.59,13.12c.18-.32.43-.17.66,0s.56.34.79-.08l1.46,1c-.29,1.06.45,2.06.57,3.83v.06a21,21,0,0,1-.3,4.49l.48-.41,2,3.87a27.63,27.63,0,0,0,1.81-3.85l2.4.31a9,9,0,0,0,1.46,3.44l1.24-2.67,2-4.28.41,4.67a4.08,4.08,0,0,0,.73,1.15,33.82,33.82,0,0,0,1.22-4.52l.39-2.13,4,3.46.41-4.49,5.19,1.94a17.8,17.8,0,0,0-1-3l-1-2.35L558,509.6l-1.75-5.09,4.22.18-2.22-4.09s2.49.15,4.06.11,1.72-.21,1.72-.21a17.82,17.82,0,0,0-2.47-2.39c-1.09-.82-2.54-1.68-2.54-1.68a56,56,0,0,0,7.73-.76,13,13,0,0,0-3.11-2.71c-1.61-1.06-3.16-2.17-3.16-2.17s3.54.29,5.58.48a16.8,16.8,0,0,0,3.47-.1,14.82,14.82,0,0,0-2.38-3l-1.63-1.52a18.63,18.63,0,0,0,3.74.29,23.75,23.75,0,0,0,3.88-.47,64.7,64.7,0,0,0-5.56-3.67l-3.42-2c.7.08,4-.25,5.87-.31a39.86,39.86,0,0,0,5.74-.54,37.39,37.39,0,0,0-4.93-3L567,475.25l3.95-.29a38,38,0,0,0,8.16-1.43,36,36,0,0,0-3.77-2.19,28.33,28.33,0,0,0-3.79-1.35,31.77,31.77,0,0,0,4.11-.68,29.08,29.08,0,0,0,6.67-2.62,55.22,55.22,0,0,0-5.42-1.19l-4.92-.67a33.65,33.65,0,0,0,4.76-1.57,8.28,8.28,0,0,0,4-3,116,116,0,0,1-16.58,1.3m22.95,9c.59,0,1.16,0,1.73,0a36.86,36.86,0,0,0,25.95-10.78,156.27,156.27,0,0,1-27.68,10.75M586,463.11a14.79,14.79,0,0,0,3.45.38,33,33,0,0,0,12.23-2.9c8.33-3.46,13.23-8,15.45-11.12-17.58,8.63-26.93,12.17-31.13,13.64m.73-7.56.52,0c9.53,0,18.58-6.16,18.67-6.22l0,0,0,0c7.94-4.65,11.8-9.33,13.65-12.59-8.64,6.52-25.38,15.1-32.91,18.83" style="fill:none"/></clipPath><linearGradient id="bd" x1="-258.62" y1="301.69" x2="-249.46" y2="301.69" gradientTransform="matrix(1.2, -1.03, -1.03, -1.2, 803.85, 217.45)" gradientUnits="userSpaceOnUse"><stop offset="0" stop-color="#e64529"/><stop offset="0.28" stop-color="#e64529"/><stop offset="0.5" stop-color="#eb6928"/><stop offset="0.93" stop-color="#f7a721"/><stop offset="1" stop-color="#f7a721"/></linearGradient><clipPath id="be" transform="translate(-356.55 -390.8)"><path d="M492,532.54a8.44,8.44,0,0,0,1.75-7.48c-.7,2.57-1.38,5.37-1.75,7.48m-7.12-.91c1.38-1.06,3-3.15,2.77-7a34.73,34.73,0,0,0-2.77,7m-6.55-2.06a8.22,8.22,0,0,0,2.36-2.3,7.53,7.53,0,0,0,1.14-3.58Zm-7.46-2.11a10.44,10.44,0,0,0,5.2-5.18c-2,1.86-3.85,3.72-5.2,5.18m-5.08-5.54a13.57,13.57,0,0,0-4.58,4.38c2.65-.89,7.19-2.91,9-6.71a23.14,23.14,0,0,1-4.47,2.33m-11.21.18c3.49-1,9.1-3.2,10.84-7-4,2-8.58,4.74-10.84,7m-3.5-7.16a10.67,10.67,0,0,0-4.49,3.23c5.15-.78,11.57-2.69,14.36-7.13-3.29,1.88-4.31,2.09-9.87,3.9m-.2-7.1a64.91,64.91,0,0,0-7.33,3.12c5.13-.54,12.19-2.07,14.41-5.52-1.81.56-4.44,1.41-7.08,2.4m-13.95-3.1a41.32,41.32,0,0,0,4.33.25c4.15,0,9.37-.73,12.63-3.93a131.82,131.82,0,0,0-17,3.68m-3.17-7.35a47.93,47.93,0,0,0,8.48.87c4.22,0,7.33-.79,9.28-2.33-1.23-.07-2.56-.12-3.86-.12a54.55,54.55,0,0,0-13.9,1.57m-6.85-6.71a47.85,47.85,0,0,0,11.89,1.7,25.38,25.38,0,0,0,8.46-1.32c-4.65-.19-12.09-.39-17.9-.39h-2.45m11.25-4.82a22.09,22.09,0,0,0,6.49-.9,95.73,95.73,0,0,1-9.78-1.86,85.53,85.53,0,0,0-14.83-1.72c4.47,2,11.37,4.48,18.12,4.48m-1.63-7.61c1.23,0,2.5-.06,3.77-.17L414.9,471.6a39.08,39.08,0,0,0,21.64,6.63M446.66,463a33.49,33.49,0,0,0,4.74,1.59,62.78,62.78,0,0,0-9.75,2.08,46.5,46.5,0,0,0,6.67,2.62,26.12,26.12,0,0,0,3.45.81s-1.52.57-3,1.27-2.76,1.45-4,2.14a73.89,73.89,0,0,0,12.22,1.65A66.37,66.37,0,0,0,448,480c5.15.66,11.84.73,11.84.73s-6.22,3.37-9,5.78a26.54,26.54,0,0,0,7.33.27,23.37,23.37,0,0,0-2.4,2.26,17,17,0,0,0-1.63,2.19,13.36,13.36,0,0,0,3.31.26c2.61,0,7.22-.11,7.22-.11a37,37,0,0,0-4.65,2.31,24.33,24.33,0,0,0-2.81,2,27.15,27.15,0,0,0,4,.42c1.9.08,4.15,0,4.2,0s-2,1.24-3,2a21.21,21.21,0,0,0-2.45,2.37,16.59,16.59,0,0,0,2.84.22c1.16,0,3.36-.21,3.36-.21s-.31.38-1.09,1.51-1.57,2.66-1.57,2.66l4.24-.18L466,509.6l5.69-1.49-1,2.35a16.38,16.38,0,0,0-1,3l5.51-2,.09,4.54,4-3.46.41,2.13a32.07,32.07,0,0,0,1.22,4.52,3.89,3.89,0,0,0,.71-1.14l.43-4.67,3.18,6.94a9.05,9.05,0,0,0,1.48-3.44l2.4-.31a28.1,28.1,0,0,0,1.81,3.85l2-3.87.47.41a22.57,22.57,0,0,1-.29-4.49v-.06a29.07,29.07,0,0,0-.05-6l2.31-.92c.43.8.81,1.51,1.16,2.16a17.75,17.75,0,0,0-10.5-13c-.5-.19-12.11-5.15-15.09-16.53s-4.94-16.64-11.09-16.5a68.09,68.09,0,0,1-16.58-1.3,7.84,7.84,0,0,0,3.47,2.72m-11.57,7.65h0c.57,0,1.14,0,1.72,0a156,156,0,0,1-27.67-10.75,36.83,36.83,0,0,0,25.95,10.78M422.25,460.6a33,33,0,0,0,12.23,2.9,14.76,14.76,0,0,0,3.45-.38c-4.2-1.47-13.43-4.91-31-13.56,2.22,3.08,6.94,7.56,15.34,11m-4.31-11.29,0,0,0,0c.09.06,9.12,6.49,18.69,6.49,0,0,1,0,1.16,0-7.51-3.73-24.93-12.61-33.57-19.13,1.84,3.26,5.69,7.95,13.64,12.59" style="fill:none"/></clipPath><linearGradient id="bf" x1="-331.8" y1="342.91" x2="-322.64" y2="342.91" gradientTransform="matrix(-1.27, -1.16, -1.16, 1.27, 103.09, -698.26)" xlink:href="#bd"/><clipPath id="bg" transform="translate(-356.55 -390.8)"><path d="M524.72,538.85l-1.29,0a7.62,7.62,0,0,1-2.22-.35,11.48,11.48,0,0,0,1.27,3.08l-.56-2.8,2.85,2.66a8.4,8.4,0,0,0,2.56,1.69,6.2,6.2,0,0,1-.9-2.31l-.18-2.11,1.93.86a5.29,5.29,0,0,0,.55.19,3,3,0,0,1-.25-1l-.2-2.06,1.93.81.46.18a10.76,10.76,0,0,1-1.73-1.75,7.48,7.48,0,0,1-.71-1l-1.77-.12a6.19,6.19,0,0,1-1.81-.59Z" style="fill:none"/></clipPath><linearGradient id="bh" x1="-216.19" y1="313.37" x2="-207.04" y2="313.37" gradientTransform="matrix(1.04, 0, 0, -1.04, 388.49, 472.27)" xlink:href="#al"/><clipPath id="bi" transform="translate(-356.55 -390.8)"><path d="M497.69,534.76l-1.75.12a10.9,10.9,0,0,1-.73,1,10,10,0,0,1-1.73,1.75l.48-.18,1.91-.81-.18,2.06a4.22,4.22,0,0,1-.27,1,4,4,0,0,0,.54-.19l2-.86-.21,2.11a6,6,0,0,1-.88,2.31,8.48,8.48,0,0,0,2.58-1.69l2.83-2.66-.57,2.84a12,12,0,0,0,1.3-3.13,7.83,7.83,0,0,1-2.23.35l-1.29,0,.07-4.69a4.38,4.38,0,0,1-1.82.59" style="fill:none"/></clipPath><linearGradient id="bj" x1="-240.11" y1="313.38" x2="-230.94" y2="313.38" gradientTransform="matrix(1.04, 0, 0, -1.04, 385.62, 472.44)" xlink:href="#al"/><clipPath id="bk" transform="translate(-356.55 -390.8)"><path d="M505.34,585a53.1,53.1,0,0,0,2.34-14.11A59.52,59.52,0,0,0,505.34,585m13.86.76c-.44-4.65-2.11-11-3.4-16.07.14,6.08,2,12,3.4,16.07M501,580.41A44.36,44.36,0,0,0,504,569.25,71.83,71.83,0,0,0,501,580.41m10.71,9.49a65.27,65.27,0,0,0,.11-21c-1.77,9.64-.88,14.25-.11,21m10.41-12.31a44.86,44.86,0,0,0-2.72-8.82,20.62,20.62,0,0,0,2.72,8.82m-24.59-1.64a28.67,28.67,0,0,0,3.68-9.07,75.62,75.62,0,0,0-3.68,9.07m29.29.13a81.65,81.65,0,0,0-3.83-9.21,30.21,30.21,0,0,0,3.83,9.21m-7.44-28.62-1,2.35-.82-1.44c-.63,1.91-1.29,4.11-1.29,4.14l-2.45-.35a17.92,17.92,0,0,0-1.7-5.66c-.66,1.9-1.34,4.43-1.77,6.12l-2.45-.3a13.77,13.77,0,0,0-1.11-4.61l-2.47,2.56v-3.12c0-.3,0-.56,0-.84-.7,2.31-1.36,5.12-1.88,7.45l.54-.59.27,3.18h2l0,2.49,1.21-1.23.86,1.69,1.34-4.36,1.57,3.53.46-2.5,2.43,0,.59,2.57,1.61-3.37,1.32,4.47.81-2.16,1,1-.14-5.7,2.79,4.18.55-3.45.5.67a64.75,64.75,0,0,0-2.32-7.89c-.27.64-.47,1.14-.48,1.19" style="fill:none"/></clipPath><linearGradient id="bl" x1="-318.32" y1="341.33" x2="-309.17" y2="341.33" gradientTransform="matrix(0, -5.88, -5.88, 0, 2162.54, -1661.48)" gradientUnits="userSpaceOnUse"><stop offset="0" stop-color="#e64529"/><stop offset="0.2" stop-color="#e64529"/><stop offset="0.29" stop-color="#e74a29"/><stop offset="0.41" stop-color="#e85928"/><stop offset="0.53" stop-color="#eb6d27"/><stop offset="0.67" stop-color="#ef8626"/><stop offset="0.8" stop-color="#f5a521"/><stop offset="0.94" stop-color="#fccb11"/><stop offset="1" stop-color="#fccb11"/></linearGradient><clipPath id="bm" transform="translate(-356.55 -390.8)"><path d="M507,504l-.36-2.78a13.36,13.36,0,0,1-1.75.84,7.52,7.52,0,0,1-3,.74,7.11,7.11,0,0,1-2.13-.32c.86,2.73,1.72,7.3,1.39,14.19l-.09,2.11-1.81-1.09a11.83,11.83,0,0,1-1.45-1.11,17.67,17.67,0,0,0,1.79,4.4,14.08,14.08,0,0,1,1.89,6.22l1.93.29-.14,7.19a1.64,1.64,0,0,0,1-.9l1.2-3.49,1.18,3.5a10.88,10.88,0,0,1,.14,4.35l.43-.12.07,2.4,2.14-.22.59,2.65a11,11,0,0,0,.16-2.08v-1.28h4l0,1.28a12.34,12.34,0,0,0,.16,2.08l.59-2.65,2.15.22.07-2.4.43.12a10.37,10.37,0,0,1,.16-4.35l1.16-3.5,1.2,3.49a1.61,1.61,0,0,0,1,.91l-.14-7.2,1.93-.29A14.11,14.11,0,0,1,524.9,521a17.44,17.44,0,0,0,1.79-4.41,11.28,11.28,0,0,1-1.45,1.12l-1.81,1.09-.09-2.11a41.2,41.2,0,0,1,1.41-14.19,7.2,7.2,0,0,1-2.15.32,8.12,8.12,0,0,1-3-.63l-1.66-1-.36,2.78-5.28-3.6Zm-4.27-4.25c.41.15.79.29,1.06.37l2.84.89-.25-1.92a14.3,14.3,0,0,1-3.65.66M517.95,501l2.82-.88c.27-.08.64-.21,1.06-.37a14.44,14.44,0,0,1-3.65-.66Zm-21.41-4.54a10.5,10.5,0,0,0,1.23,1l1-.23a3.61,3.61,0,0,1-1.38-1.24,9.59,9.59,0,0,0-3.52-1.42,14.22,14.22,0,0,1,2.63,1.94m30.58-.52a3.66,3.66,0,0,1-1.36,1.23l1,.23a8,8,0,0,0,1.22-.95,14.94,14.94,0,0,1,2.63-1.94,9.46,9.46,0,0,0-3.52,1.42" style="fill:none"/></clipPath><linearGradient id="bn" x1="-310.73" y1="343.87" x2="-301.57" y2="343.87" gradientTransform="matrix(0, -7.23, -7.23, 0, 2643.27, -2073.79)" gradientUnits="userSpaceOnUse"><stop offset="0" stop-color="#e64529"/><stop offset="0.4" stop-color="#e64529"/><stop offset="0.47" stop-color="#e74a29"/><stop offset="0.55" stop-color="#e85928"/><stop offset="0.64" stop-color="#eb6d27"/><stop offset="0.74" stop-color="#ef8626"/><stop offset="0.84" stop-color="#f5a521"/><stop offset="0.94" stop-color="#fccb11"/><stop offset="1" stop-color="#fccb11"/></linearGradient></defs><title>Sunrisers Hyderabad logo - Brandlogos.net</title><g style="clip-path:url(#a)"><polygon points="169.21 72.82 191.48 74.12 193.03 47.53 170.75 46.24 169.21 72.82" style="fill:url(#b)"/></g><g style="clip-path:url(#c)"><polygon points="167.32 151.47 181.09 152.28 183.18 116.47 169.39 115.66 167.32 151.47" style="fill:url(#d)"/></g><g style="clip-path:url(#e)"><polygon points="176.87 133.25 208.13 135.08 209.79 106.59 178.53 104.76 176.87 133.25" style="fill:url(#f)"/></g><g style="clip-path:url(#g)"><polygon points="183.52 112.68 219.81 114.8 220.84 97.23 184.56 95.11 183.52 112.68" style="fill:url(#h)"/></g><g style="clip-path:url(#i)"><polygon points="177.94 80.88 205.67 82.5 207.11 57.97 179.37 56.35 177.94 80.88" style="fill:url(#j)"/></g><g style="clip-path:url(#k)"><polygon points="160.16 66.31 176.85 67.28 178.55 38.13 161.88 37.15 160.16 66.31" style="fill:url(#l)"/></g><g style="clip-path:url(#m)"><polygon points="129.42 70.25 144.44 71.13 146.3 39.19 131.3 38.31 129.42 70.25" style="fill:url(#n)"/></g><g style="clip-path:url(#o)"><polygon points="103.36 80.28 134.86 82.11 136.36 56.37 104.87 54.52 103.36 80.28" style="fill:url(#p)"/></g><g style="clip-path:url(#q)"><polygon points="91.71 90.34 127.58 92.43 128.56 75.8 92.69 73.7 91.71 90.34" style="fill:url(#r)"/></g><g style="clip-path:url(#s)"><polygon points="91.35 105.84 127.1 107.93 128.04 91.65 92.3 89.56 91.35 105.84" style="fill:url(#t)"/></g><g style="clip-path:url(#u)"><polygon points="110.59 148.02 142.62 149.89 144.71 114.08 112.68 112.22 110.59 148.02" style="fill:url(#v)"/></g><g style="clip-path:url(#w)"><polygon points="92.1 117.65 131.69 119.97 132.53 105.43 92.94 103.12 92.1 117.65" style="fill:url(#x)"/></g><g style="clip-path:url(#y)"><polygon points="131.37 153.93 153.12 155.2 155.05 122.03 133.3 120.77 131.37 153.93" style="fill:url(#z)"/></g><g style="clip-path:url(#aa)"><polygon points="154.23 151.64 168.01 152.45 169.77 122.36 155.98 121.56 154.23 151.64" style="fill:url(#ab)"/></g><g style="clip-path:url(#ac)"><polygon points="183.64 94.73 215.6 96.6 216.44 82.19 184.48 80.33 183.64 94.73" style="fill:url(#ad)"/></g><g style="clip-path:url(#ae)"><polygon points="144.78 64.35 159.5 65.21 161.18 36.58 146.46 35.71 144.78 64.35" style="fill:url(#af)"/></g><g style="clip-path:url(#ag)"><polygon points="122.86 123.29 185.18 126.92 188.78 65.42 126.44 61.78 122.86 123.29" style="fill:url(#ah)"/></g><g style="clip-path:url(#ai)"><polygon points="93.03 145.31 212.74 152.29 219.16 42.17 99.45 35.17 93.03 145.31" style="fill:url(#aj)"/></g><path d="M480.95,470.81s-7.19-6.78-7.42-6.86c-.57-.18-3.09,6-2.66,6.36.16,0,10.09.5,10.09.5m-11.77,25.06c-.52.25,1.07,5.28,1.63,5.23.12-.09,7.83-4.12,7.83-4.12s-9.23-1.22-9.46-1.11M480.86,516c.09-.32,4.88-8.44,4.88-8.44s-10.69.74-10.82,1c-.18.45,5.29,7.38,5.94,7.42m8.92,6.81c0,.39,3.72,2.5,4.22,2.3.3-.35,2.29-7.14,2.29-7.14s-6.46,4.27-6.51,4.85m15.49,5.62c.14.49,5.92.91,6.35.42.14-.57-1.95-9-1.95-9s-4.63,7.91-4.4,8.57m17.74-.62c.25.31,4.59-.92,4.81-1.41,0-.46-3.38-6.38-3.38-6.38s-1.79,7.35-1.43,7.79m25.07-28.38s3.74,5.65,3.83,5.64c.54,0,2.79-5.95,2.61-6.28-.14-.05-6.44.64-6.44.64m-9.17,21c.71.25,7.19-6,7.19-6.52-.36-.35-8.55-3.15-8.55-3.15s.72,9.43,1.36,9.66m17.61-36.94c-.14,0-5.79,3.34-5.79,3.34s5.48,3.69,5.55,3.66c.5-.23.53-6.76.25-7m-1.36-10.32c.34-.6-3.59-9.61-4-9.76-.12.07-3.33,7-3.33,7s7.28,2.91,7.33,2.81m-13.82-14.1s6.08-1.46,6-1.51a49.26,49.26,0,0,0-4.56-5.13c-.09.11-1.48,6.64-1.48,6.64m-10.57-9s4.72-3,4.69-3a12.79,12.79,0,0,0-4.26-2.44c-.05.12-.43,5.46-.43,5.46m-50.9,4.52c.2.22,9.85,4,9.85,4s-1.68-10.94-1.81-10.84c-3.11,2.39-5.56,3.9-8,6.8m31.89-14.16c0,.24,6.53,8.3,6.53,8.3s6.11-6.7,6-6.72c-4.47-1.22-9.44-1.92-12.57-1.58m-9.6,1.08a59.31,59.31,0,0,0-7.23,2.45c-.21.09,6.17,4.92,6.17,4.92s1.38-7.47,1.06-7.37M468,478.84c-.59,0-1.06,5.81-.54,6,.16,0,8-2.7,8-2.7s-7.21-3.28-7.46-3.27" transform="translate(-356.55 -390.8)" style="fill:#ea5e28"/><path d="M472.43,469.11c.27,0,5.85.47,5.85.47s-4.06-3.74-4.38-4-1.95,3.43-1.47,3.53m-3.65,11.11c-.46-.16-.64,3.21-.16,3.13.27-.06,5.38-1.4,5.38-1.4l-5.22-1.73m1.73,16.88c-.48,0,.41,2.93.84,2.66.21-.15,4.26-2.24,4.26-2.24s-4.67-.46-5.1-.43M480.57,514c.27-.51,3.33-5.36,3.33-5.36s-6.35.57-6.94.71,3.38,5.07,3.61,4.66m10.76,8.62c-.28.32,1.86,1.64,2.11,1.31.06-.07,1.29-3.87,1.29-3.87a39.78,39.78,0,0,0-3.4,2.56m15.6,4.64c0,.44,3.06.79,3.29.42.07-.1-1.09-4.75-1.09-4.75a32.24,32.24,0,0,0-2.2,4.33m17.26-.8c0,.43,2.31-.15,2.25-.56,0-.1-1.68-3.57-1.68-3.57s-.59,3.4-.57,4.13M539.51,518c.2.38,4.45-3.38,4.24-3.75,0-.08-4.94-1.93-4.94-1.93a45.81,45.81,0,0,0,.7,5.68m10.27-17.83s1.61,2.58,1.9,2.82,1.57-3,1.32-3.2c0,0-3.22.38-3.22.38m5.78-15c-.05,0-3.07,1.67-3.07,1.67s2.6,1.9,2.93,2,.43-3.61.14-3.67m-4.27-19.4c-.07,0-1.95,4-1.95,4a43.14,43.14,0,0,0,4.13,1.52c.34,0-1.88-5.59-2.18-5.52m-8.12-11.26c-.05,0-.68,3.4-.68,3.4s2.61-.62,2.92-.79-2-2.76-2.24-2.61M531.81,446s-.18,2.73-.18,2.73,2-1.38,2.25-1.57-1.91-1.34-2.08-1.15m-49.61,8.19c.07.13,6.17,2.8,6.17,2.8s-1-6-1.16-6.77c-.11-.57-5.26,3.48-5,4M514,441.55c0,.11,4.18,5.78,4.18,5.78s3.92-4.48,3.88-4.75c-.06-.46-7.94-1.47-8.06-1m-13.45,5.52.38-4.23-3.86,1.2Z" transform="translate(-356.55 -390.8)" style="fill:#f29524"/><path d="M539.5,465.34a9.84,9.84,0,0,0,.86,1.33,22.22,22.22,0,0,1,8.17-5.87,23.92,23.92,0,0,0-9,4.54" transform="translate(-356.55 -390.8)" style="fill:#fedc32"/><path d="M541.39,448.18c-5.54,4.06-6.63,2.13-10.68,8.61a31.87,31.87,0,0,1,2.66,1.79c2.49-6.31,5.06-6.16,8-10.4" transform="translate(-356.55 -390.8)" style="fill:#fedc32"/><path d="M532.22,511.83c-.5.28-2.31,1.6-2.31,1.6,2.88,6.53.86,11.43,2.1,16.67-.36-6.22,3.5-10.81.21-18.27" transform="translate(-356.55 -390.8)" style="fill:#fedc32"/><path d="M545.13,492.71a30.76,30.76,0,0,1,13.32,3.61,25,25,0,0,0-12.93-5.72,16.46,16.46,0,0,1-.39,2.1" transform="translate(-356.55 -390.8)" style="fill:#fedc32"/><path d="M541.55,501.49c-.25.52-1.41,2.39-1.41,2.39,2.77,1.27,8.8,5.08,12,9.43-2.26-5-6.87-10-10.62-11.82" transform="translate(-356.55 -390.8)" style="fill:#fedc32"/><path d="M523.35,453.26a18.3,18.3,0,0,1,3-7c-1.79,2-3.26,3.35-4.46,6.41a8.15,8.15,0,0,0,1.41.55" transform="translate(-356.55 -390.8)" style="fill:#fedc32"/><path d="M495.92,455.2c-3.86-6.25-3.68-7.57-4.47-11.59.16,6,.61,8.33,2.34,12.82a14.83,14.83,0,0,1,2.13-1.23" transform="translate(-356.55 -390.8)" style="fill:#fedc32"/><path d="M486.69,462.34c-8.6-5.49-10.41-2.81-17.72-5.53,5.42,4.37,6.53.88,15.06,8.82a31.76,31.76,0,0,1,2.66-3.29" transform="translate(-356.55 -390.8)" style="fill:#fedc32"/><path d="M479.34,475.85c-8.17-.24-11.46-2.6-15-4.6,4.67,4.08,6.39,5.93,14.54,6.9a9.74,9.74,0,0,1,.5-2.31" transform="translate(-356.55 -390.8)" style="fill:#fedc32"/><path d="M479.34,492.4a22.69,22.69,0,0,1-1-4.88c-7,2.88-12.95.46-17.83,1.9,7-.05,10,3.84,18.81,3" transform="translate(-356.55 -390.8)" style="fill:#fedc32"/><path d="M482.84,500.82c-4.61,2.8-8.76,3.63-15.29,4.07,3.7.83,12.2.31,16.24-2.64a6.32,6.32,0,0,1-.95-1.43" transform="translate(-356.55 -390.8)" style="fill:#fedc32"/><path d="M478.41,523.87c2.16-2.18,14-6.92,15.58-11.16,0,0-2.38-1.53-3.15-2.09-3.17,6.49-7.17,6.9-12.43,13.25" transform="translate(-356.55 -390.8)" style="fill:#fedc32"/><path d="M496.92,527.73a26.18,26.18,0,0,0,8-10.38,16,16,0,0,1-2.07-.54c-1.31,4.69-3.29,6.76-6,10.92" transform="translate(-356.55 -390.8)" style="fill:#fedc32"/><path d="M520.59,517.13a12.74,12.74,0,0,1-4.31.8c1.22,5.78-1.47,8.65.52,13.73-.25-5.22,4.18-8.26,3.79-14.52" transform="translate(-356.55 -390.8)" style="fill:#fedc32"/><path d="M544.61,476a20.77,20.77,0,0,1,1.06,4.88c6-2.33,10.44.2,15.49-1.56-6,0-10.55-4-16.54-3.32" transform="translate(-356.55 -390.8)" style="fill:#fedc32"/><path d="M507.75,451.17c-.07.08,3.83-.15,3.83-.15-.32-5-4.67-7.76-4.92-12.59-1.61,5.48,1.7,7,1.09,12.74" transform="translate(-356.55 -390.8)" style="fill:#fedc32"/><polygon points="143.53 55.04 143.57 52.98 141.9 53.53 143.53 55.04" style="fill:#fccb11"/><polygon points="161.65 55.35 164.13 52.25 159.18 51.61 161.65 55.35" style="fill:#fccb11"/><path d="M483.79,453.82l3.67,2-1-4.23a7.16,7.16,0,0,0-1.77,1.25c-.37.36-.91,1-.91,1" transform="translate(-356.55 -390.8)" style="fill:#fccb11"/><polygon points="175.52 57.15 176.56 56.3 175.63 55.78 175.52 57.15" style="fill:#fccb11"/><polygon points="186.93 64.69 186.56 66.44 188.1 66 186.93 64.69" style="fill:#fccb11"/><polygon points="193.84 78.68 195.98 79.52 194.8 76.55 193.84 78.68" style="fill:#fccb11"/><polygon points="198.5 95.33 197.04 96.15 198.45 96.99 198.5 95.33" style="fill:#fccb11"/><polygon points="195.13 111.17 195.66 109.77 194.23 109.98 195.13 111.17" style="fill:#fccb11"/><polygon points="183.57 125.99 185.95 123.86 183.18 122.82 183.57 125.99" style="fill:#fccb11"/><polygon points="168.3 135.13 169.18 134.91 168.46 133.34 168.3 135.13" style="fill:#fccb11"/><polygon points="151.29 136.09 152.92 136.27 152.35 133.78 151.29 136.09" style="fill:#fccb11"/><polygon points="136.5 132.38 137.09 130.7 135.63 131.9 136.5 132.38" style="fill:#fccb11"/><polygon points="123.79 122.03 125.92 118.7 121.68 119.17 123.79 122.03" style="fill:#fccb11"/><polygon points="114.95 108.17 117.15 107.07 114.59 107 114.95 108.17" style="fill:#fccb11"/><polygon points="112.61 91.68 115.24 91.04 112.7 90.3 112.61 91.68" style="fill:#fccb11"/><polygon points="116.87 77.56 119.73 77.94 117.48 75.91 116.87 77.56" style="fill:#fccb11"/><path d="M625.33,442l-5.26,2c5.13-7.5,5.13-16.7,5.13-16.72v-.39l-.27.28s-2.76,2.69-5.06,4.6A60.54,60.54,0,0,1,613,437c-8.4,5.35-21,12.36-24.82,14a53.48,53.48,0,0,0-7.08,3.83,17.93,17.93,0,0,1-5.17,2.58,40.31,40.31,0,0,1-7.73.87l-2.47-.05c-11.27,0-13.61,9.87-14.85,15.09-2.09,8.83-6.06,12.72-8.24,14.26a26.74,26.74,0,0,1-5.88,3,11.23,11.23,0,0,0-1.82-.15,19.51,19.51,0,0,0-5.33.92l-1,.26a13.76,13.76,0,0,1-2.32-.92A13.17,13.17,0,0,1,523.2,489c.29,0,.71-.08,1.05-.15a2.31,2.31,0,0,0,1.45-.59l.11-.14-.16-.11a10.18,10.18,0,0,1-2.54-2.33,4.82,4.82,0,0,1-.93-2.75v-.39a12.62,12.62,0,0,0-.63-4.17l0-1.31v-.25c0-5.49-6.46-7.18-10.3-7.33h-.36c-6.42,0-9.82,1.89-11.46,3.33a5.65,5.65,0,0,0-1.79-.28,5.8,5.8,0,0,0-3.24.73A5.53,5.53,0,0,0,492,476.5a7.12,7.12,0,0,0-.21,1.66,7.58,7.58,0,0,0,1.56,4.32,28.13,28.13,0,0,0,3.5,3.93l.39.36-.12-.51a11.67,11.67,0,0,1-.21-2.15v-.21a7.05,7.05,0,0,1,.11-1.24v0a2.18,2.18,0,0,0,1,.25h.14c.64,0,1.46-.19,2.25-.22h.18a8.64,8.64,0,0,1,1.07.09,8.35,8.35,0,0,1,.5,2.68,4.33,4.33,0,0,1-.7,2.44c-1.74,2.63-6.62,3.07-7.69,3.13a27.47,27.47,0,0,0-3.92-.68,9.55,9.55,0,0,0-1.11-.06,5.87,5.87,0,0,0-1.84.26,26.21,26.21,0,0,1-5.63-3c-2.16-1.55-6.15-5.44-8.25-14.26-1.24-5.22-3.58-15.09-14.84-15.09l-.86,0h-.52a48,48,0,0,1-8.8-.84,28.13,28.13,0,0,1-5.2-2.58,52.19,52.19,0,0,0-7.06-3.83c-4-1.64-17.44-9-25.72-14.53a64.64,64.64,0,0,1-8.14-6.43,37.29,37.29,0,0,1-2.83-2.88l-.29-.32,0,.43v.17a31.19,31.19,0,0,0,1.34,8.57,29.06,29.06,0,0,0,3.88,8.06l-5.35-3.29.14.43a54.62,54.62,0,0,0,6.28,12.45l-.25-.15-6.12-3.92,3.09,6.57A37,37,0,0,0,410,466.91l-5.26-.91,3.27,4.25a34.21,34.21,0,0,0,8.19,7.33l-5.78.88,2.54,2.87a28,28,0,0,0,9,6.22l-6.47,1.13,3.86,2.89a27.18,27.18,0,0,0,8.42,4A4.94,4.94,0,0,0,426,498l0,.13,1.75,1.13a26.36,26.36,0,0,0,5.65,2.67,8,8,0,0,0-2.25,2.39l-1,1.73,1.7,1.06a17.58,17.58,0,0,0,7.42,2.08,9,9,0,0,0-1.29,2.65l-.52,1.67,1.54.8a12.23,12.23,0,0,0,5.33.95h.3a9.19,9.19,0,0,0-2.17,4.14l-.41,2.35,2.38.1s.46,0,1.27,0a38.2,38.2,0,0,0,5-.31,12,12,0,0,0-.66,2l-.68,2.83,2.9-.27.23,0,.44.62a19.57,19.57,0,0,0,4.44,4l-3.17.47,1.52,1.71a14.75,14.75,0,0,0,4.83,3.38l-3.54.62,2.29,1.72a9.69,9.69,0,0,0,4.11,2.32,1.77,1.77,0,0,0-.45.6l-.38.95.84.56a15.06,15.06,0,0,0,3,1.45,4.49,4.49,0,0,0-1.16,1.28l-.59,1,1.32.79a7.81,7.81,0,0,0,3.75,1.14,6,6,0,0,0-.66,1.39l-.29,1,.91.49a7.08,7.08,0,0,0,3,.52,4.79,4.79,0,0,0-1,2.22l-.25,1.39,1.39.06s.29,0,.72,0a20,20,0,0,0,2.66-.17,6.73,6.73,0,0,0-.32,1l-.39,1.67,1.84-.16a15,15,0,0,0,2.81-.47,3.63,3.63,0,0,0,0,2.08l.29.93,1-.06h.18a10.45,10.45,0,0,0,3.06-.46,3.32,3.32,0,0,0,.13.54l.16.82h1s.57.05,1.32.05c.5,0,.93,0,1.34,0a3.09,3.09,0,0,0,.43,0l-.25.93,1.2.21s.29,0,.64,0a11.08,11.08,0,0,0,2.09-.19c-1.29,1.8-2.56,3.43-3.68,4.77-2.43,2.89-4.18,4.55-4.18,4.56l4.72,8.53,7.22,6.31,4.65,7.21,10.12,3.22,10.09-3.22,4.65-7.26,7.15-6.29,4.83-8.6a24.08,24.08,0,0,1-3.38-3.47,59.76,59.76,0,0,1-4.15-5.65h.05a4,4,0,0,0,.65,0l1.46-.12,0-.19s-.14-.66-.2-1a11.21,11.21,0,0,0,1.66.08c.75,0,1.32,0,1.34,0l1.11-.08.2-1a.49.49,0,0,0,0-.21,12.93,12.93,0,0,0,3,.61l1.25.11.29-1.18a2.55,2.55,0,0,0,.15-.88,3.12,3.12,0,0,0-.18-1,15.26,15.26,0,0,0,2.61.47l1.93.19-.45-1.9a6.86,6.86,0,0,0-.2-.74,17.83,17.83,0,0,0,2.45.13h.71l1.7,0-.41-1.66a4,4,0,0,0-.86-2h0a4.83,4.83,0,0,0,2.72-.61l.91-.48-.27-1.21a4.32,4.32,0,0,0-.56-1.21,7.89,7.89,0,0,0,3.77-1.14l1.38-.68-.73-1.25a3.25,3.25,0,0,0-.88-1.08,9.91,9.91,0,0,0,2.68-1.37l.84-.56-.3-1.11a1.72,1.72,0,0,0-.43-.62,11.81,11.81,0,0,0,4.26-2.19l2.29-1.72-3.52-.62a15.45,15.45,0,0,0,4.83-3.38l1.5-1.71-3.17-.47.16-.1,1.4.06.43-1.45a19.53,19.53,0,0,0,2.45-2.51l.68-.89c1.15.21,1.9.29,2.06.29l2.91.27-.7-2.83a12.06,12.06,0,0,0-.66-2,38,38,0,0,0,5,.31c.79,0,1.27,0,1.27,0l2.38-.1-.43-2.35a9,9,0,0,0-2.14-4.14h.3a12.14,12.14,0,0,0,5.33-.95l1.54-.8-.52-1.67a8.93,8.93,0,0,0-1.29-2.65,17.31,17.31,0,0,0,7.4-2.08l1.72-1.06-1-1.73a8,8,0,0,0-2.26-2.39,25.76,25.76,0,0,0,5.65-2.67l1.77-1.14-.05-.14a8.61,8.61,0,0,0-1.86-2.44,27.27,27.27,0,0,0,8.48-4l3.86-2.9-6.48-1.12a28,28,0,0,0,9-6.22l2.54-2.87-5.77-.88a35,35,0,0,0,8.21-7.33l3.26-4.26-5.26.92a36,36,0,0,0,8.21-10.76l3.11-6.59-6.12,3.93-.16.1a49.89,49.89,0,0,0,6.29-11.29Z" transform="translate(-356.55 -390.8)" style="fill:#221f21"/><path d="M506.86,592.81l-2.52-3.4-2.9-1-3.63-4.68.18-.19c1.47-1.7,5.17-8.51,5.49-9.08.41-1.21,1.36-3.88,2-5.72a8.65,8.65,0,0,1-1.24.56l-.82.29.21-1.48a5.44,5.44,0,0,1-2.5.6h-.32l-1.38-.12,1.11-.84a3.33,3.33,0,0,0,.95-1.08,8.12,8.12,0,0,1-.86,0h-.43l-1.38-.09,1-.79a4.32,4.32,0,0,1-.8.09,3,3,0,0,1-2-.68l-.41-.39.41-.39a2.86,2.86,0,0,0,.7-2.13,3.44,3.44,0,0,1-1.7.38,4.4,4.4,0,0,1-.91-.08l-.2,0-.12-.16a3.54,3.54,0,0,1-.43-1.84,4.81,4.81,0,0,1-3.25,1.18c-.32,0-.54,0-.56,0l-.54-.09.09-.54c0-.26.09-.6.13-.93a8.33,8.33,0,0,1-2.74.35c-.71,0-1.25,0-1.27,0l-.39,0-.09-.37a2.63,2.63,0,0,1,.25-1.45,12.26,12.26,0,0,1-4.27,1.06l-.41,0-.12-.4a4,4,0,0,1,.75-3.07,20.39,20.39,0,0,1-4.29,1l-.73.06.18-.72a6.62,6.62,0,0,1,.95-2.11,18.47,18.47,0,0,1-4,.4,6.42,6.42,0,0,1-.68,0l-.61,0,.11-.59a6.06,6.06,0,0,1,2.25-3.19,12.45,12.45,0,0,1-1.84.14,6.21,6.21,0,0,1-2.68-.46l-.39-.2.13-.43a5.07,5.07,0,0,1,1.5-2.25h-.2a10,10,0,0,1-5-1.1l-.43-.28.23-.45a6.2,6.2,0,0,1,2.25-1.88,13.51,13.51,0,0,1-4.33-1.76l-.38-.25.16-.41c.11-.24.48-.63,1.57-1.17a14.41,14.41,0,0,1-6-2.44l-1-.74,4.56-.79a15,15,0,0,1-7-4.09l-.64-.73,4-.61a17.63,17.63,0,0,1-6.08-4.8l-.82-1.09,1.36.23a17,17,0,0,0,2.34.24c-4-2.35-6.15-6.9-6.28-7.13l-.79-1.68,1.57,1a8.07,8.07,0,0,0,2.4.94,12.34,12.34,0,0,1-2.93-5.24l-.2-.87.86.22a4.43,4.43,0,0,0,1,.14h.27a16.32,16.32,0,0,1-3.49-7.33l1-.39c1.34,2,15.43,10,18.42,11.19a28.73,28.73,0,0,1,3.86,2.09,9,9,0,0,0,3.18,1.53c1.49,0,4.79.41,5.22.47H481c5.35,0,6.76,4.08,7.67,7.92,1.22,5.11,3.56,7.4,4.85,8.32a15.06,15.06,0,0,0,3.51,1.81,2.61,2.61,0,0,1,1-.18l.56,0a15.63,15.63,0,0,1,2.2.38c.46,0,3.63-.21,4.86-2a4,4,0,0,0,.06-3.74l0-.06-3.15-.18-.05-.79a1.28,1.28,0,0,0-.37.88l-.2,1.47-.81-1.27a4.36,4.36,0,0,1-.66-2.86,2.05,2.05,0,0,1,.95-1.22,3.12,3.12,0,0,1,1.61-.48,2.59,2.59,0,0,1,1.14.26c.66-.71,2.38-2,6.24-2h.2c.22,0,5.24.27,5.12,3.6l0,.6-.13,0a6.25,6.25,0,0,1,.48,2.72c0,.44.21,1.69.77,2l-.45,1a3.89,3.89,0,0,1-.39-.16,6.29,6.29,0,0,0,2.7,2,6.67,6.67,0,0,0,1.57.58,5.06,5.06,0,0,0,.7-.18,10.46,10.46,0,0,1,2.79-.49,4.9,4.9,0,0,1,1.07.12,15.71,15.71,0,0,0,3.61-1.84c1.29-.91,3.61-3.2,4.83-8.32.91-3.85,2.32-7.92,7.67-7.92h.5c.43-.06,3.72-.43,5.2-.47a9,9,0,0,0,3.18-1.53,30,30,0,0,1,3.86-2.09c3-1.24,17.08-9.23,18.44-11.19l1,.39a16.12,16.12,0,0,1-3.49,7.33h.27a4.56,4.56,0,0,0,1-.14l.86-.22-.21.87a12.19,12.19,0,0,1-2.91,5.24,8.24,8.24,0,0,0,2.4-.94l1.56-1-.79,1.68a18.4,18.4,0,0,1-6.26,7.13,17,17,0,0,0,2.34-.24l1.36-.23-.86,1.09a17,17,0,0,1-6,4.8l4,.61-.65.73a15.24,15.24,0,0,1-7.06,4.09l4.58.79-1,.74a14.51,14.51,0,0,1-6,2.44,3.48,3.48,0,0,1,1.59,1.17l.16.41-.36.25a13.94,13.94,0,0,1-4.35,1.76,6,6,0,0,1,2.26,1.88l.25.45-.43.28a10,10,0,0,1-5,1.1h-.2a5,5,0,0,1,1.49,2.25l.13.43-.4.2a6.2,6.2,0,0,1-2.68.46,12.22,12.22,0,0,1-1.82-.14,6,6,0,0,1,2.23,3.19l.11.59-.61,0a6.15,6.15,0,0,1-.66,0,18.5,18.5,0,0,1-4-.4,7,7,0,0,1,.95,2.11l.16.72-.74-.06a20.68,20.68,0,0,1-4.29-1,4,4,0,0,1,.75,3.07l-.1.4-.43,0a12.22,12.22,0,0,1-4.27-1.06,2.61,2.61,0,0,1,.25,1.45l-.09.38-.37,0s-.57,0-1.29,0a8.38,8.38,0,0,1-2.74-.35c0,.33.09.67.14.93l.09.54-.55.09s-.21,0-.54,0a4.82,4.82,0,0,1-3.27-1.18,3.4,3.4,0,0,1-.43,1.84l-.11.16-.22,0a4.56,4.56,0,0,1-.91.08,3.44,3.44,0,0,1-1.7-.38,2.89,2.89,0,0,0,.71,2.13l.39.39-.41.39a3,3,0,0,1-2,.68,4.32,4.32,0,0,1-.81-.09l1,.79-1.38.09h-.45a7.53,7.53,0,0,1-.84,0,3.3,3.3,0,0,0,.95,1.08l1.11.84-1.39.12h-.31a5.38,5.38,0,0,1-2.5-.6l.21,1.48-.84-.29a9.56,9.56,0,0,1-1.23-.56c.64,1.84,1.59,4.52,2,5.72.31.57,4,7.38,5.49,9.08l.16.19-.59,3.55-2.68,1.81-2.63,2.28-3.84,2.35-2.54,1.44Z" transform="translate(-356.55 -390.8)" style="fill:#9a1c22"/><path d="M504.71,529.23s1.61-2.16,5.92-1.82c0,0,4.47.16,4.6,3,0,0-.88-.28-.75-.12s1,.73,1.07,3.18,1.2,2.8,1.2,2.8a2.4,2.4,0,0,1-1.68-1.38s-.64,2.33,3.6,4.25a4.09,4.09,0,0,1-2-.12s-.36.75,1.22,1.25c0,0-2.49.26-3.45-.81,0,0,.06.81,1.38,2.08,0,0-2.32.22-3-1.19l.18,2.75s-1.75-1.33-1.95-1.93c0,0-1.46,1.67-2.16,1.82l.21-2.64s-1.77,1.82-3.18,1.07a3.34,3.34,0,0,0,1.7-1.92,5.64,5.64,0,0,1-3.15.88l1.24-1.29a5.37,5.37,0,0,1-2.39,0s3.5-1.26,3.59-3.08a6.36,6.36,0,0,0-.64-3.15l2.75,0L506.36,530l1.57-1.19s-1.77.15-3.22.43m-2.54,2.43c.57-.72,3,.06,3,.06l-2.52.58,5.6.26c-2.29-2.95-5.62-3.86-6.85-2.82s.25,3.12.25,3.12a1.94,1.94,0,0,1,.54-1.2M521,546.34c-.48.32-.22,3.89-.22,3.89a9.22,9.22,0,0,1-.91,4.72l1.5-1.34,1.16,2.24c.77-.27,1.82-3.09,1.82-3.09.14,1.26,2.82.64,2.82.64.05.58,2.47-1.82,2.47-1.82l2.45,2.14v-3.53l3.2,1.83a7.59,7.59,0,0,0-.7-3.19l3.06.8-1.07-3.1,2.56.11-1.29-2.34,3.2-.06c.07-.9-2.13-2.46-2.13-2.46a24.94,24.94,0,0,0,3.85-.42c-.16-.81-2.77-2.3-2.77-2.3h4.49l-2-2.34a15.27,15.27,0,0,0,4-.6c-1-1.23-4.49-3-4.49-3a19.07,19.07,0,0,0,5.94-.52c-.18-1-4.11-2.68-4.11-2.68a20,20,0,0,0,6.13-1.12,23.13,23.13,0,0,0-3.31-1.92,30.19,30.19,0,0,0,5.19-2.19,18.43,18.43,0,0,0-4.6-1.28,4.45,4.45,0,0,0,3.2-3s-6.35.74-10.4.85-5.24,3.63-6.83,9.73-8,8.74-8,8.74c-7.1,3-6.56,10.8-6.56,10.8a38.89,38.89,0,0,0,2.4-4.07m42.7-30.76c8.42-4.92,8.89-10,8.89-10-4.08,4.48-22.37,13.25-22.37,13.25,6.51,1.53,13.48-3.28,13.48-3.28m-2.5,6.35c8-3.34,9.85-8.5,9.85-8.5-17.12,8.5-20.83,9.12-20.83,9.12s2.93,2.73,11-.62m10.14-3.63c-9.12,5.83-22.19,8.84-22.19,8.84a21.5,21.5,0,0,0,22.19-8.84M568,526l-20.49,5.19A22.3,22.3,0,0,0,568,526m-2.72,6.11s-7.48,0-11.55,1.06a52.89,52.89,0,0,1-7.87,1.31c7.58,4.7,19.42-2.37,19.42-2.37m-3.4,5.54c-1.07-.62-17.69,0-17.51.13,6.58,4.46,17.51-.12,17.51-.12m-4.6,4.24c-1.68-1.3-14.2-1.64-14.2-1.64,2.72,5,14.2,1.64,14.2,1.64m-2.25,4.37c-1.65-1.65-13.32-3.34-13.32-3.34,3.13,5.72,13.32,3.34,13.32,3.34m-3.92,4c-.29-1.75-11.16-5-11.16-5,.36,4.76,11.16,5,11.16,5m-2.54,4.08c-.29-1.7-2.72-3-2.72-3-7.47-2.61-7.76-3.56-7.76-3.56.34,5.43,10.48,6.55,10.48,6.55m-4.2,2.39c-.45-2.62-8.49-6.23-8.49-6.23.12,4.7,8.49,6.23,8.49,6.23m-4.18,2.26c0-2.22-3.22-4.09-3.22-4.09a9.61,9.61,0,0,1-4-2.6c.11,5.22,7.19,6.69,7.19,6.69m-4.47,1c-.05-1-5.88-6.22-5.88-6.22.11,5.27,5.88,6.22,5.88,6.22m-4.36,1.25-4.13-6.92a5.36,5.36,0,0,0,4.13,6.92m-4.58.9c.45-1.92-2.61-7.13-2.61-7.13-1.7,5.79,2.61,7.13,2.61,7.13m-3.86,1.19c.29-1.41-1.65-7.92-1.65-7.92-3.11,4.19,1.65,7.92,1.65,7.92m-19.73-12.86s.54-7.75-6.58-10.8c0,0-6.4-2.67-8-8.74s-2.75-9.62-6.83-9.73-10.41-.85-10.41-.85a4.46,4.46,0,0,0,3.2,3,18.39,18.39,0,0,0-4.58,1.28,29.61,29.61,0,0,0,5.17,2.19,23.08,23.08,0,0,0-3.31,1.92,19.94,19.94,0,0,0,6.13,1.12s-3.93,1.66-4.09,2.68a18.9,18.9,0,0,0,5.92.52s-3.47,1.81-4.49,3a15.48,15.48,0,0,0,4,.6l-2,2.34h4.47s-2.61,1.49-2.77,2.3a25.22,25.22,0,0,0,3.85.42s-2.18,1.56-2.13,2.46l3.2.06-1.27,2.34,2.54-.11-1.06,3.1,3-.8a7.57,7.57,0,0,0-.7,3.19l3.2-1.83v3.53l2.45-2.14s.66,3.31,1.29,3.52c0,0,1.13-1.11,1.18-1.7,0,0,2.66.85,2.82-.64,0,0,1.07,2.83,1.83,3.09l1.16-2.24,1.5,1.34a9.24,9.24,0,0,1-.91-4.72s.27-3.57-.21-3.89a36.4,36.4,0,0,0,2.42,4.07m-31.63-31.55s-18.28-8.77-22.35-13.25c0,0,.45,5.05,8.89,10,0,0,7,4.81,13.47,3.28m0,3.69s-3.72-.62-20.83-9.12c0,0,1.82,5.16,9.85,8.5s11,.62,11,.62m1.07,4.59s-13.07-3-22.19-8.84a21.52,21.52,0,0,0,22.19,8.84m1.66,4L453.8,526a22.32,22.32,0,0,0,20.51,5.19m1.64,3.29a52.75,52.75,0,0,1-7.89-1.31c-4.06-1-11.55-1.06-11.55-1.06s11.84,7.07,19.44,2.37m1.47,3.3c.18-.14-16.42-.74-17.51-.12,0,0,10.94,4.59,17.51.13m1.31,2.48s-12.52.34-14.22,1.64c0,0,11.5,3.35,14.22-1.64m1.36,2.67s-11.68,1.69-13.32,3.34c0,0,10.21,2.38,13.32-3.34m2.34,2.43s-10.87,3.23-11.16,5c0,0,10.82-.22,11.16-5m1.77,2.44s-.29,1-7.76,3.57c0,0-2.43,1.3-2.72,3,0,0,10.14-1.15,10.48-6.57m2,2.55s-8,3.63-8.5,6.23c0,0,8.39-1.53,8.5-6.23m2.88,1.92a9.45,9.45,0,0,1-4,2.6s-3.22,1.87-3.22,4.09c0,0,7.07-1.47,7.17-6.69m3.4,1.37s-5.83,5.27-5.88,6.22c0,0,5.78-1,5.88-6.22m3,.77-4.63,6.59a5.35,5.35,0,0,0,4.63-6.59m5,1s-1.93,6.51-1.65,7.92c0,0,4.76-3.73,1.65-7.92m18.55,6.58c-1.22-.09-1.79-1.58-1.79-1.58l.06,3.85a2.65,2.65,0,0,1-2.11-.84,7.53,7.53,0,0,0,2.65,5.45,15.89,15.89,0,0,0-.29-2c1.9,1.76,3.5,1.32,3.5,1.32a4.09,4.09,0,0,1-1.4-2.24,3.7,3.7,0,0,0,2,.22,2.1,2.1,0,0,1-.88-1.37c2.9,1.24,3.77.06,3.77.06-6.38-.73-5.22-9.56-5.22-9.56-1.7,2.81-.32,6.65-.32,6.65m-16.47-6.65s1.18,8.83-5.22,9.56c0,0,.88,1.19,3.77-.06a2.1,2.1,0,0,1-.88,1.37,3.68,3.68,0,0,0,2-.22,4.23,4.23,0,0,1-1.39,2.24s1.61.44,3.5-1.32a15.79,15.79,0,0,0-.29,2,7.53,7.53,0,0,0,2.65-5.45,2.7,2.7,0,0,1-2.11.84l.05-3.85s-.55,1.49-1.79,1.58c0,0,1.38-3.85-.32-6.65m2.74,19.26.18,2.27,1.09-1.8-.14,3.27,1.22-1.71.71,1.93.81-2.65,1,2.32.66-3.59.77,3.4,1-2.06.75,2.49.95-1.6.89,1.47,0-3.27,1.22,1.85.34-2.07.61.8c.72-1.56-2.07-8.55-2.07-8.55-.25.81-.9,2.41-.9,2.41l-.52-.9c-.34.8-1.24,3.77-1.24,3.77,0-1.64-1.7-4.86-1.7-4.86a30.85,30.85,0,0,0-1.61,5,10.77,10.77,0,0,0-1.09-3.83l-.89,1a3.31,3.31,0,0,0-.8-2.36,63.49,63.49,0,0,0-2.17,8.4Zm18.22,9.35L518,574.67c.14,5,5.58,9.21,5.58,9.21M523,587l-6-10.86c.66,5.9,6,10.86,6,10.86m-2.5,1.71c0-3.36-4.72-11.53-4.72-11.53-.05,5.52,4.72,11.53,4.72,11.53m-6.14-10.82c-.91,5.72,3.63,13.33,3.63,13.33.47-2.65-3.63-13.33-3.63-13.33m.66,14.88c1.09-3.51-2.38-14.65-2.38-14.65-1.5,7.75,2.38,14.65,2.38,14.65m-11.48-1.61c3.77-3.73,4-13.31,4-13.31-3.11,5.38-4,13.31-4,13.31m-2.32-2.59c4.83-4.26,4.83-11.47,4.83-11.47a41.66,41.66,0,0,0-4.83,11.47m4-12.56c-1.13,1.56-6,10.4-6,10.4,3.17.13,6-10.4,6-10.4m-1.13-1.08-5.44,8.49c2.59-.19,5.44-8.49,5.44-8.49m20.74-35.66c-.37-.56-5.54.44-6.11,1.39s-2.45.69-2.45.69c.25.63,1.38.89,1.38.89-1.31.7-3.9-.38-3.9-.38l-.32,2.47-2.38-1.64-2.4,1.64-.32-2.47s-2.57,1.08-3.9.38c0,0,1.13-.26,1.38-.89,0,0-1.88.25-2.45-.69s-5.72-1.95-6.1-1.39a18.55,18.55,0,0,1,4.52,2.56,13.7,13.7,0,0,0,4.31,2.21s-1.38.63-3.4-.81c0,0,1.79,2.51,1.48,9.34a4.38,4.38,0,0,1-1.95-2.58s-.64,2.15,1.16,5.36.57,5.23.57,5.23a3.12,3.12,0,0,0,1.47-1.95l-.09,4.88s1.57,0,1.95-1.13a6.68,6.68,0,0,1-.12,3.17l.45-.12.06,2.23s1.16.13,1.16-1.79l.82,3.75a6.65,6.65,0,0,0,1-3.6h.82a6.56,6.56,0,0,0,1,3.6l.82-3.75c0,1.92,1.17,1.79,1.17,1.79l.07-2.23.43.12a6.72,6.72,0,0,1-.13-3.17c.38,1.1,2,1.13,2,1.13l-.09-4.88a3.11,3.11,0,0,0,1.48,1.95s-1.23-2,.56-5.23,1.18-5.36,1.18-5.36a4.38,4.38,0,0,1-2,2.58c-.31-6.82,1.49-9.34,1.49-9.34-2,1.44-3.4.81-3.4.81a13.69,13.69,0,0,0,4.31-2.21,18.8,18.8,0,0,1,4.54-2.56" transform="translate(-356.55 -390.8)" style="fill:#ea5e28"/><g style="clip-path:url(#ak)"><rect x="149.67" y="137.28" width="9.93" height="13.48" style="fill:url(#al)"/></g><g style="clip-path:url(#am)"><rect x="145.02" y="139.23" width="4.29" height="1.18" style="fill:url(#an)"/></g><g style="clip-path:url(#ao)"><polygon points="175.88 192.85 237.56 157.19 201.54 94.89 139.87 130.54 175.88 192.85" style="fill:url(#ap)"/></g><g style="clip-path:url(#aq)"><polygon points="163.04 123.58 100.47 100.46 76.93 164.16 139.51 187.28 163.04 123.58" style="fill:url(#ar)"/></g><g style="clip-path:url(#as)"><rect x="159.54" y="171.49" width="5.29" height="4.98" style="fill:url(#at)"/></g><g style="clip-path:url(#au)"><rect x="144.09" y="171.49" width="5.28" height="4.98" style="fill:url(#av)"/></g><g style="clip-path:url(#aw)"><rect x="144.71" y="178.23" width="15.36" height="25.04" style="fill:url(#ax)"/></g><g style="clip-path:url(#ay)"><rect x="144.32" y="149.4" width="20.48" height="26.93" style="fill:url(#az)"/></g><path d="M536.64,572.18c-3.2-2.87-6.87-7.91-11.31-16.18-.75-2.16-2.43-7-3.59-10.26a15.6,15.6,0,0,0,2.22,1l1.47.5L525,544.6a9.83,9.83,0,0,0,4.49,1.07c.34,0,.56,0,.57,0l2.46-.23-2-1.5a5.7,5.7,0,0,1-1.7-1.94,12.38,12.38,0,0,0,1.52.07l.8,0,2.45-.15L532,540.48a7.62,7.62,0,0,0,1.41.14A5.39,5.39,0,0,0,537,539.4l.73-.69L537,538a5.24,5.24,0,0,1-1.27-3.84,6.19,6.19,0,0,0,3,.7,10.64,10.64,0,0,0,1.66-.14l.36-.09.21-.28a6.28,6.28,0,0,0,.75-3.32,9.13,9.13,0,0,0,6.83,2.06l1-.13-.16-1c-.07-.48-.16-1.08-.23-1.68a15.43,15.43,0,0,0,4.92.63c1.29,0,2.24-.07,2.29-.07l.68-.07.16-.67a4.7,4.7,0,0,0-.43-2.59,22.05,22.05,0,0,0,7.65,1.89l.75,0,.21-.72c.54-1.81-.34-3.86-1.34-5.5a35.74,35.74,0,0,0,7.67,1.71l1.32.11-.3-1.29a11.42,11.42,0,0,0-1.7-3.78,33,33,0,0,0,7.12.71c.75,0,1.2,0,1.22,0l1.09-.05-.2-1.08c-.39-2.17-2.2-4.19-4-5.71a24.13,24.13,0,0,0,3.29.25,10.88,10.88,0,0,0,4.81-.83l.72-.36-.25-.76a8.68,8.68,0,0,0-2.66-4h.36c5.67,0,8.78-1.9,8.92-2l.77-.49-.47-.8a10.63,10.63,0,0,0-4-3.36,25,25,0,0,0,7.8-3.18l.8-.48-.45-.68a8.34,8.34,0,0,0-2.84-2.12,26.47,26.47,0,0,0,10.77-4.38l1.77-1.32-8.18-1.43A26.86,26.86,0,0,0,610,480.58l1.18-1.32-7.12-1.08c6.2-2.66,10.64-8.32,10.85-8.62l1.5-2-2.41.42a31.7,31.7,0,0,1-4.2.42c7.1-4.22,11-12.39,11.23-12.79l1.43-3-2.82,1.8a14.41,14.41,0,0,1-4.29,1.72c3.83-3.82,7.28-11.6,7.28-11.6a25.56,25.56,0,0,1-5.06,1.28,1.71,1.71,0,0,1-.48,0,29.07,29.07,0,0,0,6.26-13.16l.25-2.48-1.79,1.69c-7.42,6.81-27.9,17.94-33.28,20.18a50.17,50.17,0,0,0-6.92,3.75c-2.27,1.39-3.56,2.27-5.71,2.74a36.4,36.4,0,0,1-9.35.83l-.88,0c-9.59,0-12.12,7.34-13.77,14.22-2.16,9.18-6.37,13.29-8.69,14.92a28.19,28.19,0,0,1-6.44,3.3,8.82,8.82,0,0,0-1.91-.19,18.81,18.81,0,0,0-5,.88,10.2,10.2,0,0,1-1.27.31,12.74,12.74,0,0,1-2.81-1,11.08,11.08,0,0,1-4.85-3.69c1.64,0,2.95-.15,2.95-.15a6.06,6.06,0,0,1-2.84-4.92,20.11,20.11,0,0,0-.63-4.84l0-1.09c.21-5.95-8.78-6.4-9.19-6.41h-.34c-6.94,0-10,2.26-11.21,3.53a4.36,4.36,0,0,0-2-.47,5.71,5.71,0,0,0-2.92.86,3.37,3.37,0,0,0-1.66,2.22,6.33,6.33,0,0,0,1.18,5.1c.63,1,1.64,2.25,1.64,2.25a9.16,9.16,0,0,1,0-1.84,4.86,4.86,0,0,1,.79-2.34s-1.07,1.92,2.79,1.57a7.23,7.23,0,0,1,3,.19l.05.08c1.07,2.79,1,5-.11,6.72-2.2,3.26-7.87,3.61-8.73,3.64a24.16,24.16,0,0,0-3.92-.69,7.86,7.86,0,0,0-1-.06,4.28,4.28,0,0,0-1.82.33,27.47,27.47,0,0,1-6.29-3.24c-2.33-1.64-6.51-5.75-8.69-14.92-1.65-6.87-4.18-14.22-13.75-14.22l-.9,0a60.26,60.26,0,0,1-9.35-.83,23,23,0,0,1-5.71-2.74,51.48,51.48,0,0,0-6.92-3.75c-5.39-2.24-22.2-11.65-30-17.39a41.55,41.55,0,0,1-5.31-4.49l.48,2.49c.05.33,2.07,8.62,7,14.09a37.77,37.77,0,0,1-6.19-2.66s3.36,8.25,7.21,12.06a14.37,14.37,0,0,1-4.31-1.72l-2.83-1.8,1.43,3c.2.4,4.13,8.57,11.25,12.79a31.1,31.1,0,0,1-4.2-.42l-2.45-.42,1.52,2a30.73,30.73,0,0,0,10.87,8.62l-7.14,1.08,1.18,1.32a27,27,0,0,0,12.63,7.32l-8.17,1.43,1.77,1.32A26.45,26.45,0,0,0,430.85,495c-2.86,1.13-3.15,2.84-3.15,2.84l.66.44a25.45,25.45,0,0,0,7.8,3.18,10.66,10.66,0,0,0-4,3.36l-.47.8.79.49c.13.08,3.24,2,8.91,2h.36a8.67,8.67,0,0,0-2.67,4l-.23.76.7.36a11,11,0,0,0,4.81.83,24,24,0,0,0,3.29-.25c-1.82,1.53-3.63,3.55-4,5.71l-.2,1.08,1.09.05s.48,0,1.22,0a33,33,0,0,0,7.12-.71,11.79,11.79,0,0,0-1.7,3.78l-.3,1.29,1.32-.11a36.25,36.25,0,0,0,7.69-1.71c-1,1.63-1.9,3.68-1.36,5.5l.22.72.77,0a22.06,22.06,0,0,0,7.63-1.89,4.73,4.73,0,0,0-.43,2.59l.16.67.7.07s1,.07,2.29.07a15.36,15.36,0,0,0,4.9-.62c-.07.59-.16,1.2-.23,1.68l-.16,1,1,.13a8.8,8.8,0,0,0,1,.05,8.61,8.61,0,0,0,5.87-2.12,6.46,6.46,0,0,0,.75,3.32l.23.28.34.09a10.7,10.7,0,0,0,1.66.14,6.18,6.18,0,0,0,3-.7A5.22,5.22,0,0,1,486.9,538l-.71.69.71.69a5.36,5.36,0,0,0,3.63,1.22,8,8,0,0,0,1.45-.14l-1.73,1.41,2.47.15.79,0A12.62,12.62,0,0,0,495,542a5.64,5.64,0,0,1-1.7,1.94l-2,1.5,2.47.23s.23,0,.57,0a9.84,9.84,0,0,0,4.49-1.07l-.39,2.63,1.5-.5a16.5,16.5,0,0,0,2.22-1c-1.18,3.29-2.86,8.1-3.61,10.26-4.08,7.91-7.69,11.5-12,16.18l4.2,7.3,7.14,6.26,4.56,7.09,9.16,2.8,9.14-2.8,4.56-7.1,7.1-6.25Z" transform="translate(-356.55 -390.8)" style="fill:#9a1c22"/><path d="M500.82,474.88s2.88-3.91,10.62-3.28c0,0,8,.29,8.25,5.42,0,0-1.57-.51-1.36-.22s1.86,1.3,1.91,5.71,2.14,5,2.14,5-2.41-.56-3-2.49c0,0-1.18,4.19,6.44,7.63a12.93,12.93,0,0,1-4-.25,7.61,7.61,0,0,0,2.58,2.29s-4.45.45-6.21-1.47c0,0,.11,1.47,2.49,3.71,0,0-4.18.4-5.38-2.15l.34,4.93s-2.7-1.36-3.49-3.44c0,0-2.66,3-3.9,3.26l.39-4.75a7.86,7.86,0,0,1-5.18,2.38,7.9,7.9,0,0,0,2.52-3.89s-3.27,2-5.65,1.58l2.22-2.31s-3,.62-4.29,0c0,0,6.26-2.26,6.44-5.55a11.65,11.65,0,0,0-1.13-5.63l4.92-.07-4.76-5.07,2.83-2.15s-3.17.29-5.76.8M496,479.25c1-1.27,5.61.09,5.61.09a25.88,25.88,0,0,0-4.15.29c.11,1,.54,1.08,2.16,1.14.57,0,2.74-.18,4.54-.16a22.29,22.29,0,0,1,3,.23c-4.11-5.28-10.09-6.91-12.29-5.06s.43,5.6.43,5.6a3.87,3.87,0,0,1,.74-2.13m33.26,29.52c-.86.59.41,3.76.41,3.76a16.46,16.46,0,0,1-1.63,8.43l2.68-2.39,2.11,4c1.34-.47,3.26-5.55,3.26-5.55.29,2.68,3,5.75,3,5.75l2.11-4.61c.09,1.06,2.11,3.07,2.11,3.07,1.15-.39,2.29-6.31,2.29-6.31l4.4,3.83v-6.32l5.76,3.26c.38-2-1.25-5.75-1.25-5.75l5.45,1.43L558,505.84l4.6.19-2.29-4.21a24.26,24.26,0,0,0,2.7,0c1.63-.05,3.4-.26,3.4-.26a12.69,12.69,0,0,0-4.18-4.27c1.65.25,6.9-.77,6.9-.77a19.82,19.82,0,0,0-4.17-4.18s.91.12,3.2.17c2,0,4-.09,4-.09s-1.11-1.75-1.91-2.74-1.41-1.56-1.41-1.56a26.18,26.18,0,0,0,6.87-1,29.46,29.46,0,0,0-8.23-5.42,64.94,64.94,0,0,0,10.82-1,22.2,22.2,0,0,0-7.39-4.78,35.73,35.73,0,0,0,11-2c-1.24-1.14-5.94-3.45-5.94-3.45a53.21,53.21,0,0,0,9.3-3.92c-2.22-1.35-8.71-2.23-8.71-2.23,5.85-1.63,6.21-5.54,6.21-5.54a180.2,180.2,0,0,1-18.67,1.54c-7.28.14-9.39,6.52-12.27,17.43s-14.36,15.71-14.36,15.71c-12.73,5.47-11.77,19.34-11.77,19.34.38.1,3.51-4.05,3.51-4.05m77.38-58.4c14.22-8.1,15.95-17.89,15.95-17.89-7.32,8-40.13,23.78-40.13,23.78,11.7,2.74,24.18-5.89,24.18-5.89m-4.47,11.37c14.43-6,17.88-15,17.88-15-30.67,15.24-37.59,16.14-37.59,16.14s5.28,4.88,19.71-1.12m17-5.58c-16.74,9.85-38.63,14.93-38.63,14.93,26.83,5.18,38.63-14.93,38.63-14.93m-5.49,13.16-36.07,9c22.55,5.38,36.07-9,36.07-9M609.08,480s-13,0-20.3,1.86a94.94,94.94,0,0,1-14.13,2.34c13.61,8.42,34.43-4.2,34.43-4.2M603,490c-14.73-1.84-31.35-.16-31,.06,11.79,8,31-.06,31-.06m-8.23,7.53c-3.06-2.33-25.12-3-25.12-3,4.88,9,25.13,3,25.13,3m-4.24,7.7c-3-2.95-23.32-5.92-23.32-5.92,5.58,10.27,23.32,5.92,23.32,5.92m-6.94,7c-4.65-4.83-19.53-8.75-19.53-8.75.61,8.54,19.53,8.75,19.53,8.75m-4.54,7.2A8.59,8.59,0,0,0,573,514,41.8,41.8,0,0,1,560.72,508c.61,9.74,18.35,11.46,18.35,11.46M572,524c-.8-4.67-15.27-10.51-15.27-10.51C557,522,572,524,572,524m-7.51,4.06c0-4-5.79-7.3-5.79-7.3a17.47,17.47,0,0,1-7.12-4.68c.2,9.35,12.91,12,12.91,12m-8,1.84c-.1-1.74-10.57-11.18-10.57-11.18.2,9.44,10.57,11.18,10.57,11.18m-7.81,2.23-7.44-12.4c-2.43,10.57,7.44,12.4,7.44,12.4m-8.24,1.62c.8-3.45-4.67-12.81-4.67-12.81-3,10.38,4.67,12.81,4.67,12.81m-6.9,2.14c.5-2.54-3-14.23-3-14.23-5.58,7.52,3,14.23,3,14.23m-35.41-23.1s1-13.87-11.79-19.34c0,0-11.48-4.78-14.36-15.71s-5-17.51-12.25-17.43A109.85,109.85,0,0,1,441,458.81a8,8,0,0,0,5.76,5.46s-6,1-8.24,2.31a53.2,53.2,0,0,0,9.3,3.92s-4.7,2.31-6,3.45a35.7,35.7,0,0,0,11,2s-5.06,1.9-7.73,4.72a34.24,34.24,0,0,0,10.77,1s-6,3.27-7.83,5.48a19.56,19.56,0,0,0,7.17.88,16.08,16.08,0,0,0-3.61,4.39,29.57,29.57,0,0,0,3.81.33,33.13,33.13,0,0,0,4.22-.14,11.32,11.32,0,0,0-5,3.91s5.46,1,6.9.77a11.94,11.94,0,0,0-4,4.25,22.1,22.1,0,0,0,2.72.36,17.42,17.42,0,0,0,3.18,0,15,15,0,0,0-1.13,1.81c-.66,1.22-1.16,2.31-1.16,2.31l4.61-.19-1.93,5.55,5.46-1.43s-1.61,3.72-1.23,5.75l5.74-3.26v6.32l4.4-3.83s1.14,5.93,2.31,6.31c0,0,2-2,2.11-3.07l2.09,4.61s2.68-3.07,3-5.75c0,0,1.91,5.08,3.25,5.55l2.09-4,2.68,2.39a16.43,16.43,0,0,1-1.63-8.43s.48-6.42-.37-7c0,0,3.93,7.38,4.31,7.27m-56.49-56s-2.77-1.77-6.62-3.72c-9.94-5-26.18-13.89-33.16-19.68a28.71,28.71,0,0,0,3.79,7.58c2.2,3.08,6.12,6.21,11.05,9.26a43,43,0,0,0,14.74,6.06,36.64,36.64,0,0,0,10.19.49m-.21,6.05s-6.94-.94-37.61-16.17c0,0,3.45,9.07,17.88,15.06s19.73,1.12,19.73,1.12m1.93,8.24s-22-5.09-39.27-15.49c0,0,12.43,20.67,39.27,15.49m2.93,7.22L409.49,469a40,40,0,0,0,36.77,9.35m3,5.89a94.57,94.57,0,0,1-14.13-2.34C427.76,480,415,480.1,415,480.1s20.62,12.54,34.25,4.11m2.65,5.88c.32-.22-16.17-1-30.83-.09,0,0,19,8.13,30.83.09m2.32,4.48s-16.2-.46-24.84,3c0,0,20,6,24.84-3m2.45,4.78s-20.37,3-23.32,6c0,0,17.72,4.29,23.32-6m3.15,4.17s-14.25,3.68-19.1,8.75c0,0,18.49-.2,19.1-8.75m3.34,4.48a14.81,14.81,0,0,1-2.15,1.45,70.83,70.83,0,0,1-10.39,4.41,10.22,10.22,0,0,0-5.63,5.85s17.56-2,18.17-11.71m3.79,5.74s-14.25,5.63-15.06,10.3c0,0,14.84-1.87,15.06-10.3m5.37,2.39a17.44,17.44,0,0,1-7.12,4.68s-5.79,3.35-5.79,7.3c0,0,12.7-2.64,12.91-12m5.67,2.64s-10.44,9.44-10.55,11.18c0,0,10.35-1.74,10.55-11.18m4.69,1-7.42,12.4s9.85-1.83,7.42-12.4m5.49,1.22s-5.49,9.35-4.68,12.81c0,0,7.73-2.42,4.68-12.81m5.19.72s-3.45,11.69-2.95,14.23c0,0,8.53-6.71,2.95-14.23m33.26,11.81c-2.2-.17-3.22-2.83-3.22-2.83l.15,6.73c-3.29-.28-3.74-.86-3.74-.86a11.9,11.9,0,0,0,4.67,9.28,29.3,29.3,0,0,0-.5-3.51c3.38,3.16,6.26,2.37,6.26,2.37-2.31-2.25-2.49-4-2.49-4a6.57,6.57,0,0,0,3.63.39c-1.48-1.12-1.4-2.19-1.4-2.19,5.19,2.2,6.58-.18,6.58-.18-11.46-1.31-9.37-17.11-9.37-17.11-3.06,5-.57,11.92-.57,11.92M497,521.59s2.09,15.81-9.37,17.11c0,0,1.57,2.15,6.78-.06a3.85,3.85,0,0,1-1.57,2.42,6.51,6.51,0,0,0,3.61-.39s-.16,1.76-2.5,4c0,0,2.9.79,6.28-2.37a29.41,29.41,0,0,0-.5,3.51,10.15,10.15,0,0,0,4.49-8.65,11.7,11.7,0,0,1-3.54.39l.13-6.89s-1,2.65-3.22,2.83c0,0,2.47-6.9-.57-11.92m4.88,34.54.34,4.07,1.95-3.22-.25,5.84,2.2-3,1.29,3.47,1.43-4.73,1.86,4.15,1.2-6.44,1.34,6.1,1.79-3.73,1.36,4.5,1.39-3.23,1.9,3-.07-5.84,2.2,3.3.59-3.72,1.41,1.57c-.32-2.24-.39-2.56-.68-4.07a87.15,87.15,0,0,0-3.36-11.41c-.43,1.44-1.61,4.33-1.61,4.33l-.93-1.61c-.59,1.44-2.2,6.79-2.2,6.79,0-3-3.06-8.74-3.06-8.74-1.09,1.78-2.88,8.9-2.88,8.9,0-3-1.95-6.87-1.95-6.87l-1.61,1.69a6,6,0,0,0-1.43-4.23c-1.79,4.15-3.9,15.07-3.9,15.07Zm32.41,16.37s-5.87-8.4-7.21-10.57a46.94,46.94,0,0,1-2.66-5.15c2.45,11.55,9.87,15.72,9.87,15.72M533,577l-10.14-18C525,571.1,533,577,533,577m-3.79,4.51c-1.68-10.55-8.46-20.67-8.46-20.67-.11,9.92,8.46,20.67,8.46,20.67m-11-19.4c-1.61,10.25,6.53,23.9,6.53,23.9.07-10-6.53-23.9-6.53-23.9m2.56,29.45c-.23-11.19-5.6-29-5.6-29-2.72,13.9,5.6,29,5.6,29m-9.09,2.83c4.88-14.79.34-31.68.34-31.68a55.16,55.16,0,0,0-.34,31.68m-8-3c6.74-11.53,5.51-28.73,5.51-28.73-4.92,11.35-5.51,28.73-5.51,28.73m-4.83-5.44C505.55,579.17,506,562,506,562c-5.6,9.66-7.21,23.89-7.21,23.89m-4.15-4.66c8.64-7.63,8.64-20.58,8.64-20.58-5.94,9.07-8.64,20.58-8.64,20.58m7-23.1c-2,2.79-10.78,19.07-10.78,19.07,8.14-6.57,10.78-19.07,10.78-19.07m-2-1.45s-3,5-4.49,7.4-5.9,7.86-5.9,7.86c6.62-1.74,10.39-15.26,10.39-15.26M537,492.78c-3.18-1-9.94.81-10.94,2.49s-4.42,1.24-4.42,1.24c.47,1.13,2.5,1.58,2.5,1.58-2.4,1.25-7-.67-7-.67l-.57,4.4-4.29-2.93L508,501.82l-.55-4.4s-4.63,1.92-7,.67c0,0,2-.46,2.49-1.58,0,0-3.4.45-4.42-1.24s-10.28-3.5-10.94-2.49c0,0,5.81,2.32,8.12,4.58s7.74,4,7.74,4-2.49,1.13-6.1-1.48c0,0,3.22,4.53,2.65,16.77,0,0-3-1.86-3.49-4.63,0,0-1.13,3.85,2.08,9.6s1,9.38,1,9.38a5.62,5.62,0,0,0,2.67-3.5l-.16,8.74s2.81,0,3.49-2c0,0,.63,1.86-.23,5.7l.8-.24.11,4s2.09.22,2.09-3.22l1.47,6.72a11.65,11.65,0,0,0,1.75-6.44H513a11.65,11.65,0,0,0,1.75,6.44l1.46-6.72c0,3.44,2.09,3.22,2.09,3.22l.11-4,.81.24c-.86-3.85-.23-5.7-.23-5.7.68,2,3.51,2,3.51,2l-.18-8.74A5.61,5.61,0,0,0,525,531s-2.2-3.62,1-9.38,2.09-9.6,2.09-9.6c-.45,2.77-3.49,4.63-3.49,4.63-.57-12.25,2.65-16.77,2.65-16.77-3.61,2.6-6.1,1.48-6.1,1.48s5.42-1.71,7.75-4,8.12-4.58,8.12-4.58" transform="translate(-356.55 -390.8)" style="fill:#e6273d"/><g style="clip-path:url(#ba)"><rect x="146.97" y="81.99" width="17.81" height="24.22" style="fill:url(#bb)"/></g><path d="M502,478.15a15.74,15.74,0,0,0-4-.72,3.33,3.33,0,0,0-2.65,1,1.62,1.62,0,0,1,.32-1.65,2.61,2.61,0,0,1,1.65-.45,10.26,10.26,0,0,1,5.6,2.15Z" transform="translate(-356.55 -390.8)" style="fill:#fedc11"/><g style="clip-path:url(#bc)"><polygon points="209.95 187.28 310.45 101.14 224.06 0.34 123.56 86.48 209.95 187.28" style="fill:url(#bd)"/></g><g style="clip-path:url(#be)"><polygon points="187.63 89.78 89.94 0 0 97.86 97.71 187.65 187.63 89.78" style="fill:url(#bf)"/></g><g style="clip-path:url(#bg)"><rect x="164.67" y="143.37" width="9.48" height="8.93" style="fill:url(#bh)"/></g><g style="clip-path:url(#bi)"><rect x="136.92" y="143.37" width="9.49" height="8.93" style="fill:url(#bj)"/></g><g style="clip-path:url(#bk)"><rect x="140.94" y="155.47" width="29.29" height="43.63" style="fill:url(#bl)"/></g><g style="clip-path:url(#bm)"><rect x="137.36" y="103.72" width="36.73" height="48.32" style="fill:url(#bn)"/></g><path d="M540.34,535.38a5.92,5.92,0,0,0-2.47.56,85.16,85.16,0,0,1-19.69,5.72l-.54.08-.46,0c-2.18.23-4.31.38-6.55.45s-4.36-.12-6.54-.31a3.61,3.61,0,0,0-.46,0l-.52-.08a85.87,85.87,0,0,1-19.83-5.31,5.73,5.73,0,0,0-2.45-.51,5.84,5.84,0,0,0-5.28,3.48,6.06,6.06,0,0,0-.55,3.34c-1.22.94-2,1.53-3.45,2.53l-1.79,1.27,1.95,1c2.76,1.42,5.49,2.68,8.39,3.85a6.64,6.64,0,0,0,2.54.49,4.69,4.69,0,0,0,.79-.06,6.43,6.43,0,0,0,2.75,1.67h.05a104.6,104.6,0,0,0,18.94,3.27h0l1.34.06c1.32.05,2.72.08,4.15.06h.2c1.43,0,2.82-.05,4.15-.14l1.31-.07v0h.06a104.65,104.65,0,0,0,18.88-3.65h0a6.46,6.46,0,0,0,2.74-1.73,7.14,7.14,0,0,0,.79,0,7,7,0,0,0,2.52-.53c2.88-1.23,5.6-2.55,8.34-4l1.93-1-1.82-1.24c-1.45-1-2.25-1.55-3.51-2.46a6.2,6.2,0,0,0-.61-3.34,5.9,5.9,0,0,0-5.35-3.38" transform="translate(-356.55 -390.8)" style="fill:#221f21"/><path d="M540.34,536.71a4.53,4.53,0,0,1,4.15,2.62,4.59,4.59,0,0,1,.34,3.34c1.66,1.23,2.5,1.83,4.24,3-2.68,1.44-5.4,2.75-8.21,4a5.63,5.63,0,0,1-2,.43,4.94,4.94,0,0,1-1.3-.17,5,5,0,0,1-2.59,1.91,103.68,103.68,0,0,1-18.65,3.6,2.35,2.35,0,0,1-.37,0,4.17,4.17,0,0,0-.93.06c-1.36.08-2.72.13-4.08.14h-.22c-1.36,0-2.72,0-4.07-.06a3.15,3.15,0,0,0-.93-.05h-.37a104.65,104.65,0,0,1-18.72-3.23,5.12,5.12,0,0,1-2.65-1.87,4.34,4.34,0,0,1-1.29.2,5.72,5.72,0,0,1-2.06-.4c-2.81-1.14-5.54-2.4-8.28-3.78,1.72-1.21,2.54-1.83,4.17-3.1a4.61,4.61,0,0,1,6.3-5.62A92.92,92.92,0,0,0,504,543.23c2.24.19,4.43.29,6.67.31s4.43-.22,6.67-.45a100,100,0,0,0,21.1-5.95,4.6,4.6,0,0,1,1.91-.45" transform="translate(-356.55 -390.8)" style="fill:#b02528"/><path d="M512.87,552.58l0-.43v-.21l0-.2,0,0a3.88,3.88,0,0,1-.36-.31l-1.18,0h-1.48v1.21l-.45,0-1.32,0h-.84a65.23,65.23,0,0,1-6.6-.59l-.45-.06.05-.44.05-.35-.12.07-.73.5-.14.09-.16,0c-2.38-.36-3.56-.57-5.9-1.12l-.43-.09.11-.43.57-2.65-.07,0c-.64.37-1,.55-1.63.89l-.14.08-.18,0-.75-.21-.34,1.23-.11.43-.43-.12-1.29-.37-.41-.12.11-.41.36-1.23-.77-.24-.16-.05-.09-.14c-.39-.64-.57-.95-.95-1.59l-.06-.1-.86,2.52-.14.43-.41-.14c-.5-.17-.77-.26-1.27-.44l-.41-.15.14-.4.18-.48.27-.76c-1.11-.39-1.79-.66-2.88-1.12l-.5,1.19-.18.41-.39-.17-1.23-.54-.41-.19.18-.4.41-.9,1.45-3.29.18-.41.39.19,1.14.48.43.16-.18.4-.46,1.12,0,.09c1,.43,1.72.68,2.77,1.07l.07-.2.36-1,.16-.42.41.15c.46.17.71.25,1.18.4l.41.14h0l.34.11c.47.16.72.22,1.18.37l.43.14-.12.42-.2.57-.09.33c.09.14.16.27.27.42.81.25,1.29.38,2.13.6.16-.09.27-.15.43-.22l.23-.92.11-.43.43.1,1.2.29.34.08h0l.43.09c2.16.48,3.24.68,5.47,1l.16,0,.13.14c.2.27.3.4.54.67l0,0,0-.31.05-.43.43.06a58.63,58.63,0,0,0,6.15.49l.43,0h.36c1.18,0,2,.05,2.77,0s1.57,0,2.74-.09h.2l.12.13c.27.22.39.34.66.57l.09.07.07-.09c.25-.26.36-.38.59-.64l.11-.12.18,0c1.95-.14,2.93-.26,4.9-.54l.18,0,.14.11.06,0,.64.47.06,0-.06-.33-.07-.44.43-.06c2.2-.36,3.26-.57,5.46-1.11l.18,0,.14.09c.31.19.45.28.75.45l.11.07.07-.11.45-.76.09-.15.18,0c1.91-.52,2.84-.81,4.74-1.46l.16-.07.18.08.79.39.07,0-.14-.33-.14-.41.41-.15c2.13-.78,3.15-1.21,5.21-2.15l.16-.07.18.06.84.3.18.06.07.17,1.61,3.46.07.17-.07.18c-.15.34-.2.52-.34.86l-.07.16-.16.07c-2.22,1-3.31,1.44-5.63,2.27l-.4.14-.41.14-1.27.43-.41.14-.15-.41-.16-.45-.1-.33c-1.11.37-1.82.58-2.95.9l.23.77.11.42-.43.13c-.5.14-.77.21-1.29.33l-.43.11-.1-.42-.09-.37-.07.1c-.21.29-.3.46-.52.77l-.09.13-.16,0c-2.31.54-3.52.78-5.88,1.14l-.43.06-.41.05c-.52.09-.79.12-1.31.19l-.45.06-.05-.43-.09-.61,0-.17c-1.15.14-1.88.21-3,.31v.16l.06.61,0,.45-.44,0-1.31.08-.39,0-.45,0c-.54,0-.79,0-1.32.05ZM507,550.45h.59l0-.81v-.72h-.54l0,.15,0,.34,0,.86v.18ZM495.31,549c1.13.24,1.84.37,3,.55l.21-1.47c-1.09-.18-1.81-.31-2.88-.52-.12.53-.2.92-.31,1.45m14.49.33c.57,0,1,0,1.5,0l1.45,0,0-.16V549l-1.56,0h-1.38v.31Zm7.14-.6,0,.17V549c1.13-.09,1.82-.16,2.93-.3l-.06-.35c-1.09.15-1.79.22-2.9.32m14-2.58.07.17,0,.17c1.09-.29,1.77-.51,2.85-.87l-.11-.35c-1.05.35-1.75.56-2.84.88m6.83-2.32.23.59.38.95c1.07-.41,1.75-.69,2.82-1.16l-.1-.25-.56-1.26c-1.05.46-1.71.73-2.77,1.13" transform="translate(-356.55 -390.8)" style="fill:#fff"/><path d="M480.84,541.22l1.16.49c-.27.63-.39,1-.68,1.59,1.45.61,2.16.88,3.63,1.41.23-.66.34-1,.59-1.64l1.18.4c-.59,1.77-.89,2.65-1.48,4.41-.5-.18-.77-.26-1.27-.46.25-.65.36-1,.59-1.63-1.47-.54-2.22-.82-3.67-1.44-.27.63-.41.94-.68,1.59-.48-.2-.73-.32-1.21-.54l1.84-4.2m60-.55.84.31c.64,1.38,1,2.07,1.59,3.45-.15.35-.2.53-.34.86-2.22,1-3.35,1.44-5.6,2.26-.7-1.89-1-2.83-1.75-4.73,2.13-.78,3.18-1.2,5.26-2.16m-2.7,5.25c1.47-.55,2.2-.86,3.67-1.51l-1-2.32c-1.41.63-2.13.91-3.54,1.47.36.94.54,1.42.91,2.36m-50.68-2.17,1.2.38c-.12.43-.2.65-.34,1.09.19.29.27.45.46.74,1,.3,1.47.43,2.47.7l.75-.41c.11-.45.16-.66.29-1.11l1.21.29c-.18.68-.25,1-.41,1.68-.62.37-.95.55-1.59.9l-1.18-.32c-.2.65-.27,1-.46,1.65-.5-.13-.77-.22-1.27-.37.2-.66.29-1,.46-1.64l-1.18-.36c-.39-.63-.57-.95-.93-1.58.2-.66.32-1,.52-1.63m46.8-.45c.32.16.48.24.8.38.57,1.67.88,2.5,1.47,4.16-.52.18-.75.26-1.27.43-.16-.47-.23-.71-.4-1.18-1.5.49-2.27.72-3.77,1.14.13.48.2.72.34,1.2l-1.29.33c-.45-1.67-.66-2.53-1.11-4.21l.45-.76c1.93-.52,2.88-.81,4.78-1.47M530.77,547c1.48-.42,2.24-.64,3.7-1.14-.15-.47-.23-.71-.4-1.19-1.45.48-2.16.7-3.65,1.12.14.49.2.73.34,1.21m-36.48-1.42c2.18.49,3.29.68,5.49,1l.56.68c-.2,1.4-.29,2.11-.46,3.53l-.75.48c-2.36-.35-3.53-.56-5.85-1.1.39-1.84.61-2.76,1-4.6m4.35,4.44c.16-.95.21-1.41.36-2.35-1.5-.23-2.25-.36-3.74-.67-.2.92-.29,1.4-.46,2.33,1.54.31,2.31.46,3.84.7m28.88-4.75.77.44c.36,1.45.54,2.18.91,3.62-.2.31-.3.46-.5.76-2.32.54-3.49.77-5.85,1.14-.32-1.94-.48-2.92-.81-4.86,2.2-.36,3.29-.58,5.47-1.1M523.6,548c1.5-.27,2.25-.43,3.75-.77-.07-.24-.09-.37-.14-.61-1.48.34-2.24.49-3.74.76.06.25.07.37.13.62m.32,1.82c1.56-.26,2.32-.42,3.86-.77-.07-.24-.11-.36-.16-.61-1.52.34-2.29.49-3.81.77,0,.23.07.36.11.61m-22.75-3.05c2.47.31,3.7.41,6.19.51,0,.47,0,.72-.05,1.2-2-.08-3-.16-5-.38,0,.24,0,.36-.05.6,1.75.2,2.65.27,4.42.35,0,.49,0,.72-.05,1.19-1.81-.08-2.7-.16-4.49-.37,0,.24,0,.37-.07.61,2.07.24,3.11.32,5.2.41,0,.47,0,.72-.06,1.19a63.86,63.86,0,0,1-6.56-.57c.21-1.9.32-2.84.55-4.74m19.47-.18.72.52c.27,1.7.39,2.55.66,4.25-.54.08-.79.13-1.32.19-.05-.48-.09-.73-.16-1.21-1.54.2-2.33.27-3.88.39,0,.48.07.73.11,1.21l-1.33.08c-.11-1.7-.18-2.55-.29-4.26.23-.25.36-.39.57-.64,2-.15,3-.26,4.92-.55m-4.1,2.94c1.52-.14,2.29-.21,3.83-.42l-.18-1.22c-1.5.2-2.25.29-3.75.41,0,.48.05.73.11,1.23m-8.42-2.21c1.13,0,2,0,2.82,0s1.64,0,2.75-.08c.27.22.39.33.66.57.05,1,.07,1.45.14,2.42l-.66,0c.29.23.41.35.68.58,0,.48.06.73.07,1.21l-1.31.05c0-.24,0-.37,0-.61l-.66-.58-1.34,0c-.59,0-1.14,0-1.91,0,0,.48,0,.73,0,1.19-.52,0-.79,0-1.31,0,.05-1.92.07-2.88.11-4.8m3,1.23h-1.79c0,.47,0,.71,0,1.2l1.95,0,1.89-.05c0-.48,0-.73-.05-1.21-.8,0-1.38,0-2,0m-30.76-8.48-.36.79c-.46,1.06-.77,1.77-1.13,2.58l-.72,1.64-.36.8.81.36c.48.21.73.33,1.23.54l.82.35.34-.82c.13-.3.23-.54.32-.78l2.07.81,0,.06-.25.74-.31.82.82.3c.52.2.77.28,1.29.45l.84.29.27-.84c.21-.62.39-1.12.55-1.61.14.25.32.51.52.86l.18.29.3.1.36.11c-.07.25-.13.49-.21.8l-.25.85.84.24,1.29.38.86.24.25-.86.11-.44.09-.36.34.08.34.09.31-.16c.34-.18.59-.32.86-.48l-.37,1.7-.18.85.84.2c2.32.53,3.54.76,5.92,1.11l.34.05.3.06.86.11a65.17,65.17,0,0,0,6.62.59h0l.63,0h.3l1.27,0,.89,0,0-.9v-.3h2.06l.12.11v.21l.06.88.88,0,1.31-.06.27,0,.64,0h0l1.27-.08.89-.07-.07-.89,0-.31c.77-.07,1.39-.15,2.18-.24l.06.35.11.87.86-.11c.54-.06.81-.11,1.31-.18h0l.43-.08.48-.06h0c2.34-.36,3.56-.59,5.87-1.14l.36-.08.29-.07.84-.21c.52-.14.79-.2,1.29-.34l.88-.23-.25-.86-.09-.33c.75-.23,1.36-.4,2.13-.65l.11.36.29.82.84-.27,1.25-.43h0l.45-.16.41-.14c2.27-.82,3.43-1.3,5.63-2.27l.32-.15.14-.32c.13-.35.2-.52.34-.88l.14-.35-.16-.35-.34-.76c-.45-.92-.75-1.59-1.27-2.7l-.14-.32-.34-.13c-.34-.12-.52-.2-.84-.31l-.34-.12-.34.14c-2,.94-3.06,1.36-5.19,2.14l-.82.3-.15,0-.34.13c-1.88.64-2.81.92-4.72,1.45l-.34.1-.2.31c-.1.19-.18.33-.27.47l-.48-.29-.32-.18-.34.08c-2.16.53-3.24.73-5.42,1.09l-.87.14-.14,0-.34.05c-2,.27-2.91.39-4.86.53l-.36,0-.25.27-.36.41-.43-.37-.25-.24-.36,0c-1.18.05-2,.08-2.74.09s-1.59,0-2.77,0h-.3l-.48,0a58.93,58.93,0,0,1-6.1-.5l-.88-.1-.14,0-.36,0c-2.22-.33-3.27-.53-5.44-1l-.86-.19-1.11-.26-.84-.22-.23.85c-.07.31-.11.51-.16.74l-.11,0c-.66-.16-1.13-.3-1.81-.49,0,0,0-.06-.06-.11v0l.22-.68.27-.85-.84-.26c-.45-.13-.68-.2-1.09-.35l-.84-.28c-.46-.16-.71-.23-1.18-.42l-.82-.29-.31.83-.29.8v0l-1.93-.75.32-.78.36-.82-.82-.34-1.14-.48Zm58,4c.7-.28,1.25-.51,2-.81l.18.4.15.31c-.72.31-1.29.54-2,.82-.09-.25-.16-.48-.25-.72m-42.56,4.58c0-.19.07-.39.13-.59.72.14,1.32.24,2,.38l-.09.6c-.75-.12-1.34-.23-2.08-.38" transform="translate(-356.55 -390.8)" style="fill:#221f21"/><path d="M576.64,548.06a6.18,6.18,0,0,1-2.61-.53c-2.86-1.25-4.33-1.87-7.08-3h0l-3.83-1.43c-.82-.3-1.5-.57-2.07-.82s-1.72-.64-1.72-.64l-4.06-1.31c-2.7-.87-4-1.27-6.69-2l-1.41-.39-.3-.08c-4.11-1-8.1-1.91-12.16-2.68l-3.15-.61h-.15a6.27,6.27,0,0,1-.82-.06c-2.81-.41-4.18-.58-7-.83a4.25,4.25,0,0,1-.64-.11l-3.2-.2c-1.9-.11-3-.16-4.38-.19l-2.92-.07c-.93,0-1.77.07-2.32,0s-2.29,0-2.29,0l-4.38.24c-2.88.19-4.27.32-7.14.65l-1.63.19-1.93.28-1.88.28,0,0-4.11.78c-2.56.48-3.81.76-6.42,1.37l-4,1a15.81,15.81,0,0,1-1.63.53c-1.34.38-2,.58-3.49,1-.91.24-2.07.55-2.58.62a10.76,10.76,0,0,1-1.75.14,9.55,9.55,0,0,1-2.09-.22,7.08,7.08,0,0,1-2.84,2.43c-2,.88-4,1.72-5.9,2.4-1.18.4-2.34.91-3.49,1.28-4.33,1.43-7,1.32-10.07-2.22-1-1.18-1.41-1.83-2.32-3.05L436.6,536c-1.13-1.56-1.91-2.68-3.18-4.53a5.43,5.43,0,0,1-.95-3.52,6.52,6.52,0,0,1,1.18-3.22,6.75,6.75,0,0,1,1.9-2c.29-.2.59-.39.93-.59l.75-.4c3.86-1.62,7.71-3.18,11.41-4.67a11.76,11.76,0,0,1,2.15-.62,8.1,8.1,0,0,1,1.49-.14,9.08,9.08,0,0,1,1.36.11,7.9,7.9,0,0,1,2.08.55c1.77-.62,3-1,4.31-1.47h0l1.2-.38,1.2-.37,1.61-.49,3.61-1.08c1.57-.46,3-.83,5.11-1.38l4.58-1.13.5-.12,5.49-1.13c2-.39,3.38-.64,4.85-.87l-.3-2.53,4.72-.55c4.86-.59,9.78-1,14.61-1.25h.31a8.61,8.61,0,0,1,1.93.25,9.27,9.27,0,0,1,2.2.86,8.37,8.37,0,0,1,1.72,1.25h.54c3,.05,4.56.1,7.58.29l4.72.29v.07c1.61.14,5,.38,8.14.83,2.86.41,5.51,1.05,5.51,1.05,4.76.94,9.68,2,14.6,3.34l4.58,1.19,0,.13c3.54,1.09,7.14,2.26,10.7,3.5a7.78,7.78,0,0,1,2,1.05,10.49,10.49,0,0,1,1.66,1.48,2.3,2.3,0,0,1,.2.23l.11,0a7.33,7.33,0,0,1,1.46-.15,4.93,4.93,0,0,1,.61,0,4.64,4.64,0,0,1,.77.11h.07l.46.12.22.06.36.08.34.14c3.18,1.25,6.38,2.61,9.59,4a11.63,11.63,0,0,1,1.79,1,8.19,8.19,0,0,1,2,2,6.23,6.23,0,0,1,1.25,3.59,7.84,7.84,0,0,1-.2,1.92,3.67,3.67,0,0,1-.32.94c-.18.35-.43.75-.43.75-.84,1.18-1.25,1.79-2.11,3,0,0-4.19,5.63-5.45,7.28a6.28,6.28,0,0,1-.9.9A10,10,0,0,1,581,547a12.88,12.88,0,0,1-1.84.65,9.27,9.27,0,0,1-2,.34l-.48,0" transform="translate(-356.55 -390.8)" style="fill:#9a1c22"/><path d="M576.64,546.87a5,5,0,0,1-2.13-.43c-3-1.32-8.1-3.35-8.1-3.35L563.53,542c-.8-.3-1.47-.57-2-.8a10.74,10.74,0,0,1-1.82-.94,5.46,5.46,0,0,1-.77-.58l-.23.51-3-1c-2.74-.89-4-1.28-6.74-2l-1.43-.39-.32-.08c-4.15-1-8.14-1.91-12.23-2.71l-4.15-.66c-2.84-.41-4.24-.58-7-.83-.2,0-3.86-.3-3.86-.3-1.9-.12-5.22-.19-5.22-.19h-2.38c-.91,0-1.52,0-2.06,0a11.47,11.47,0,0,1-2.13-.27,7,7,0,0,1-1.11-.37l.05.65-3.63.24c-2.88.18-4.31.32-7.19.67l-1.63.19-2,.29-1.41.19-1.2-.84.25,1-3.72.7c-2.58.5-3.83.78-6.46,1.39l-3.2.76s-1.75.54-2.49.75c-1.36.37-2.06.57-3.52,1-.59.16-1.93.51-2.42.58a12.08,12.08,0,0,1-1.57.13,8.61,8.61,0,0,1-2.61-.39,6.59,6.59,0,0,1-2.9,2.75,49.6,49.6,0,0,1-5.72,2.31c-1.18.41-2.16.85-3.54,1.32-4.47,1.49-6.87.46-8.67-1.86-.95-1.21-1.39-1.82-2.33-3l-2.7-3.6s-2.45-3.44-4-5.73a4.29,4.29,0,0,1-.72-2.77,5.33,5.33,0,0,1,1-2.64,5.81,5.81,0,0,1,1.57-1.72c.27-.18.61-.38.9-.54s8.28-3.5,12-5a10.83,10.83,0,0,1,1.93-.56,7.4,7.4,0,0,1,1.27-.12,8.71,8.71,0,0,1,1.18.09,6.91,6.91,0,0,1,2.2.65h0c2.47-.87,4-1.38,5.88-2l1.18-.38,1.61-.5,2.57-.77c2.07-.61,3.56-1,6.1-1.67l3.45-.85,1.2-.29,1.16.58q.78.38,1.56.8l-.38-1.92,3.51-.68c2.49-.48,4-.74,6-1l-.32-2.48,3.56-.44c4.83-.57,9.73-1,14.52-1.22h.25a6.72,6.72,0,0,1,1.64.22,7.31,7.31,0,0,1,1.91.75,6.91,6.91,0,0,1,1.79,1.38l1,0c3,0,4.53.09,7.53.27l3.54.22s5.74.46,11.12,1.32c1.41.23,3.54.7,3.54.7,4.76.92,9.64,2,14.52,3.32l3.45.89s7.8,2.54,11.69,3.89a7.06,7.06,0,0,1,1.7.91,8.62,8.62,0,0,1,1.45,1.3,6.73,6.73,0,0,1,.61.77l.79-.18a6.65,6.65,0,0,1,1.27-.12h.5a4.51,4.51,0,0,1,.8.13h0l.23.05.25.08.32.07.25.09c3.15,1.26,6.35,2.61,9.51,4a10,10,0,0,1,1.61.9,6.89,6.89,0,0,1,1.66,1.73A5.21,5.21,0,0,1,591.3,531a7.3,7.3,0,0,1-.18,1.65,2.91,2.91,0,0,1-.22.68,3.67,3.67,0,0,1-.34.59c-.82,1.17-1.25,1.78-2.11,3l-1.7,2.38s-2.41,3.14-3.74,4.87a3.51,3.51,0,0,1-.73.73A9.11,9.11,0,0,1,580.5,546a10.36,10.36,0,0,1-1.65.58,8.09,8.09,0,0,1-1.82.31h-.39" transform="translate(-356.55 -390.8)" style="fill:#fff"/><path d="M589.46,528.62a5.67,5.67,0,0,0-1.43-1.49,8.79,8.79,0,0,0-1.45-.81c-3.15-1.41-6.33-2.76-9.48-4l-.16-.07h0l-.27-.06-.29-.08,0,0h0a5.38,5.38,0,0,0-.81-.13,3.39,3.39,0,0,0-.41,0,6,6,0,0,0-1.09.1,7.22,7.22,0,0,0-1.41.41,5.83,5.83,0,0,0-.88-1.31A7.27,7.27,0,0,0,570.4,520a5.92,5.92,0,0,0-1.45-.79c-4.2-1.46-8.42-2.82-12.57-4.06l0-.06-.21-.05-2.31-.61c-4.87-1.26-9.75-2.38-14.47-3.3l-2.38-.46-.21-.05,0,.22-.07.45a4.61,4.61,0,0,0-1.14-.65,7.93,7.93,0,0,0-1.54-.41c-3.52-.52-5.22-.71-8.71-1l-.23,0H525l-.32,0a4.43,4.43,0,0,0-.82.09v0l0-.22h-.23l-2.36-.14c-3-.18-4.5-.24-7.46-.27h-1.46l-.27-.31a5.8,5.8,0,0,0-1.54-1.21,7.39,7.39,0,0,0-1.66-.64,5.84,5.84,0,0,0-1.43-.19h-.2c-4.77.24-9.64.65-14.45,1.23l-2.38.29-.21,0,0,.23.29,2.24c-2.5.36-4,.61-6.83,1.15l-2.34.46-.21,0,0,.21s.36,1.85.54,2.75c-1.11-.6-2.24-1.18-3.33-1.73l-.77-.4-.09,0-.07,0-.84.2-1.07.25-2.29.59c-2.93.75-4.45,1.17-7.14,2l-1.5.46-1.61.49c-2.52.81-4.1,1.34-7,2.38l-.45.15-.09-.05a5.41,5.41,0,0,0-2.15-.7,7.61,7.61,0,0,0-2.15,0,11.47,11.47,0,0,0-1.73.49c-3.72,1.49-7.55,3.05-11.37,4.67a8.15,8.15,0,0,0-1.31.77,5.13,5.13,0,0,0-1.32,1.44,4.54,4.54,0,0,0-.8,2.18,3.38,3.38,0,0,0,.54,2.16c1.61,2.31,2.43,3.47,4.15,5.83.22.3.59.84.59.84l.18.23,1.81,2.39c.91,1.23,1.36,1.82,2.29,3,2.24,3.07,5.81,2.15,7.55,1.54,1.18-.48,2.41-.91,3.61-1.32,1.86-.64,3.76-1.43,5.58-2.25a5.83,5.83,0,0,0,2.84-3.14,7.15,7.15,0,0,0,3.11.66,9.46,9.46,0,0,0,1.43-.11c.48-.07,2.09-.49,2.27-.55,1.47-.46,2.17-.64,3.54-1a13.4,13.4,0,0,0,2-.71,5,5,0,0,0,1.23-.8l.13.35.05.19.2,0,2.15-.5c2.63-.62,3.92-.89,6.51-1.39l2.47-.46.23,0-.07-.23s-.34-1.41-.55-2.23c.73.5,1.46,1,2.16,1.49l.77.54.07.06.09,0,.93-.13,2-.29,1.63-.21c2.92-.35,4.33-.48,7.24-.66l2.42-.16H506l0-.21-.11-1.47a3.5,3.5,0,0,0,.59.52,5.32,5.32,0,0,0,1.88.83,8.85,8.85,0,0,0,1.91.24c.52,0,1.13,0,2,0h2.61v0c1.73,0,2.95.09,5,.23l2.36.13.21,0v-.22a4.24,4.24,0,0,0,1.32.36c2.83.26,4.22.42,7.08.85l.52,0a3.81,3.81,0,0,0,1.16-.19l0,.11-.05.22.21,0,2.4.46c4.1.78,8.12,1.67,12.29,2.71l.34.1,1.41.39c2.72.74,4,1.15,6.8,2l2,.67.2.05.07-.18.41-.9a.49.49,0,0,1,.05.08,4.91,4.91,0,0,0,1.5,1.45,9.81,9.81,0,0,0,1.68.86c.54.24,1.2.5,2,.78l1.91.72.18.07.09-.17.05-.09a4.34,4.34,0,0,0,1.24.76c3.06,1.2,4.52,1.82,7.56,3.16a4.08,4.08,0,0,0,1.73.34H577a7.66,7.66,0,0,0,1.61-.27,10,10,0,0,0,1.52-.55,7,7,0,0,0,1.54-.95,7.51,7.51,0,0,0,.68-.71c.3-.37,1.91-2.49,3.24-4.28l.13-.17h0l0,0,.09-.18a5.57,5.57,0,0,0,.34-.86l.13.06.18.07.11-.14,1.15-1.58,2.09-3a3.23,3.23,0,0,0,.41-.92,6.66,6.66,0,0,0,.14-1.42,4.37,4.37,0,0,0-.88-2.39" transform="translate(-356.55 -390.8)" style="fill:#fccb11"/><path d="M588.62,529.21a4.74,4.74,0,0,0-1.18-1.24,7.25,7.25,0,0,0-1.27-.7c-3.15-1.42-6.33-2.76-9.42-4l-.55-.14a7.47,7.47,0,0,0-.8-.14l-.32,0a5.09,5.09,0,0,0-.91.09,6.45,6.45,0,0,0-2.08.83s-.23-.47-.3-.68a4.48,4.48,0,0,0-.86-1.39,6.31,6.31,0,0,0-1.07-1,4.51,4.51,0,0,0-1.24-.6c-4.31-1.49-8.62-2.9-12.84-4.15l-.61-.18v0l-1.56-.41c-4.85-1.27-9.69-2.37-14.4-3.28l-1.57-.31-.07.39s-.11.61-.21,1.24a4.62,4.62,0,0,0-.81-1,4.24,4.24,0,0,0-1.38-.89,6,6,0,0,0-1.29-.34c-3.49-.52-5.2-.71-8.65-1l-.13,0h0l-.25,0h-.06a3.66,3.66,0,0,0-.88.12,4.33,4.33,0,0,0-1.07.52l0,0,.06-.89-1.57-.09c-2.95-.18-4.49-.22-7.42-.25l-1.34,0-.48.49a2.92,2.92,0,0,0-.65-1.13,4.63,4.63,0,0,0-1.29-1,5.57,5.57,0,0,0-1.41-.55,4.8,4.8,0,0,0-1.18-.16h-.16c-4.74.24-9.58.65-14.36,1.24l-1.59.18.07.38s.14,1.34.23,2.06l-.16,0c-3.06.44-4.56.69-7.62,1.29l-1.54.3.36,1.87c.16.83.27,1.36.45,2.22-1.74-1-3.47-1.89-5.22-2.76l-.38-.19-.12-.07-.57.14-1.2.28-.64.16-1.5.38c-3.13.8-4.67,1.23-7.8,2.19h0l-.79.23-.39.13-.39.13c-3.08,1-4.65,1.49-7.8,2.59l-.95.34a2.6,2.6,0,0,0-.46-.32,4.27,4.27,0,0,0-1.75-.57,5.48,5.48,0,0,0-.91-.06,5.23,5.23,0,0,0-.91.07,7.64,7.64,0,0,0-1.54.43c-3.69,1.48-7.51,3-11.36,4.67l-.36.19a5.36,5.36,0,0,0-1.81,1.63,3.11,3.11,0,0,0-.64,1.9,3,3,0,0,0,.38,1.32c1.59,2.31,2.4,3.45,4.11,5.81a3.61,3.61,0,0,0,1.56,1.18,7.86,7.86,0,0,0,.79.26l-.54.22-.43.2,1.18,1.6c.91,1.19,1.36,1.8,2.31,3,1.36,1.87,3.47,2.13,6.31,1.24,3.72-1.39,6.22-2.32,9.12-3.56a4.67,4.67,0,0,0,2.67-3.93,5.27,5.27,0,0,0,3.77,1.35,8.84,8.84,0,0,0,1.29-.11c.45-.06,2.11-.5,2.13-.5,1.47-.46,2.17-.65,3.56-1a13.15,13.15,0,0,0,1.82-.65,4.51,4.51,0,0,0,1.84-1.57c.07-.09.16-.21.25-.35.16.51.34,1,.34,1l.11.34,1.41-.34c2.65-.62,3.92-.9,6.55-1.4l1.63-.32-.39-1.61c-.23-.92-.36-1.42-.57-2.31l0-.06c1.47,1,2.93,2,4.38,3l.5.37.63-.1,1.88-.27h0l.68-.07h0l1.06-.13c2.93-.35,4.36-.48,7.3-.68l1.61-.1-.43-5.12h0c.14-.05.56-.1.59,0a7.42,7.42,0,0,0,.88,2.78,3.58,3.58,0,0,0,1.09,1.28,4.22,4.22,0,0,0,1.52.67,8.18,8.18,0,0,0,1.72.22c.5,0,1.11,0,2,0l1.59,0c2.43,0,3.67.08,6.12.22l1.56.11.07-1a5.29,5.29,0,0,0,1,.72,3.42,3.42,0,0,0,1.34.45c2.85.26,4.24.43,7.14.84a2.16,2.16,0,0,0,.36,0,3,3,0,0,0,1.25-.29,4.86,4.86,0,0,0,1.11-.71,1.91,1.91,0,0,0,.29-.26v0l-.34,1.57,1.59.3c4.1.79,8.14,1.69,12.34,2.72l.36.1,1.43.39c2.74.75,4.06,1.16,6.81,2l1.34.43.59-1.28c.27-.64.48-1.08.68-1.56a9,9,0,0,1,.18.93l0,.3h0a3,3,0,0,0,.48,1.29,3.91,3.91,0,0,0,1.2,1.15,9.34,9.34,0,0,0,1.54.79c.52.22,1.16.48,1.93.77l1.27.48.16-.3s.13-.21.25-.45a2.89,2.89,0,0,0,.63.85,3.21,3.21,0,0,0,1.2.71c3,1.19,4.52,1.82,7.58,3.17a3.2,3.2,0,0,0,1.32.26h.29a7.56,7.56,0,0,0,1.4-.23,9.8,9.8,0,0,0,1.36-.49,6.69,6.69,0,0,0,1.29-.79,4,4,0,0,0,.46-.46l.16-.19c1.32-1.73,1.82-2.39,3.15-4.19l.05-.07,0,0,.05-.12a3.83,3.83,0,0,0,.45-1.74v-.17l.5.23.29.12.75-1c.84-1.17,1.2-1.72,2-2.89a3.22,3.22,0,0,0,.43-1.72V531a3.22,3.22,0,0,0-.68-1.83" transform="translate(-356.55 -390.8)" style="fill:#9a1c22"/><path d="M459.84,538.17c-3.29,1.44-5.4,2.15-9.14,3.55-1.82.56-3.49.59-4.47-.75s-1.38-1.8-2.27-3c1.75-.76,2.63-1.14,4.36-1.86.7,1,1.06,1.54,1.77,2.56,2.56-1,3.83-1.56,6.39-2.5-1-1.7-1.5-2.54-2.47-4.23-3.29,1.25-5,1.92-8.32,3.34a3.77,3.77,0,0,1-2.24.34,3.53,3.53,0,0,1-2.06-1.08c-1.68-2.31-2.34-3.23-3.93-5.54a1.42,1.42,0,0,1,.14-1.69,3.36,3.36,0,0,1,1.31-1.14c.05,0,.56-.26.63-.29,3.75-1.57,7.06-2.93,10.85-4.45a7.14,7.14,0,0,1,1.23-.35,4.14,4.14,0,0,1,1.31-.06,3.59,3.59,0,0,1,1.24.38,1.85,1.85,0,0,1,.7.71c.63,1.34.84,1.83,1.48,3.17-1.95.69-2.92,1.07-4.86,1.81-.52-.95-.77-1.44-1.29-2.39-2.84,1.1-4.29,1.69-7.21,2.92,1,1.55,1.45,2.31,2.47,3.86q4.32-1.85,8.74-3.47a3.64,3.64,0,0,1,2.18-.19,3,3,0,0,1,1.84,1.39c1.07,2.14,1.61,3.21,2.74,5.36a2.71,2.71,0,0,1-1.13,3.59m5.92-3a2.76,2.76,0,0,1-1.77-1.52c-1.7-3.5-3.1-6.56-4.67-10.14-.54.19-.8.27-1.36.47-.45-1-.66-1.48-1.11-2.47,3.18-1.12,4.76-1.65,7.89-2.61.38,1,.55,1.53.93,2.54l-1.46.46q2,5.1,4.11,10.11c1.57-.48,2.36-.71,3.93-1.15-1.29-3.4-2.54-6.81-3.7-10.25l-1.47.43c-.38-1-.55-1.54-.91-2.57,3.11-.93,4.67-1.37,7.75-2.15.29,1,.45,1.57.73,2.63l-1.32.34c1.14,3.83,2,6.54,3.29,10.32a2.83,2.83,0,0,1-.13,2.23,3.41,3.41,0,0,1-.21.35v0a2.75,2.75,0,0,1-1.25,1.12,10.14,10.14,0,0,1-1.59.57c-1.43.4-3.09.82-4.53,1.25a5.62,5.62,0,0,1-3.15.08m12.64-5.52c.57-.14.86-.21,1.43-.34-1.32-4.5-2.57-9-3.79-13.56l1.2-.28c3.34,1.66,6.6,3.49,9.8,5.49-.37-1.82-.55-2.73-.89-4.55l-1.41.26L484.2,514c3-.59,4.54-.84,7.55-1.27.16,1.2.25,1.8.41,3l-1.56.23q1.1,6.89,2.31,13.78l-.82.12q-4.61-3.25-9.41-6.21c.52,2,.77,3,1.29,5.07l1.31-.26c.23,1,.36,1.47.61,2.44-2.65.5-4,.79-6.64,1.42-.34-1.06-.5-1.59-.84-2.65m33.85-4h-1.39c0-2.05-.05-3.07-.07-5.11-1.31-1.48-2-2.24-2-2.3s.05-.2.16-.3.29-.24.53-.46.43-.3.65-.5a1.76,1.76,0,0,0,.53-.81c0-2.11-.05-3.17-.07-5.28a1.34,1.34,0,0,0-.36-.9,3.34,3.34,0,0,0-.87-.68,4.76,4.76,0,0,0-1-.4,2.75,2.75,0,0,0-.87-.1q-7.16.34-14.27,1.21c.13,1,.18,1.54.32,2.56l1.68-.21c.25,2.09.36,3.13.63,5.21l-2.18.28c.18,1.38.29,2.08.48,3.47l2.13-.25c.27,2.16.41,3.25.7,5.42l-1.5.18c.14,1,.23,1.55.38,2.59,3-.35,4.44-.49,7.39-.68-.07-1.06-.13-1.57-.21-2.64l-1.75.14c-.21-2.16-.3-3.26-.5-5.41,2.2-.19,3.31-.25,5.53-.35,0,.33,0,.5,0,.84.11,1.47.23,2.65.36,3.57a6.18,6.18,0,0,0,.7,2.23,2.34,2.34,0,0,0,.62.77,3,3,0,0,0,1,.42,8.3,8.3,0,0,0,1.41.18c.54,0,1.2,0,1.95,0,0-1.09,0-1.65,0-2.74m-11.62-8.64c-.16-1.85-.23-2.78-.39-4.65,2.18-.19,3.27-.26,5.43-.36.07,1.88.13,2.81.21,4.68-2.11.1-3.15.16-5.26.33m13,8.51,1.22,0c.09-3.86.16-7.69.23-11.55l-1.32,0c0-1.12,0-1.69,0-2.79,3,0,4.4.07,7.33.25-.05,1.12-.09,1.69-.14,2.8-.64-.05-.95-.07-1.55-.1-.2,3.84-.41,7.68-.61,11.54l1.41.08c-.07,1.14-.11,1.69-.18,2.82-2.57-.15-3.86-.21-6.44-.23,0-1.13,0-1.71,0-2.83m20.42,1.8a3.29,3.29,0,0,1-2.81,2.43c-2.9-.43-4.35-.6-7.22-.86a2.72,2.72,0,0,1-1.63-.68,2.84,2.84,0,0,1-.7-1.91c.11-1.38.16-2.06.27-3.46,1.54.12,2.31.18,3.85.34-.12,1.06-.18,1.57-.29,2.62,1.81.19,2.74.3,4.56.54.21-1.44.34-2.15.54-3.58-2.47-.33-3.72-.48-6.19-.7a1.88,1.88,0,0,1-.73-.25,3.22,3.22,0,0,1-.73-.56,3,3,0,0,1-.56-.79,1.79,1.79,0,0,1-.2-1c.2-2.44.29-3.67.45-6.11a1.1,1.1,0,0,1,.23-.56,2.15,2.15,0,0,1,.73-.68,2.73,2.73,0,0,1,.61-.31,2,2,0,0,1,.52-.08h.06a.22.22,0,0,0,.11,0h.13c3.4.3,5.13.5,8.55,1,.36.06.66.18,1,.24a2.25,2.25,0,0,1,1.7,2.24c-.25,1.4-.36,2.1-.61,3.5-1.7-.27-2.56-.41-4.26-.63.13-1,.2-1.42.32-2.38-2-.26-3-.4-4.94-.59l-.36,3.39c2.61.26,3.92.42,6.53.82a3.14,3.14,0,0,1,1.52,1,2.59,2.59,0,0,1,.56,1.78c-.38,2.1-.57,3.14-1,5.22M580.2,542a3.27,3.27,0,0,1-1.24,1,5,5,0,0,1-.95.31,4.73,4.73,0,0,1-2.41-.22c-3.1-1.37-4.26-1.86-7.3-3.06-1.52-.75-2-2-1.46-3.14s1-1.83,1.7-3.07c1.63.61,2.45.95,4.08,1.62-.54.91-.82,1.36-1.4,2.28,2,.79,2.94,1.19,4.88,2,.84-1.23,1.27-1.84,2.09-3.06-2.68-1.16-4-1.7-6.65-2.75a2.28,2.28,0,0,1-1.41-3.08c1.14-2.17,1.46-2.83,2.56-5a3.29,3.29,0,0,1,.68-.87,2.83,2.83,0,0,1,1-.38,3.76,3.76,0,0,1,1.79.15c3.15,1.25,6.28,2.57,9.37,4a6.05,6.05,0,0,1,1,.57,3.63,3.63,0,0,1,.79.84,2.62,2.62,0,0,1,.41.94,1.47,1.47,0,0,1-.09.82c-.82,1.17-1.24,1.75-2.07,2.92-1.88-.86-2.81-1.27-4.65-2.08.52-.8.77-1.2,1.29-2-2.16-.94-3.23-1.39-5.38-2.27-.66,1.18-1,1.76-1.68,2.93,2.81,1.14,4.22,1.75,7.06,3a3.27,3.27,0,0,1,1.34,1.43,1.72,1.72,0,0,1-.09,1.8c-1.29,1.74-2,2.61-3.28,4.36m-44-14.19,1.05.19c.36-1.63.54-2.44.88-4.06-.72-.14-1.06-.21-1.79-.33.29-1.37.4-2.06.66-3.42.73.13,1.09.19,1.82.34.32-1.53.47-2.3.75-3.82-.47-.1-.7-.15-1.16-.23.21-1.09.3-1.64.5-2.74,4.79.93,9.57,2,14.3,3.26-.59,2-.89,3-1.52,5-1.65-.46-2.47-.66-4.11-1.06.23-.8.34-1.21.55-2-1.55-.39-2.32-.57-3.86-.9-.32,1.35-.48,2-.8,3.38,1.47.32,2.2.49,3.67.85-.36,1.34-.54,2-.93,3.36-1.43-.35-2.15-.51-3.58-.82-.36,1.46-.56,2.19-.93,3.66,1.41.3,2.13.47,3.54.81.3-1,.45-1.52.73-2.54,1.56.38,2.34.58,3.91,1-.71,2.22-1.09,3.33-1.86,5.55-4.13-1-8.26-1.94-12.43-2.75.23-1.1.36-1.65.59-2.76m34.12-4a3,3,0,0,0-.55-.91,5.12,5.12,0,0,0-.86-.75,5.76,5.76,0,0,0-1.68-.81c-4.22-1.51-7.6-2.49-11.89-3.76-.32,1.05-.5,1.58-.82,2.65.57.15.86.25,1.43.41-.48,1.47-.73,2.21-1.23,3.67-.75-.22-1.13-.32-1.88-.54-.43,1.35-.66,2-1.11,3.36.71.21,1.09.31,1.81.51-.54,1.54-.82,2.31-1.4,3.85l-1.31-.37c-.4,1.07-.57,1.6-1,2.67,2.75.76,4.11,1.17,6.88,2.06.48-1,.7-1.56,1.15-2.6l-1.54-.48c.65-1.5.95-2.24,1.55-3.74,1.74.54,2.59.82,4.35,1.43-.07.15-.11.23-.2.39-.46,1.17-.86,2.13-1.13,2.89a4.68,4.68,0,0,0-.32,2s0,0,0,0a1.84,1.84,0,0,0,.25.9,2.61,2.61,0,0,0,.75.7,7.26,7.26,0,0,0,1.29.64c.52.23,1.15.49,1.88.75.57-1,.85-1.55,1.41-2.56l-1.25-.48c.77-1.46,1-2,1.91-3.69q-.4-1-.64-1.58c-.15-.37-.29-.71-.29-.73a.3.3,0,0,1,.14,0,.91.91,0,0,0,.23-.06l.3-.07s0,0,0,0c.32-.07.63-.16.91-.25s.68-.22.8-.43c.81-1.63,1.22-2.44,2-4.08a1.15,1.15,0,0,0,0-.93M563.6,527c-1.66-.57-2.49-.85-4.11-1.37.5-1.25.73-1.88,1.22-3.14,1.68.54,2.52.82,4.24,1.41L563.6,527" transform="translate(-356.55 -390.8)" style="fill:#fff"/></svg>